G04*
G04 #@! TF.GenerationSoftware,Altium Limited,Altium Designer,20.1.12 (249)*
G04*
G04 Layer_Color=32896*
%FSLAX44Y44*%
%MOMM*%
G71*
G04*
G04 #@! TF.SameCoordinates,2C1882C9-CBDB-4859-8E7C-5A4850A28F2A*
G04*
G04*
G04 #@! TF.FilePolarity,Positive*
G04*
G01*
G75*
%ADD11C,0.2000*%
%ADD73C,0.2500*%
D11*
X277650Y337680D02*
X276400Y339845D01*
X273900D01*
X272650Y337680D01*
X273900Y335515D01*
X276400D01*
X277650Y337680D01*
X383000Y177000D02*
X381000D01*
X383000D01*
X352026Y221570D02*
X555226D01*
Y269870D01*
X352026D02*
X555226D01*
X352026Y221570D02*
Y269870D01*
X102650Y173930D02*
X122650D01*
X102650D02*
Y178930D01*
X242650Y173930D02*
X262650D01*
Y178930D01*
X102650Y338930D02*
Y393550D01*
X262650D01*
Y338930D02*
Y393550D01*
X242650Y186330D02*
Y336330D01*
X122650Y186330D02*
X242650D01*
X122650D02*
Y336330D01*
X242650D01*
X386800Y44500D02*
X395200D01*
X386800Y25500D02*
X395200D01*
X386800Y77500D02*
X395200D01*
X386800Y58500D02*
X395200D01*
X552500Y174800D02*
Y183200D01*
X533500Y174800D02*
Y183200D01*
X522500Y174800D02*
Y183200D01*
X503500Y174800D02*
Y183200D01*
X304010Y179500D02*
X312410D01*
X304010Y198500D02*
X312410D01*
X250800Y89700D02*
Y100300D01*
X233200Y89700D02*
Y100300D01*
X40500Y89800D02*
Y98200D01*
X59500Y89800D02*
Y98200D01*
X88500Y89800D02*
Y98200D01*
X107500Y89800D02*
Y98200D01*
X138200Y89700D02*
Y100300D01*
X155800Y89700D02*
Y100300D01*
X183200Y89700D02*
Y100300D01*
X200800Y89700D02*
Y100300D01*
X437500Y113500D02*
Y148500D01*
X425100Y113500D02*
X437500D01*
X372500D02*
Y148500D01*
Y113500D02*
X384900D01*
X94997Y384998D02*
Y375001D01*
X92998Y373002D01*
X88999D01*
X87000Y375001D01*
Y384998D01*
X83001Y373002D02*
X79003D01*
X81002D01*
Y384998D01*
X83001Y382999D01*
X249776Y123444D02*
Y135440D01*
X243778D01*
X241779Y133441D01*
Y129442D01*
X243778Y127443D01*
X249776D01*
X245777D02*
X241779Y123444D01*
X229782Y135440D02*
X237780D01*
Y129442D01*
X233781Y131441D01*
X231782D01*
X229782Y129442D01*
Y125443D01*
X231782Y123444D01*
X235781D01*
X237780Y125443D01*
X377997Y294998D02*
Y283002D01*
Y289000D01*
X369999D01*
Y294998D01*
Y283002D01*
X358003D02*
X366001D01*
X358003Y290999D01*
Y292999D01*
X360003Y294998D01*
X364001D01*
X366001Y292999D01*
X154780Y123444D02*
Y135440D01*
X148782D01*
X146783Y133441D01*
Y129442D01*
X148782Y127443D01*
X154780D01*
X150781D02*
X146783Y123444D01*
X142784Y135440D02*
X134786D01*
Y133441D01*
X142784Y125443D01*
Y123444D01*
X199738D02*
Y135440D01*
X193740D01*
X191741Y133441D01*
Y129442D01*
X193740Y127443D01*
X199738D01*
X195739D02*
X191741Y123444D01*
X187742D02*
X183743D01*
X185742D01*
Y135440D01*
X187742Y133441D01*
X314007Y125002D02*
Y136998D01*
X322004D01*
X326003Y125002D02*
Y136998D01*
X332001D01*
X334000Y134999D01*
Y127001D01*
X332001Y125002D01*
X326003D01*
X343997D02*
X339998D01*
X337999Y127001D01*
Y134999D01*
X339998Y136998D01*
X343997D01*
X345996Y134999D01*
Y127001D01*
X343997Y125002D01*
X349995Y136998D02*
X353993D01*
X351994D01*
Y125002D01*
X349995Y127001D01*
X308999Y215999D02*
X310999Y217998D01*
X314997D01*
X316997Y215999D01*
Y208001D01*
X314997Y206002D01*
X310999D01*
X308999Y208001D01*
X305001Y215999D02*
X303001Y217998D01*
X299003D01*
X297003Y215999D01*
Y213999D01*
X299003Y212000D01*
X297003Y210001D01*
Y208001D01*
X299003Y206002D01*
X303001D01*
X305001Y208001D01*
Y210001D01*
X303001Y212000D01*
X305001Y213999D01*
Y215999D01*
X303001Y212000D02*
X299003D01*
X347999Y39999D02*
X349999Y41998D01*
X353997D01*
X355997Y39999D01*
Y32001D01*
X353997Y30002D01*
X349999D01*
X347999Y32001D01*
X344001Y41998D02*
X336003D01*
Y39999D01*
X344001Y32001D01*
Y30002D01*
X347999Y72999D02*
X349999Y74998D01*
X353997D01*
X355997Y72999D01*
Y65001D01*
X353997Y63002D01*
X349999D01*
X347999Y65001D01*
X336003Y74998D02*
X340002Y72999D01*
X344001Y69000D01*
Y65001D01*
X342001Y63002D01*
X338003D01*
X336003Y65001D01*
Y67001D01*
X338003Y69000D01*
X344001D01*
X543999Y215999D02*
X545999Y217998D01*
X549997D01*
X551997Y215999D01*
Y208001D01*
X549997Y206002D01*
X545999D01*
X543999Y208001D01*
X532003Y217998D02*
X540001D01*
Y212000D01*
X536002Y213999D01*
X534003D01*
X532003Y212000D01*
Y208001D01*
X534003Y206002D01*
X538001D01*
X540001Y208001D01*
X513999Y214999D02*
X515999Y216998D01*
X519997D01*
X521997Y214999D01*
Y207001D01*
X519997Y205002D01*
X515999D01*
X513999Y207001D01*
X504003Y205002D02*
Y216998D01*
X510001Y211000D01*
X502003D01*
X50517Y132679D02*
X52516Y134678D01*
X56515D01*
X58514Y132679D01*
Y124681D01*
X56515Y122682D01*
X52516D01*
X50517Y124681D01*
X38520Y122682D02*
X46518D01*
X38520Y130679D01*
Y132679D01*
X40520Y134678D01*
X44518D01*
X46518Y132679D01*
X98523D02*
X100522Y134678D01*
X104521D01*
X106520Y132679D01*
Y124681D01*
X104521Y122682D01*
X100522D01*
X98523Y124681D01*
X94524Y122682D02*
X90525D01*
X92524D01*
Y134678D01*
X94524Y132679D01*
D73*
X346926Y233020D02*
X345051Y234103D01*
Y231938D01*
X346926Y233020D01*
M02*
