G04*
G04 #@! TF.GenerationSoftware,Altium Limited,Altium Designer,20.1.12 (249)*
G04*
G04 Layer_Color=65535*
%FSLAX44Y44*%
%MOMM*%
G71*
G04*
G04 #@! TF.SameCoordinates,2C1882C9-CBDB-4859-8E7C-5A4850A28F2A*
G04*
G04*
G04 #@! TF.FilePolarity,Positive*
G04*
G01*
G75*
%ADD10C,0.0000*%
%ADD11C,0.2000*%
%ADD12C,0.1270*%
%ADD13C,0.4000*%
%ADD14C,0.2286*%
%ADD15C,0.2540*%
D10*
X196676Y299676D02*
X194676D01*
X196676D01*
X113000Y264000D02*
X111000D01*
X113000D01*
D11*
X126000Y224000D02*
X124000D01*
X126000D01*
X48520Y42000D02*
X46520D01*
X48520D01*
X46520D01*
X48520D01*
X316690Y59650D02*
X314690D01*
X316690D01*
X579000Y413000D02*
X577000D01*
X579000D01*
X243670Y323560D02*
X241795Y324643D01*
Y322477D01*
X243670Y323560D01*
X36030Y180100D02*
Y332500D01*
X63970D01*
Y180100D02*
Y332500D01*
X36030Y180100D02*
X63970D01*
X148700Y287200D02*
X159300D01*
X148700Y304800D02*
X159300D01*
X149700Y275800D02*
X160300D01*
X149700Y258200D02*
X160300D01*
X184900Y151300D02*
Y162600D01*
X145100Y151300D02*
X184900D01*
X145100D02*
Y162600D01*
X184900Y227400D02*
Y238700D01*
X145100D02*
X184900D01*
X145100Y227400D02*
Y238700D01*
X239800Y161500D02*
X248200D01*
X239800Y180500D02*
X248200D01*
X104500Y199800D02*
Y208200D01*
X85500Y199800D02*
Y208200D01*
X52500Y29300D02*
X204900D01*
X52500Y142330D02*
X204900D01*
Y29300D02*
Y142330D01*
X52500Y29300D02*
Y142330D01*
X251200Y89700D02*
Y100300D01*
X268800Y89700D02*
Y100300D01*
X234800Y89700D02*
Y100300D01*
X217200Y89700D02*
Y100300D01*
X331640Y81410D02*
Y92010D01*
X349240Y81410D02*
Y92010D01*
X301640Y81410D02*
Y92010D01*
X319240Y81410D02*
Y92010D01*
X504590Y145000D02*
X521000D01*
Y1000D02*
Y78310D01*
X431000Y145000D02*
X446790D01*
X521000Y135460D02*
Y145000D01*
X431000Y1000D02*
Y145000D01*
Y1000D02*
X521000D01*
X551200Y189709D02*
Y200309D01*
X533600Y189709D02*
Y200309D01*
X496420Y312130D02*
Y450560D01*
X253850Y312130D02*
X496420D01*
X253850D02*
Y450560D01*
X496420D01*
X564800Y95360D02*
Y105960D01*
X547200Y95360D02*
Y105960D01*
X284800Y250040D02*
Y260640D01*
X267200Y250040D02*
Y260640D01*
X524000Y317000D02*
X531997D01*
X575000Y316999D02*
X582997D01*
X578999Y320997D02*
Y313000D01*
X331004Y115002D02*
Y126998D01*
X337002D01*
X339002Y124999D01*
Y121000D01*
X337002Y119001D01*
X331004D01*
X335003D02*
X339002Y115002D01*
X343000D02*
X346999D01*
X345000D01*
Y126998D01*
X343000Y124999D01*
X352997Y115002D02*
X356996D01*
X354996D01*
Y126998D01*
X352997Y124999D01*
X300003Y115002D02*
Y126998D01*
X306001D01*
X308001Y124999D01*
Y121000D01*
X306001Y119001D01*
X300003D01*
X304002D02*
X308001Y115002D01*
X311999Y124999D02*
X313999Y126998D01*
X317997D01*
X319997Y124999D01*
Y122999D01*
X317997Y121000D01*
X319997Y119001D01*
Y117001D01*
X317997Y115002D01*
X313999D01*
X311999Y117001D01*
Y119001D01*
X313999Y121000D01*
X311999Y122999D01*
Y124999D01*
X313999Y121000D02*
X317997D01*
X225003Y384998D02*
Y373002D01*
Y379000D01*
X233001D01*
Y384998D01*
Y373002D01*
X236999Y382999D02*
X238999Y384998D01*
X242997D01*
X244997Y382999D01*
Y380999D01*
X242997Y379000D01*
X240998D01*
X242997D01*
X244997Y377001D01*
Y375001D01*
X242997Y373002D01*
X238999D01*
X236999Y375001D01*
X440000Y166998D02*
X436001D01*
X438001D01*
Y157001D01*
X436001Y155002D01*
X434002D01*
X432003Y157001D01*
X443999Y155002D02*
X447997D01*
X445998D01*
Y166998D01*
X443999Y164999D01*
X543003Y305998D02*
Y294002D01*
Y300000D01*
X551001D01*
Y305998D01*
Y294002D01*
X560997D02*
Y305998D01*
X554999Y300000D01*
X562997D01*
X202003Y245998D02*
Y236001D01*
X204003Y234002D01*
X208001D01*
X210001Y236001D01*
Y245998D01*
X213999Y243999D02*
X215999Y245998D01*
X219997D01*
X221997Y243999D01*
Y241999D01*
X219997Y240000D01*
X217998D01*
X219997D01*
X221997Y238001D01*
Y236001D01*
X219997Y234002D01*
X215999D01*
X213999Y236001D01*
X55003Y160998D02*
Y151001D01*
X57003Y149002D01*
X61001D01*
X63001Y151001D01*
Y160998D01*
X74997Y149002D02*
X66999D01*
X74997Y156999D01*
Y158999D01*
X72997Y160998D01*
X68999D01*
X66999Y158999D01*
X210005Y124002D02*
Y135998D01*
X216003D01*
X218002Y133999D01*
Y130000D01*
X216003Y128001D01*
X210005D01*
X214004D02*
X218002Y124002D01*
X222001D02*
X226000D01*
X224000D01*
Y135998D01*
X222001Y133999D01*
X231998D02*
X233997Y135998D01*
X237996D01*
X239995Y133999D01*
Y131999D01*
X237996Y130000D01*
X235996D01*
X237996D01*
X239995Y128001D01*
Y126001D01*
X237996Y124002D01*
X233997D01*
X231998Y126001D01*
X253005Y125002D02*
Y136998D01*
X259003D01*
X261002Y134999D01*
Y131000D01*
X259003Y129001D01*
X253005D01*
X257003D02*
X261002Y125002D01*
X265001D02*
X269000D01*
X267000D01*
Y136998D01*
X265001Y134999D01*
X282995Y125002D02*
X274998D01*
X282995Y132999D01*
Y134999D01*
X280996Y136998D01*
X276997D01*
X274998Y134999D01*
X145003Y312002D02*
Y323998D01*
X151001D01*
X153001Y321999D01*
Y318000D01*
X151001Y316001D01*
X145003D01*
X149002D02*
X153001Y312002D01*
X156999Y314001D02*
X158999Y312002D01*
X162997D01*
X164997Y314001D01*
Y321999D01*
X162997Y323998D01*
X158999D01*
X156999Y321999D01*
Y319999D01*
X158999Y318000D01*
X164997D01*
X118003Y242002D02*
Y253998D01*
X124001D01*
X126001Y251999D01*
Y248000D01*
X124001Y246001D01*
X118003D01*
X122002D02*
X126001Y242002D01*
X137997Y253998D02*
X133998Y251999D01*
X129999Y248000D01*
Y244001D01*
X131999Y242002D01*
X135997D01*
X137997Y244001D01*
Y246001D01*
X135997Y248000D01*
X129999D01*
X266003Y285002D02*
Y296998D01*
X272001D01*
X274001Y294999D01*
Y291000D01*
X272001Y289001D01*
X266003D01*
X270002D02*
X274001Y285002D01*
X283997D02*
Y296998D01*
X277999Y291000D01*
X285997D01*
X498003Y193002D02*
Y204998D01*
X504001D01*
X506001Y202999D01*
Y199000D01*
X504001Y197001D01*
X498003D01*
X502002D02*
X506001Y193002D01*
X509999Y202999D02*
X511999Y204998D01*
X515997D01*
X517997Y202999D01*
Y200999D01*
X515997Y199000D01*
X513998D01*
X515997D01*
X517997Y197001D01*
Y195001D01*
X515997Y193002D01*
X511999D01*
X509999Y195001D01*
X543812Y128944D02*
Y140940D01*
X549810D01*
X551809Y138941D01*
Y134942D01*
X549810Y132943D01*
X543812D01*
X547811D02*
X551809Y128944D01*
X563806D02*
X555808D01*
X563806Y136941D01*
Y138941D01*
X561806Y140940D01*
X557808D01*
X555808Y138941D01*
X208001Y309001D02*
Y316999D01*
X206001Y318998D01*
X202003D01*
X200003Y316999D01*
Y309001D01*
X202003Y307002D01*
X206001D01*
X204002Y311001D02*
X208001Y307002D01*
X206001D02*
X208001Y309001D01*
X219997Y307002D02*
X211999D01*
X219997Y314999D01*
Y316999D01*
X217997Y318998D01*
X213999D01*
X211999Y316999D01*
X85561Y306291D02*
Y314289D01*
X83562Y316288D01*
X79563D01*
X77564Y314289D01*
Y306291D01*
X79563Y304292D01*
X83562D01*
X81563Y308291D02*
X85561Y304292D01*
X83562D02*
X85561Y306291D01*
X89560Y304292D02*
X93559D01*
X91559D01*
Y316288D01*
X89560Y314289D01*
X41003Y352998D02*
Y341002D01*
Y347000D01*
X49001D01*
Y352998D01*
Y341002D01*
X60997Y352998D02*
X52999D01*
Y347000D01*
X56998Y348999D01*
X58997D01*
X60997Y347000D01*
Y343001D01*
X58997Y341002D01*
X54999D01*
X52999Y343001D01*
X367003Y75998D02*
Y64002D01*
Y70000D01*
X375000D01*
Y75998D01*
Y64002D01*
X378999D02*
X382997D01*
X380998D01*
Y75998D01*
X378999Y73999D01*
X216003Y68998D02*
Y57002D01*
X222001D01*
X224001Y59001D01*
Y66999D01*
X222001Y68998D01*
X216003D01*
X233997Y57002D02*
Y68998D01*
X227999Y63000D01*
X235997D01*
X252003Y68998D02*
Y57002D01*
X258001D01*
X260001Y59001D01*
Y66999D01*
X258001Y68998D01*
X252003D01*
X263999Y66999D02*
X265999Y68998D01*
X269997D01*
X271997Y66999D01*
Y64999D01*
X269997Y63000D01*
X267998D01*
X269997D01*
X271997Y61001D01*
Y59001D01*
X269997Y57002D01*
X265999D01*
X263999Y59001D01*
X550512Y71432D02*
Y59436D01*
X556510D01*
X558509Y61435D01*
Y69433D01*
X556510Y71432D01*
X550512D01*
X562508Y59436D02*
X566507D01*
X564507D01*
Y71432D01*
X562508Y69433D01*
X87002Y241999D02*
X85003Y243998D01*
X81004D01*
X79005Y241999D01*
Y234001D01*
X81004Y232002D01*
X85003D01*
X87002Y234001D01*
X91001Y232002D02*
X95000D01*
X93000D01*
Y243998D01*
X91001Y241999D01*
X108995Y243998D02*
X104996Y241999D01*
X100998Y238000D01*
Y234001D01*
X102997Y232002D01*
X106996D01*
X108995Y234001D01*
Y236001D01*
X106996Y238000D01*
X100998D01*
X237002Y198999D02*
X235003Y200998D01*
X231004D01*
X229005Y198999D01*
Y191001D01*
X231004Y189002D01*
X235003D01*
X237002Y191001D01*
X241001Y189002D02*
X245000D01*
X243000D01*
Y200998D01*
X241001Y198999D01*
X258995Y189002D02*
X250998D01*
X258995Y196999D01*
Y198999D01*
X256996Y200998D01*
X252997D01*
X250998Y198999D01*
D12*
X302690Y-3260D02*
X300690Y-1260D01*
X302688Y-3918D02*
X303000Y-6006D01*
X304697Y-7262D01*
X352676Y-7260D02*
X354690Y-5174D01*
X357922Y-1156D02*
X355885Y-1497D01*
X354686Y-3178D01*
X212176Y296176D02*
X220176D01*
X212176Y267176D02*
X220176D01*
Y274176D01*
Y289176D02*
Y296176D01*
X345690Y48740D02*
X350690D01*
X291190Y29240D02*
Y35240D01*
X306690Y48740D02*
X311690D01*
X366190Y29240D02*
Y35240D01*
X291190Y-1260D02*
Y10240D01*
Y-1260D02*
X300690D01*
X302690Y-3910D02*
Y-3260D01*
X304690Y-7260D02*
X352690D01*
X354690Y-5160D02*
Y-3160D01*
X357940Y-1160D02*
X366190D01*
Y10240D01*
X288690Y-4260D02*
X291190Y-1760D01*
X288690Y-4260D02*
X291190Y-6760D01*
X294940Y-3010D01*
Y-1760D01*
X366190D02*
X368690Y-4260D01*
X366190Y-6760D02*
X368690Y-4260D01*
X362440Y-3010D02*
X366190Y-6760D01*
X362440Y-3010D02*
Y-1760D01*
X603000Y327000D02*
Y403000D01*
X503000Y327000D02*
Y403000D01*
X603000D01*
X503000Y327000D02*
X603000D01*
X87500Y267500D02*
Y274500D01*
Y289500D02*
Y296500D01*
X95500D01*
X87500Y267500D02*
X95500D01*
D13*
X478000Y158000D02*
X476618Y159902D01*
X474382Y159176D01*
Y156825D01*
X476618Y156098D01*
X478000Y158000D01*
D14*
X219650Y46540D02*
Y50350D01*
X232350D01*
Y46540D02*
Y50350D01*
X219650Y23680D02*
Y27490D01*
Y23680D02*
X232350D01*
Y27490D01*
X253650Y46540D02*
Y50350D01*
X266350D01*
Y46540D02*
Y50350D01*
X253650Y23680D02*
Y27490D01*
Y23680D02*
X266350D01*
Y27490D01*
X562350Y24665D02*
Y28475D01*
X549650Y24665D02*
X562350D01*
X549650D02*
Y28475D01*
X562350Y47525D02*
Y51335D01*
X549650D02*
X562350D01*
X549650Y47525D02*
Y51335D01*
D15*
X223000Y36030D02*
X229000D01*
X226000Y38030D02*
X229000Y36030D01*
X223000D02*
X226000Y38030D01*
X257000Y36030D02*
X263000D01*
X260000Y38030D02*
X263000Y36030D01*
X257000D02*
X260000Y38030D01*
X553000Y37015D02*
X556000Y39015D01*
X559000Y37015D01*
X553000D02*
X559000D01*
M02*
