G04*
G04 #@! TF.GenerationSoftware,Altium Limited,Altium Designer,20.1.12 (249)*
G04*
G04 Layer_Color=128*
%FSLAX44Y44*%
%MOMM*%
G71*
G04*
G04 #@! TF.SameCoordinates,2C1882C9-CBDB-4859-8E7C-5A4850A28F2A*
G04*
G04*
G04 #@! TF.FilePolarity,Positive*
G04*
G01*
G75*
%ADD19R,1.3700X1.9100*%
%ADD20R,1.9100X1.3700*%
%ADD21R,1.7700X1.2300*%
%ADD67R,2.0000X1.2000*%
%ADD68R,3.2500X2.1500*%
%ADD69R,0.9500X2.1500*%
D19*
X405210Y35000D02*
D03*
X376790D02*
D03*
X405210Y68000D02*
D03*
X376790D02*
D03*
X294000Y189000D02*
D03*
X322420D02*
D03*
D20*
X543000Y164790D02*
D03*
Y193210D02*
D03*
X513000Y164790D02*
D03*
Y193210D02*
D03*
X50000Y108210D02*
D03*
Y79790D02*
D03*
X98000Y108210D02*
D03*
Y79790D02*
D03*
D21*
X242000Y80340D02*
D03*
Y109660D02*
D03*
X147000Y109660D02*
D03*
Y80340D02*
D03*
X192000Y109660D02*
D03*
Y80340D02*
D03*
D67*
X107650Y328930D02*
D03*
Y308930D02*
D03*
Y288930D02*
D03*
Y268930D02*
D03*
Y248930D02*
D03*
Y228930D02*
D03*
Y208930D02*
D03*
Y188930D02*
D03*
X257650D02*
D03*
Y208930D02*
D03*
Y228930D02*
D03*
Y248930D02*
D03*
Y268930D02*
D03*
Y288930D02*
D03*
Y308930D02*
D03*
Y328930D02*
D03*
D68*
X405000Y102000D02*
D03*
D69*
X428000Y160000D02*
D03*
X405000D02*
D03*
X382000D02*
D03*
M02*
