G04*
G04 #@! TF.GenerationSoftware,Altium Limited,Altium Designer,20.1.12 (249)*
G04*
G04 Layer_Color=2752767*
%FSLAX44Y44*%
%MOMM*%
G71*
G04*
G04 #@! TF.SameCoordinates,2C1882C9-CBDB-4859-8E7C-5A4850A28F2A*
G04*
G04*
G04 #@! TF.FilePolarity,Positive*
G04*
G01*
G75*
%ADD15C,0.2540*%
%ADD75C,0.3810*%
%ADD77C,0.0508*%
%ADD78C,0.4064*%
%ADD79C,0.3556*%
D15*
X744000Y-141933D02*
X743624Y-139438D01*
X742529Y-137164D01*
X740812Y-135314D01*
X738627Y-134052D01*
X736166Y-133490D01*
X733649Y-133679D01*
X731300Y-134601D01*
X729327Y-136175D01*
X727905Y-138260D01*
X727161Y-140671D01*
Y-143195D01*
X727905Y-145607D01*
X729327Y-147692D01*
X731300Y-149266D01*
X733649Y-150188D01*
X736166Y-150376D01*
X738627Y-149815D01*
X740812Y-148553D01*
X742529Y-146703D01*
X743624Y-144429D01*
X744000Y-141933D01*
X727067Y2000D02*
X735533Y6233D01*
X744000Y2000D01*
X739767Y10467D02*
X744000Y2000D01*
X739767Y10467D02*
X744000Y18933D01*
X735533Y14700D02*
X744000Y18933D01*
X727067D02*
X735533Y14700D01*
X727067Y18933D02*
X731300Y10467D01*
X727067Y2000D02*
X731300Y10467D01*
Y-31867D02*
X735533Y-36100D01*
X727067Y-31867D02*
X731300D01*
X727067D02*
X731300Y-27633D01*
X727067Y-23400D02*
X731300Y-27633D01*
X727067Y-23400D02*
X731300D01*
X735533Y-19167D01*
X739767Y-23400D01*
X744000D01*
X739767Y-27633D02*
X744000Y-23400D01*
X739767Y-27633D02*
X744000Y-31867D01*
X739767D02*
X744000D01*
X735533Y-36100D02*
X739767Y-31867D01*
X727067Y-69967D02*
X731300D01*
X727067D02*
Y-61500D01*
X731300D01*
Y-57267D01*
X739767D01*
Y-61500D02*
Y-57267D01*
Y-61500D02*
X744000D01*
Y-69967D02*
Y-61500D01*
X739767Y-69967D02*
X744000D01*
X739767Y-74200D02*
Y-69967D01*
X731300Y-74200D02*
X739767D01*
X731300D02*
Y-69967D01*
X735533Y-112300D02*
X744000Y-95367D01*
X727067D02*
X744000D01*
X727067D02*
X735533Y-112300D01*
X727067Y-188500D02*
X744000D01*
Y-171567D01*
X727067D02*
X744000D01*
X727067Y-188500D02*
Y-171567D01*
X1418324Y17235D02*
Y7078D01*
X1423403Y2000D01*
X1428481Y7078D01*
Y17235D01*
X1433560Y2000D02*
X1438638D01*
X1436099D01*
Y12157D01*
X1433560D01*
X1448795D02*
X1453873D01*
X1456412Y9617D01*
Y2000D01*
X1448795D01*
X1446255Y4539D01*
X1448795Y7078D01*
X1456412D01*
X1418324Y-36100D02*
Y-20865D01*
X1425942D01*
X1428481Y-23404D01*
Y-28482D01*
X1425942Y-31022D01*
X1418324D01*
X1436099Y-25943D02*
X1441177D01*
X1443716Y-28482D01*
Y-36100D01*
X1436099D01*
X1433560Y-33561D01*
X1436099Y-31022D01*
X1443716D01*
X1458951Y-20865D02*
Y-36100D01*
X1451334D01*
X1448795Y-33561D01*
Y-28482D01*
X1451334Y-25943D01*
X1458951D01*
X1418324Y-74200D02*
Y-58965D01*
X1425942D01*
X1428481Y-61504D01*
Y-66582D01*
X1425942Y-69122D01*
X1418324D01*
X1436099Y-64043D02*
X1441177D01*
X1443716Y-66582D01*
Y-74200D01*
X1436099D01*
X1433560Y-71661D01*
X1436099Y-69122D01*
X1443716D01*
X1458951Y-58965D02*
Y-74200D01*
X1451334D01*
X1448795Y-71661D01*
Y-66582D01*
X1451334Y-64043D01*
X1458951D01*
X1418324Y-112300D02*
Y-97065D01*
X1425942D01*
X1428481Y-99604D01*
Y-104683D01*
X1425942Y-107222D01*
X1418324D01*
X1436099Y-102143D02*
X1441177D01*
X1443716Y-104683D01*
Y-112300D01*
X1436099D01*
X1433560Y-109761D01*
X1436099Y-107222D01*
X1443716D01*
X1458951Y-97065D02*
Y-112300D01*
X1451334D01*
X1448795Y-109761D01*
Y-104683D01*
X1451334Y-102143D01*
X1458951D01*
X1418324Y-150400D02*
Y-135165D01*
X1425942D01*
X1428481Y-137704D01*
Y-142782D01*
X1425942Y-145322D01*
X1418324D01*
X1436099Y-140243D02*
X1441177D01*
X1443716Y-142782D01*
Y-150400D01*
X1436099D01*
X1433560Y-147861D01*
X1436099Y-145322D01*
X1443716D01*
X1458951Y-135165D02*
Y-150400D01*
X1451334D01*
X1448795Y-147861D01*
Y-142782D01*
X1451334Y-140243D01*
X1458951D01*
X1418324Y-188500D02*
Y-173265D01*
X1425942D01*
X1428481Y-175804D01*
Y-180882D01*
X1425942Y-183422D01*
X1418324D01*
X1436099Y-178343D02*
X1441177D01*
X1443716Y-180882D01*
Y-188500D01*
X1436099D01*
X1433560Y-185961D01*
X1436099Y-183422D01*
X1443716D01*
X1458951Y-173265D02*
Y-188500D01*
X1451334D01*
X1448795Y-185961D01*
Y-180882D01*
X1451334Y-178343D01*
X1458951D01*
X1289832Y2000D02*
Y17235D01*
X1297450D01*
X1299989Y14696D01*
Y9617D01*
X1297450Y7078D01*
X1289832D01*
X1305067Y17235D02*
X1315224D01*
X1310146D01*
Y2000D01*
X1320302Y17235D02*
Y2000D01*
Y9617D01*
X1330459D01*
Y17235D01*
Y2000D01*
X1289832Y-36100D02*
Y-20865D01*
X1297450D01*
X1299989Y-23404D01*
Y-28482D01*
X1297450Y-31022D01*
X1289832D01*
X1305067Y-20865D02*
X1315224D01*
X1310146D01*
Y-36100D01*
X1320302Y-20865D02*
Y-36100D01*
Y-28482D01*
X1330459D01*
Y-20865D01*
Y-36100D01*
X1289832Y-74200D02*
Y-58965D01*
X1297450D01*
X1299989Y-61504D01*
Y-66582D01*
X1297450Y-69122D01*
X1289832D01*
X1305067Y-58965D02*
X1315224D01*
X1310146D01*
Y-74200D01*
X1320302Y-58965D02*
Y-74200D01*
Y-66582D01*
X1330459D01*
Y-58965D01*
Y-74200D01*
X1289832Y-112300D02*
Y-97065D01*
X1297450D01*
X1299989Y-99604D01*
Y-104683D01*
X1297450Y-107222D01*
X1289832D01*
X1305067Y-97065D02*
X1315224D01*
X1310146D01*
Y-112300D01*
X1320302Y-97065D02*
Y-112300D01*
Y-104683D01*
X1330459D01*
Y-97065D01*
Y-112300D01*
X1289832Y-150400D02*
Y-135165D01*
X1297450D01*
X1299989Y-137704D01*
Y-142782D01*
X1297450Y-145322D01*
X1289832D01*
X1305067Y-135165D02*
X1315224D01*
X1310146D01*
Y-150400D01*
X1320302Y-135165D02*
Y-150400D01*
Y-142782D01*
X1330459D01*
Y-135165D01*
Y-150400D01*
X1289832Y-188500D02*
Y-173265D01*
X1297450D01*
X1299989Y-175804D01*
Y-180882D01*
X1297450Y-183422D01*
X1289832D01*
X1305067Y-173265D02*
X1315224D01*
X1310146D01*
Y-188500D01*
X1320302Y-173265D02*
Y-188500D01*
Y-180882D01*
X1330459D01*
Y-173265D01*
Y-188500D01*
X1013053Y2000D02*
X1018131D01*
X1015592D01*
Y17235D01*
X1013053Y14696D01*
X1025749Y2000D02*
X1030827D01*
X1028288D01*
Y17235D01*
X1025749Y14696D01*
X1038444Y2000D02*
Y4539D01*
X1040984D01*
Y2000D01*
X1038444D01*
X1051140Y14696D02*
X1053679Y17235D01*
X1058758D01*
X1061297Y14696D01*
Y12157D01*
X1058758Y9617D01*
X1061297Y7078D01*
Y4539D01*
X1058758Y2000D01*
X1053679D01*
X1051140Y4539D01*
Y7078D01*
X1053679Y9617D01*
X1051140Y12157D01*
Y14696D01*
X1053679Y9617D02*
X1058758D01*
X1066375Y2000D02*
X1071454D01*
X1068914D01*
Y17235D01*
X1066375Y14696D01*
X1079071Y2000D02*
Y12157D01*
X1081610D01*
X1084149Y9617D01*
Y2000D01*
Y9617D01*
X1086689Y12157D01*
X1089228Y9617D01*
Y2000D01*
X1094306D02*
X1099385D01*
X1096845D01*
Y12157D01*
X1094306D01*
X1107002Y2000D02*
X1112081D01*
X1109541D01*
Y17235D01*
X1107002D01*
X1140012Y2000D02*
X1134933Y7078D01*
Y12157D01*
X1140012Y17235D01*
X1147629Y14696D02*
X1150168Y17235D01*
X1155247D01*
X1157786Y14696D01*
Y4539D01*
X1155247Y2000D01*
X1150168D01*
X1147629Y4539D01*
Y14696D01*
X1162864Y2000D02*
Y4539D01*
X1165403D01*
Y2000D01*
X1162864D01*
X1175560Y14696D02*
X1178099Y17235D01*
X1183177D01*
X1185717Y14696D01*
Y12157D01*
X1183177Y9617D01*
X1180638D01*
X1183177D01*
X1185717Y7078D01*
Y4539D01*
X1183177Y2000D01*
X1178099D01*
X1175560Y4539D01*
X1190795Y14696D02*
X1193334Y17235D01*
X1198413D01*
X1200952Y14696D01*
Y4539D01*
X1198413Y2000D01*
X1193334D01*
X1190795Y4539D01*
Y14696D01*
X1206030D02*
X1208569Y17235D01*
X1213648D01*
X1216187Y14696D01*
Y4539D01*
X1213648Y2000D01*
X1208569D01*
X1206030Y4539D01*
Y14696D01*
X1221265Y2000D02*
Y12157D01*
X1223804D01*
X1226344Y9617D01*
Y2000D01*
Y9617D01*
X1228883Y12157D01*
X1231422Y9617D01*
Y2000D01*
X1236500D02*
Y12157D01*
X1239039D01*
X1241579Y9617D01*
Y2000D01*
Y9617D01*
X1244118Y12157D01*
X1246657Y9617D01*
Y2000D01*
X1251735D02*
X1256814Y7078D01*
Y12157D01*
X1251735Y17235D01*
X1013053Y-23404D02*
X1015592Y-20865D01*
X1020670D01*
X1023209Y-23404D01*
Y-25943D01*
X1020670Y-28482D01*
X1018131D01*
X1020670D01*
X1023209Y-31022D01*
Y-33561D01*
X1020670Y-36100D01*
X1015592D01*
X1013053Y-33561D01*
X1028288D02*
X1030827Y-36100D01*
X1035905D01*
X1038444Y-33561D01*
Y-23404D01*
X1035905Y-20865D01*
X1030827D01*
X1028288Y-23404D01*
Y-25943D01*
X1030827Y-28482D01*
X1038444D01*
X1043523Y-36100D02*
Y-33561D01*
X1046062D01*
Y-36100D01*
X1043523D01*
X1056219Y-23404D02*
X1058758Y-20865D01*
X1063836D01*
X1066375Y-23404D01*
Y-25943D01*
X1063836Y-28482D01*
X1061297D01*
X1063836D01*
X1066375Y-31022D01*
Y-33561D01*
X1063836Y-36100D01*
X1058758D01*
X1056219Y-33561D01*
X1071454Y-20865D02*
X1081610D01*
Y-23404D01*
X1071454Y-33561D01*
Y-36100D01*
X1086689D02*
Y-25943D01*
X1089228D01*
X1091767Y-28482D01*
Y-36100D01*
Y-28482D01*
X1094306Y-25943D01*
X1096845Y-28482D01*
Y-36100D01*
X1101924D02*
X1107002D01*
X1104463D01*
Y-25943D01*
X1101924D01*
X1114620Y-36100D02*
X1119698D01*
X1117159D01*
Y-20865D01*
X1114620D01*
X1147629Y-36100D02*
X1142551Y-31022D01*
Y-25943D01*
X1147629Y-20865D01*
X1155247Y-36100D02*
X1160325D01*
X1157786D01*
Y-20865D01*
X1155247Y-23404D01*
X1167942Y-36100D02*
Y-33561D01*
X1170482D01*
Y-36100D01*
X1167942D01*
X1180638Y-23404D02*
X1183177Y-20865D01*
X1188256D01*
X1190795Y-23404D01*
Y-33561D01*
X1188256Y-36100D01*
X1183177D01*
X1180638Y-33561D01*
Y-23404D01*
X1195873D02*
X1198413Y-20865D01*
X1203491D01*
X1206030Y-23404D01*
Y-33561D01*
X1203491Y-36100D01*
X1198413D01*
X1195873Y-33561D01*
Y-23404D01*
X1211108D02*
X1213648Y-20865D01*
X1218726D01*
X1221265Y-23404D01*
Y-33561D01*
X1218726Y-36100D01*
X1213648D01*
X1211108Y-33561D01*
Y-23404D01*
X1226344Y-36100D02*
Y-25943D01*
X1228883D01*
X1231422Y-28482D01*
Y-36100D01*
Y-28482D01*
X1233961Y-25943D01*
X1236500Y-28482D01*
Y-36100D01*
X1241579D02*
Y-25943D01*
X1244118D01*
X1246657Y-28482D01*
Y-36100D01*
Y-28482D01*
X1249196Y-25943D01*
X1251735Y-28482D01*
Y-36100D01*
X1256814D02*
X1261892Y-31022D01*
Y-25943D01*
X1256814Y-20865D01*
X1013053Y-61504D02*
X1015592Y-58965D01*
X1020670D01*
X1023209Y-61504D01*
Y-64043D01*
X1020670Y-66582D01*
X1018131D01*
X1020670D01*
X1023209Y-69122D01*
Y-71661D01*
X1020670Y-74200D01*
X1015592D01*
X1013053Y-71661D01*
X1028288D02*
X1030827Y-74200D01*
X1035905D01*
X1038444Y-71661D01*
Y-61504D01*
X1035905Y-58965D01*
X1030827D01*
X1028288Y-61504D01*
Y-64043D01*
X1030827Y-66582D01*
X1038444D01*
X1043523Y-74200D02*
Y-71661D01*
X1046062D01*
Y-74200D01*
X1043523D01*
X1056219Y-61504D02*
X1058758Y-58965D01*
X1063836D01*
X1066375Y-61504D01*
Y-64043D01*
X1063836Y-66582D01*
X1061297D01*
X1063836D01*
X1066375Y-69122D01*
Y-71661D01*
X1063836Y-74200D01*
X1058758D01*
X1056219Y-71661D01*
X1071454Y-58965D02*
X1081610D01*
Y-61504D01*
X1071454Y-71661D01*
Y-74200D01*
X1086689D02*
Y-64043D01*
X1089228D01*
X1091767Y-66582D01*
Y-74200D01*
Y-66582D01*
X1094306Y-64043D01*
X1096845Y-66582D01*
Y-74200D01*
X1101924D02*
X1107002D01*
X1104463D01*
Y-64043D01*
X1101924D01*
X1114620Y-74200D02*
X1119698D01*
X1117159D01*
Y-58965D01*
X1114620D01*
X1147629Y-74200D02*
X1142551Y-69122D01*
Y-64043D01*
X1147629Y-58965D01*
X1155247Y-74200D02*
X1160325D01*
X1157786D01*
Y-58965D01*
X1155247Y-61504D01*
X1167942Y-74200D02*
Y-71661D01*
X1170482D01*
Y-74200D01*
X1167942D01*
X1180638Y-61504D02*
X1183177Y-58965D01*
X1188256D01*
X1190795Y-61504D01*
Y-71661D01*
X1188256Y-74200D01*
X1183177D01*
X1180638Y-71661D01*
Y-61504D01*
X1195873D02*
X1198413Y-58965D01*
X1203491D01*
X1206030Y-61504D01*
Y-71661D01*
X1203491Y-74200D01*
X1198413D01*
X1195873Y-71661D01*
Y-61504D01*
X1211108D02*
X1213648Y-58965D01*
X1218726D01*
X1221265Y-61504D01*
Y-71661D01*
X1218726Y-74200D01*
X1213648D01*
X1211108Y-71661D01*
Y-61504D01*
X1226344Y-74200D02*
Y-64043D01*
X1228883D01*
X1231422Y-66582D01*
Y-74200D01*
Y-66582D01*
X1233961Y-64043D01*
X1236500Y-66582D01*
Y-74200D01*
X1241579D02*
Y-64043D01*
X1244118D01*
X1246657Y-66582D01*
Y-74200D01*
Y-66582D01*
X1249196Y-64043D01*
X1251735Y-66582D01*
Y-74200D01*
X1256814D02*
X1261892Y-69122D01*
Y-64043D01*
X1256814Y-58965D01*
X1020670Y-112300D02*
Y-97065D01*
X1013053Y-104683D01*
X1023209D01*
X1028288Y-99604D02*
X1030827Y-97065D01*
X1035905D01*
X1038444Y-99604D01*
Y-109761D01*
X1035905Y-112300D01*
X1030827D01*
X1028288Y-109761D01*
Y-99604D01*
X1043523Y-112300D02*
Y-109761D01*
X1046062D01*
Y-112300D01*
X1043523D01*
X1056219D02*
X1061297D01*
X1058758D01*
Y-97065D01*
X1056219Y-99604D01*
X1079071Y-97065D02*
X1073993Y-99604D01*
X1068914Y-104683D01*
Y-109761D01*
X1071454Y-112300D01*
X1076532D01*
X1079071Y-109761D01*
Y-107222D01*
X1076532Y-104683D01*
X1068914D01*
X1084150Y-112300D02*
Y-102143D01*
X1086689D01*
X1089228Y-104683D01*
Y-112300D01*
Y-104683D01*
X1091767Y-102143D01*
X1094306Y-104683D01*
Y-112300D01*
X1099385D02*
X1104463D01*
X1101924D01*
Y-102143D01*
X1099385D01*
X1112081Y-112300D02*
X1117159D01*
X1114620D01*
Y-97065D01*
X1112081D01*
X1145090Y-112300D02*
X1140012Y-107222D01*
Y-102143D01*
X1145090Y-97065D01*
X1152707Y-112300D02*
X1157786D01*
X1155247D01*
Y-97065D01*
X1152707Y-99604D01*
X1165403Y-112300D02*
Y-109761D01*
X1167942D01*
Y-112300D01*
X1165403D01*
X1178099Y-99604D02*
X1180638Y-97065D01*
X1185717D01*
X1188256Y-99604D01*
Y-109761D01*
X1185717Y-112300D01*
X1180638D01*
X1178099Y-109761D01*
Y-99604D01*
X1203491Y-112300D02*
X1193334D01*
X1203491Y-102143D01*
Y-99604D01*
X1200952Y-97065D01*
X1195873D01*
X1193334Y-99604D01*
X1208569D02*
X1211108Y-97065D01*
X1216187D01*
X1218726Y-99604D01*
Y-109761D01*
X1216187Y-112300D01*
X1211108D01*
X1208569Y-109761D01*
Y-99604D01*
X1223804Y-112300D02*
Y-102143D01*
X1226344D01*
X1228883Y-104683D01*
Y-112300D01*
Y-104683D01*
X1231422Y-102143D01*
X1233961Y-104683D01*
Y-112300D01*
X1239039D02*
Y-102143D01*
X1241579D01*
X1244118Y-104683D01*
Y-112300D01*
Y-104683D01*
X1246657Y-102143D01*
X1249196Y-104683D01*
Y-112300D01*
X1254275D02*
X1259353Y-107222D01*
Y-102143D01*
X1254275Y-97065D01*
X1020670Y-150400D02*
Y-135165D01*
X1013053Y-142782D01*
X1023209D01*
X1028288Y-135165D02*
X1038444D01*
Y-137704D01*
X1028288Y-147861D01*
Y-150400D01*
X1043523D02*
Y-147861D01*
X1046062D01*
Y-150400D01*
X1043523D01*
X1066375D02*
X1056219D01*
X1066375Y-140243D01*
Y-137704D01*
X1063836Y-135165D01*
X1058758D01*
X1056219Y-137704D01*
X1079071Y-150400D02*
Y-135165D01*
X1071454Y-142782D01*
X1081610D01*
X1086689Y-150400D02*
Y-140243D01*
X1089228D01*
X1091767Y-142782D01*
Y-150400D01*
Y-142782D01*
X1094306Y-140243D01*
X1096845Y-142782D01*
Y-150400D01*
X1101924D02*
X1107002D01*
X1104463D01*
Y-140243D01*
X1101924D01*
X1114620Y-150400D02*
X1119698D01*
X1117159D01*
Y-135165D01*
X1114620D01*
X1147629Y-150400D02*
X1142551Y-145322D01*
Y-140243D01*
X1147629Y-135165D01*
X1155247Y-150400D02*
X1160325D01*
X1157786D01*
Y-135165D01*
X1155247Y-137704D01*
X1167942Y-150400D02*
Y-147861D01*
X1170482D01*
Y-150400D01*
X1167942D01*
X1190795D02*
X1180638D01*
X1190795Y-140243D01*
Y-137704D01*
X1188256Y-135165D01*
X1183177D01*
X1180638Y-137704D01*
X1195873D02*
X1198413Y-135165D01*
X1203491D01*
X1206030Y-137704D01*
Y-147861D01*
X1203491Y-150400D01*
X1198413D01*
X1195873Y-147861D01*
Y-137704D01*
X1211108D02*
X1213648Y-135165D01*
X1218726D01*
X1221265Y-137704D01*
Y-147861D01*
X1218726Y-150400D01*
X1213648D01*
X1211108Y-147861D01*
Y-137704D01*
X1226344Y-150400D02*
Y-140243D01*
X1228883D01*
X1231422Y-142782D01*
Y-150400D01*
Y-142782D01*
X1233961Y-140243D01*
X1236500Y-142782D01*
Y-150400D01*
X1241579D02*
Y-140243D01*
X1244118D01*
X1246657Y-142782D01*
Y-150400D01*
Y-142782D01*
X1249196Y-140243D01*
X1251735Y-142782D01*
Y-150400D01*
X1256814D02*
X1261892Y-145322D01*
Y-140243D01*
X1256814Y-135165D01*
X1023209Y-173265D02*
X1013053D01*
Y-180882D01*
X1018131Y-178343D01*
X1020670D01*
X1023209Y-180882D01*
Y-185961D01*
X1020670Y-188500D01*
X1015592D01*
X1013053Y-185961D01*
X1028288Y-188500D02*
X1033366D01*
X1030827D01*
Y-173265D01*
X1028288Y-175804D01*
X1040984Y-188500D02*
Y-185961D01*
X1043523D01*
Y-188500D01*
X1040984D01*
X1053679D02*
X1058758D01*
X1056219D01*
Y-173265D01*
X1053679Y-175804D01*
X1066375D02*
X1068914Y-173265D01*
X1073993D01*
X1076532Y-175804D01*
Y-178343D01*
X1073993Y-180882D01*
X1076532Y-183422D01*
Y-185961D01*
X1073993Y-188500D01*
X1068914D01*
X1066375Y-185961D01*
Y-183422D01*
X1068914Y-180882D01*
X1066375Y-178343D01*
Y-175804D01*
X1068914Y-180882D02*
X1073993D01*
X1081610Y-188500D02*
Y-178343D01*
X1084150D01*
X1086689Y-180882D01*
Y-188500D01*
Y-180882D01*
X1089228Y-178343D01*
X1091767Y-180882D01*
Y-188500D01*
X1096845D02*
X1101924D01*
X1099385D01*
Y-178343D01*
X1096845D01*
X1109541Y-188500D02*
X1114620D01*
X1112081D01*
Y-173265D01*
X1109541D01*
X1142551Y-188500D02*
X1137472Y-183422D01*
Y-178343D01*
X1142551Y-173265D01*
X1150168Y-188500D02*
X1155247D01*
X1152707D01*
Y-173265D01*
X1150168Y-175804D01*
X1162864Y-188500D02*
Y-185961D01*
X1165403D01*
Y-188500D01*
X1162864D01*
X1175560Y-175804D02*
X1178099Y-173265D01*
X1183177D01*
X1185717Y-175804D01*
Y-178343D01*
X1183177Y-180882D01*
X1180638D01*
X1183177D01*
X1185717Y-183422D01*
Y-185961D01*
X1183177Y-188500D01*
X1178099D01*
X1175560Y-185961D01*
X1190795Y-175804D02*
X1193334Y-173265D01*
X1198413D01*
X1200952Y-175804D01*
Y-185961D01*
X1198413Y-188500D01*
X1193334D01*
X1190795Y-185961D01*
Y-175804D01*
X1206030D02*
X1208569Y-173265D01*
X1213648D01*
X1216187Y-175804D01*
Y-185961D01*
X1213648Y-188500D01*
X1208569D01*
X1206030Y-185961D01*
Y-175804D01*
X1221265Y-188500D02*
Y-178343D01*
X1223804D01*
X1226344Y-180882D01*
Y-188500D01*
Y-180882D01*
X1228883Y-178343D01*
X1231422Y-180882D01*
Y-188500D01*
X1236500D02*
Y-178343D01*
X1239039D01*
X1241579Y-180882D01*
Y-188500D01*
Y-180882D01*
X1244118Y-178343D01*
X1246657Y-180882D01*
Y-188500D01*
X1251735D02*
X1256814Y-183422D01*
Y-178343D01*
X1251735Y-173265D01*
X863232Y-226600D02*
X868310D01*
X865771D01*
Y-211365D01*
X863232Y-213904D01*
X886085Y-226600D02*
X875928D01*
X886085Y-216443D01*
Y-213904D01*
X883546Y-211365D01*
X878467D01*
X875928Y-213904D01*
X891163Y-211365D02*
X901320D01*
Y-213904D01*
X891163Y-224061D01*
Y-226600D01*
X921633Y-211365D02*
X931790D01*
X926712D01*
Y-226600D01*
X939407D02*
X944486D01*
X947025Y-224061D01*
Y-218983D01*
X944486Y-216443D01*
X939407D01*
X936868Y-218983D01*
Y-224061D01*
X939407Y-226600D01*
X954642Y-213904D02*
Y-216443D01*
X952103D01*
X957182D01*
X954642D01*
Y-224061D01*
X957182Y-226600D01*
X967338Y-216443D02*
X972417D01*
X974956Y-218983D01*
Y-226600D01*
X967338D01*
X964799Y-224061D01*
X967338Y-221522D01*
X974956D01*
X980034Y-226600D02*
X985113D01*
X982573D01*
Y-211365D01*
X980034D01*
X863232Y17235D02*
X873389D01*
Y14696D01*
X863232Y4539D01*
Y2000D01*
X878467Y14696D02*
X881006Y17235D01*
X886085D01*
X888624Y14696D01*
Y12157D01*
X886085Y9617D01*
X888624Y7078D01*
Y4539D01*
X886085Y2000D01*
X881006D01*
X878467Y4539D01*
Y7078D01*
X881006Y9617D01*
X878467Y12157D01*
Y14696D01*
X881006Y9617D02*
X886085D01*
X873389Y-36100D02*
X863232D01*
X873389Y-25943D01*
Y-23404D01*
X870850Y-20865D01*
X865771D01*
X863232Y-23404D01*
Y-74200D02*
X868310D01*
X865771D01*
Y-58965D01*
X863232Y-61504D01*
X873389Y-112300D02*
X863232D01*
X873389Y-102143D01*
Y-99604D01*
X870850Y-97065D01*
X865771D01*
X863232Y-99604D01*
X878467D02*
X881006Y-97065D01*
X886085D01*
X888624Y-99604D01*
Y-102143D01*
X886085Y-104683D01*
X888624Y-107222D01*
Y-109761D01*
X886085Y-112300D01*
X881006D01*
X878467Y-109761D01*
Y-107222D01*
X881006Y-104683D01*
X878467Y-102143D01*
Y-99604D01*
X881006Y-104683D02*
X886085D01*
X863232Y-150400D02*
X868310D01*
X865771D01*
Y-135165D01*
X863232Y-137704D01*
X886085Y-135165D02*
X881006Y-137704D01*
X875928Y-142782D01*
Y-147861D01*
X878467Y-150400D01*
X883546D01*
X886085Y-147861D01*
Y-145322D01*
X883546Y-142782D01*
X875928D01*
X873389Y-188500D02*
X863232D01*
X873389Y-178343D01*
Y-175804D01*
X870850Y-173265D01*
X865771D01*
X863232Y-175804D01*
X1188249Y-283738D02*
X1198406D01*
X1188249Y-278660D02*
X1198406D01*
X1218719Y-288817D02*
Y-273582D01*
X1226337D01*
X1228876Y-276121D01*
Y-281199D01*
X1226337Y-283738D01*
X1218719D01*
X1223797D02*
X1228876Y-288817D01*
X1236493D02*
X1241572D01*
X1244111Y-286278D01*
Y-281199D01*
X1241572Y-278660D01*
X1236493D01*
X1233954Y-281199D01*
Y-286278D01*
X1236493Y-288817D01*
X1249189Y-278660D02*
Y-286278D01*
X1251728Y-288817D01*
X1259346D01*
Y-278660D01*
X1266963Y-276121D02*
Y-278660D01*
X1264424D01*
X1269503D01*
X1266963D01*
Y-286278D01*
X1269503Y-288817D01*
X1284738D02*
X1279659D01*
X1277120Y-286278D01*
Y-281199D01*
X1279659Y-278660D01*
X1284738D01*
X1287277Y-281199D01*
Y-283738D01*
X1277120D01*
X1302512Y-273582D02*
Y-288817D01*
X1294894D01*
X1292355Y-286278D01*
Y-281199D01*
X1294894Y-278660D01*
X1302512D01*
X1322825Y-288817D02*
Y-273582D01*
X1330443D01*
X1332982Y-276121D01*
Y-281199D01*
X1330443Y-283738D01*
X1322825D01*
X1340600Y-278660D02*
X1345678D01*
X1348217Y-281199D01*
Y-288817D01*
X1340600D01*
X1338060Y-286278D01*
X1340600Y-283738D01*
X1348217D01*
X1355835Y-276121D02*
Y-278660D01*
X1353295D01*
X1358374D01*
X1355835D01*
Y-286278D01*
X1358374Y-288817D01*
X1365991Y-273582D02*
Y-288817D01*
Y-281199D01*
X1368530Y-278660D01*
X1373609D01*
X1376148Y-281199D01*
Y-288817D01*
X1396461Y-273582D02*
Y-288817D01*
X1406618D01*
X1419314D02*
X1414236D01*
X1411697Y-286278D01*
Y-281199D01*
X1414236Y-278660D01*
X1419314D01*
X1421853Y-281199D01*
Y-283738D01*
X1411697D01*
X1426932Y-288817D02*
Y-278660D01*
X1434549D01*
X1437088Y-281199D01*
Y-288817D01*
X1447245Y-293895D02*
X1449784D01*
X1452323Y-291356D01*
Y-278660D01*
X1444706D01*
X1442167Y-281199D01*
Y-286278D01*
X1444706Y-288817D01*
X1452323D01*
X1459941Y-276121D02*
Y-278660D01*
X1457402D01*
X1462480D01*
X1459941D01*
Y-286278D01*
X1462480Y-288817D01*
X1470098Y-273582D02*
Y-288817D01*
Y-281199D01*
X1472637Y-278660D01*
X1477715D01*
X1480254Y-281199D01*
Y-288817D01*
X1500568Y-281199D02*
X1510724D01*
X1505646Y-276121D02*
Y-286278D01*
X1531038Y-273582D02*
X1541195D01*
X1536116D01*
Y-288817D01*
X1548812D02*
X1553891D01*
X1556430Y-286278D01*
Y-281199D01*
X1553891Y-278660D01*
X1548812D01*
X1546273Y-281199D01*
Y-286278D01*
X1548812Y-288817D01*
X1564047D02*
X1569126D01*
X1571665Y-286278D01*
Y-281199D01*
X1569126Y-278660D01*
X1564047D01*
X1561508Y-281199D01*
Y-286278D01*
X1564047Y-288817D01*
X1576743D02*
X1581821D01*
X1579282D01*
Y-273582D01*
X1576743D01*
X1614831Y-276121D02*
X1612292Y-273582D01*
X1607213D01*
X1604674Y-276121D01*
Y-278660D01*
X1607213Y-281199D01*
X1612292D01*
X1614831Y-283738D01*
Y-286278D01*
X1612292Y-288817D01*
X1607213D01*
X1604674Y-286278D01*
X1619909Y-288817D02*
X1624988D01*
X1622448D01*
Y-278660D01*
X1619909D01*
X1632605D02*
X1642762D01*
X1632605Y-288817D01*
X1642762D01*
X1655458D02*
X1650379D01*
X1647840Y-286278D01*
Y-281199D01*
X1650379Y-278660D01*
X1655458D01*
X1657997Y-281199D01*
Y-283738D01*
X1647840D01*
X1678310D02*
X1688467D01*
X1678310Y-278660D02*
X1688467D01*
X1718937Y-276121D02*
X1716398Y-273582D01*
X1711320D01*
X1708781Y-276121D01*
Y-278660D01*
X1711320Y-281199D01*
X1716398D01*
X1718937Y-283738D01*
Y-286278D01*
X1716398Y-288817D01*
X1711320D01*
X1708781Y-286278D01*
X1724016Y-288817D02*
X1729094D01*
X1726555D01*
Y-273582D01*
X1724016D01*
X1739251Y-288817D02*
X1744329D01*
X1746868Y-286278D01*
Y-281199D01*
X1744329Y-278660D01*
X1739251D01*
X1736711Y-281199D01*
Y-286278D01*
X1739251Y-288817D01*
X1754486Y-276121D02*
Y-278660D01*
X1751947D01*
X1757025D01*
X1754486D01*
Y-286278D01*
X1757025Y-288817D01*
X1779877D02*
X1784956D01*
X1782417D01*
Y-273582D01*
X1779877D01*
X1800191Y-288817D02*
X1795112D01*
X1792573Y-286278D01*
Y-281199D01*
X1795112Y-278660D01*
X1800191D01*
X1802730Y-281199D01*
Y-283738D01*
X1792573D01*
X1807808Y-288817D02*
Y-278660D01*
X1815426D01*
X1817965Y-281199D01*
Y-288817D01*
X1828122Y-293895D02*
X1830661D01*
X1833200Y-291356D01*
Y-278660D01*
X1825583D01*
X1823044Y-281199D01*
Y-286278D01*
X1825583Y-288817D01*
X1833200D01*
X1840818Y-276121D02*
Y-278660D01*
X1838279D01*
X1843357D01*
X1840818D01*
Y-286278D01*
X1843357Y-288817D01*
X1850974Y-273582D02*
Y-288817D01*
Y-281199D01*
X1853514Y-278660D01*
X1858592D01*
X1861131Y-281199D01*
Y-288817D01*
X1883984Y-278660D02*
X1889062D01*
X1891601Y-281199D01*
Y-288817D01*
X1883984D01*
X1881445Y-286278D01*
X1883984Y-283738D01*
X1891601D01*
X1896680Y-288817D02*
X1904297D01*
X1906836Y-286278D01*
X1904297Y-283738D01*
X1899219D01*
X1896680Y-281199D01*
X1899219Y-278660D01*
X1906836D01*
X1937307Y-273582D02*
Y-288817D01*
X1929689D01*
X1927150Y-286278D01*
Y-281199D01*
X1929689Y-278660D01*
X1937307D01*
X1950002Y-288817D02*
X1944924D01*
X1942385Y-286278D01*
Y-281199D01*
X1944924Y-278660D01*
X1950002D01*
X1952542Y-281199D01*
Y-283738D01*
X1942385D01*
X1960159Y-288817D02*
Y-276121D01*
Y-281199D01*
X1957620D01*
X1962698D01*
X1960159D01*
Y-276121D01*
X1962698Y-273582D01*
X1970316Y-288817D02*
X1975394D01*
X1972855D01*
Y-278660D01*
X1970316D01*
X1983012Y-288817D02*
Y-278660D01*
X1990629D01*
X1993168Y-281199D01*
Y-288817D01*
X2005864D02*
X2000786D01*
X1998247Y-286278D01*
Y-281199D01*
X2000786Y-278660D01*
X2005864D01*
X2008403Y-281199D01*
Y-283738D01*
X1998247D01*
X2023639Y-273582D02*
Y-288817D01*
X2016021D01*
X2013482Y-286278D01*
Y-281199D01*
X2016021Y-278660D01*
X2023639D01*
X2043952Y-288817D02*
X2049030D01*
X2046491D01*
Y-278660D01*
X2043952D01*
X2056648Y-288817D02*
Y-278660D01*
X2064265D01*
X2066805Y-281199D01*
Y-288817D01*
X2089657Y-276121D02*
Y-278660D01*
X2087118D01*
X2092196D01*
X2089657D01*
Y-286278D01*
X2092196Y-288817D01*
X2099814Y-273582D02*
Y-288817D01*
Y-281199D01*
X2102353Y-278660D01*
X2107431D01*
X2109971Y-281199D01*
Y-288817D01*
X2122666D02*
X2117588D01*
X2115049Y-286278D01*
Y-281199D01*
X2117588Y-278660D01*
X2122666D01*
X2125206Y-281199D01*
Y-283738D01*
X2115049D01*
X2145519Y-288817D02*
Y-273582D01*
X2153137D01*
X2155676Y-276121D01*
Y-281199D01*
X2153137Y-283738D01*
X2145519D01*
X2170911Y-276121D02*
X2168372Y-273582D01*
X2163293D01*
X2160754Y-276121D01*
Y-286278D01*
X2163293Y-288817D01*
X2168372D01*
X2170911Y-286278D01*
X2175989Y-273582D02*
Y-288817D01*
X2183607D01*
X2186146Y-286278D01*
Y-283738D01*
X2183607Y-281199D01*
X2175989D01*
X2183607D01*
X2186146Y-278660D01*
Y-276121D01*
X2183607Y-273582D01*
X2175989D01*
X2206459Y-288817D02*
X2211538D01*
X2208999D01*
Y-273582D01*
X2206459D01*
X2221694Y-278660D02*
X2226773D01*
X2229312Y-281199D01*
Y-288817D01*
X2221694D01*
X2219155Y-286278D01*
X2221694Y-283738D01*
X2229312D01*
X2234390Y-278660D02*
Y-286278D01*
X2236930Y-288817D01*
X2244547D01*
Y-291356D01*
X2242008Y-293895D01*
X2239469D01*
X2244547Y-288817D02*
Y-278660D01*
X2252165Y-288817D02*
X2257243D01*
X2259782Y-286278D01*
Y-281199D01*
X2257243Y-278660D01*
X2252165D01*
X2249625Y-281199D01*
Y-286278D01*
X2252165Y-288817D01*
X2264861Y-278660D02*
Y-286278D01*
X2267400Y-288817D01*
X2275017D01*
Y-278660D01*
X2282635Y-276121D02*
Y-278660D01*
X2280096D01*
X2285174D01*
X2282635D01*
Y-286278D01*
X2285174Y-288817D01*
X1277120Y-258345D02*
X1287277D01*
X1277120Y-253267D02*
X1287277D01*
X1317747Y-250728D02*
X1315208Y-248188D01*
X1310129D01*
X1307590Y-250728D01*
Y-260884D01*
X1310129Y-263423D01*
X1315208D01*
X1317747Y-260884D01*
X1325365Y-253267D02*
X1330443D01*
X1332982Y-255806D01*
Y-263423D01*
X1325365D01*
X1322825Y-260884D01*
X1325365Y-258345D01*
X1332982D01*
X1338060Y-263423D02*
X1343139D01*
X1340600D01*
Y-248188D01*
X1338060D01*
X1360913Y-253267D02*
X1353295D01*
X1350756Y-255806D01*
Y-260884D01*
X1353295Y-263423D01*
X1360913D01*
X1365991Y-253267D02*
Y-260884D01*
X1368530Y-263423D01*
X1376148D01*
Y-253267D01*
X1381226Y-263423D02*
X1386305D01*
X1383766D01*
Y-248188D01*
X1381226D01*
X1396461Y-253267D02*
X1401540D01*
X1404079Y-255806D01*
Y-263423D01*
X1396461D01*
X1393922Y-260884D01*
X1396461Y-258345D01*
X1404079D01*
X1411697Y-250728D02*
Y-253267D01*
X1409157D01*
X1414236D01*
X1411697D01*
Y-260884D01*
X1414236Y-263423D01*
X1429471D02*
X1424393D01*
X1421853Y-260884D01*
Y-255806D01*
X1424393Y-253267D01*
X1429471D01*
X1432010Y-255806D01*
Y-258345D01*
X1421853D01*
X1447245Y-248188D02*
Y-263423D01*
X1439628D01*
X1437088Y-260884D01*
Y-255806D01*
X1439628Y-253267D01*
X1447245D01*
X1470098Y-263423D02*
Y-250728D01*
Y-255806D01*
X1467558D01*
X1472637D01*
X1470098D01*
Y-250728D01*
X1472637Y-248188D01*
X1480254Y-253267D02*
Y-263423D01*
Y-258345D01*
X1482794Y-255806D01*
X1485333Y-253267D01*
X1487872D01*
X1498029Y-263423D02*
X1503107D01*
X1505646Y-260884D01*
Y-255806D01*
X1503107Y-253267D01*
X1498029D01*
X1495489Y-255806D01*
Y-260884D01*
X1498029Y-263423D01*
X1510724D02*
Y-253267D01*
X1513264D01*
X1515803Y-255806D01*
Y-263423D01*
Y-255806D01*
X1518342Y-253267D01*
X1520881Y-255806D01*
Y-263423D01*
X1543734Y-250728D02*
Y-253267D01*
X1541195D01*
X1546273D01*
X1543734D01*
Y-260884D01*
X1546273Y-263423D01*
X1556430D02*
X1561508D01*
X1564047Y-260884D01*
Y-255806D01*
X1561508Y-253267D01*
X1556430D01*
X1553891Y-255806D01*
Y-260884D01*
X1556430Y-263423D01*
X1571665D02*
X1576743D01*
X1579282Y-260884D01*
Y-255806D01*
X1576743Y-253267D01*
X1571665D01*
X1569126Y-255806D01*
Y-260884D01*
X1571665Y-263423D01*
X1584361D02*
X1589439D01*
X1586900D01*
Y-248188D01*
X1584361D01*
X1612292Y-263423D02*
X1619909D01*
X1622448Y-260884D01*
X1619909Y-258345D01*
X1614831D01*
X1612292Y-255806D01*
X1614831Y-253267D01*
X1622448D01*
X1630066Y-250728D02*
Y-253267D01*
X1627527D01*
X1632605D01*
X1630066D01*
Y-260884D01*
X1632605Y-263423D01*
X1642762Y-253267D02*
X1647840D01*
X1650379Y-255806D01*
Y-263423D01*
X1642762D01*
X1640223Y-260884D01*
X1642762Y-258345D01*
X1650379D01*
X1655458Y-253267D02*
Y-263423D01*
Y-258345D01*
X1657997Y-255806D01*
X1660536Y-253267D01*
X1663075D01*
X1673232Y-250728D02*
Y-253267D01*
X1670693D01*
X1675771D01*
X1673232D01*
Y-260884D01*
X1675771Y-263423D01*
X1708780Y-253267D02*
X1701163D01*
X1698624Y-255806D01*
Y-260884D01*
X1701163Y-263423D01*
X1708780D01*
X1721476D02*
X1716398D01*
X1713859Y-260884D01*
Y-255806D01*
X1716398Y-253267D01*
X1721476D01*
X1724016Y-255806D01*
Y-258345D01*
X1713859D01*
X1729094Y-263423D02*
Y-253267D01*
X1736711D01*
X1739251Y-255806D01*
Y-263423D01*
X1746868Y-250728D02*
Y-253267D01*
X1744329D01*
X1749407D01*
X1746868D01*
Y-260884D01*
X1749407Y-263423D01*
X1757025Y-253267D02*
Y-263423D01*
Y-258345D01*
X1759564Y-255806D01*
X1762103Y-253267D01*
X1764642D01*
X1779877Y-263423D02*
X1774799D01*
X1772260Y-260884D01*
Y-255806D01*
X1774799Y-253267D01*
X1779877D01*
X1782417Y-255806D01*
Y-258345D01*
X1772260D01*
X1802730Y-268502D02*
Y-253267D01*
X1810348D01*
X1812887Y-255806D01*
Y-260884D01*
X1810348Y-263423D01*
X1802730D01*
X1820504D02*
X1825583D01*
X1828122Y-260884D01*
Y-255806D01*
X1825583Y-253267D01*
X1820504D01*
X1817965Y-255806D01*
Y-260884D01*
X1820504Y-263423D01*
X1833200D02*
X1840818D01*
X1843357Y-260884D01*
X1840818Y-258345D01*
X1835739D01*
X1833200Y-255806D01*
X1835739Y-253267D01*
X1843357D01*
X1848435Y-263423D02*
X1853514D01*
X1850974D01*
Y-253267D01*
X1848435D01*
X1863670Y-250728D02*
Y-253267D01*
X1861131D01*
X1866210D01*
X1863670D01*
Y-260884D01*
X1866210Y-263423D01*
X1873827D02*
X1878905D01*
X1876366D01*
Y-253267D01*
X1873827D01*
X1889062Y-263423D02*
X1894140D01*
X1896680Y-260884D01*
Y-255806D01*
X1894140Y-253267D01*
X1889062D01*
X1886523Y-255806D01*
Y-260884D01*
X1889062Y-263423D01*
X1901758D02*
Y-253267D01*
X1909375D01*
X1911915Y-255806D01*
Y-263423D01*
X1934767Y-250728D02*
Y-253267D01*
X1932228D01*
X1937307D01*
X1934767D01*
Y-260884D01*
X1937307Y-263423D01*
X1947463D02*
X1952542D01*
X1955081Y-260884D01*
Y-255806D01*
X1952542Y-253267D01*
X1947463D01*
X1944924Y-255806D01*
Y-260884D01*
X1947463Y-263423D01*
X1977933Y-250728D02*
Y-253267D01*
X1975394D01*
X1980473D01*
X1977933D01*
Y-260884D01*
X1980473Y-263423D01*
X1990629D02*
X1995708D01*
X1998247Y-260884D01*
Y-255806D01*
X1995708Y-253267D01*
X1990629D01*
X1988090Y-255806D01*
Y-260884D01*
X1990629Y-263423D01*
X2005864D02*
X2010943D01*
X2013482Y-260884D01*
Y-255806D01*
X2010943Y-253267D01*
X2005864D01*
X2003325Y-255806D01*
Y-260884D01*
X2005864Y-263423D01*
X2018560D02*
X2023638D01*
X2021099D01*
Y-248188D01*
X2018560D01*
X2054109Y-263423D02*
X2049030D01*
X2046491Y-260884D01*
Y-255806D01*
X2049030Y-253267D01*
X2054109D01*
X2056648Y-255806D01*
Y-258345D01*
X2046491D01*
X2061726Y-263423D02*
Y-253267D01*
X2069344D01*
X2071883Y-255806D01*
Y-263423D01*
X2087118Y-248188D02*
Y-263423D01*
X2079500D01*
X2076961Y-260884D01*
Y-255806D01*
X2079500Y-253267D01*
X2087118D01*
X2117588D02*
X2109971D01*
X2107431Y-255806D01*
Y-260884D01*
X2109971Y-263423D01*
X2117588D01*
X2130284D02*
X2125206D01*
X2122666Y-260884D01*
Y-255806D01*
X2125206Y-253267D01*
X2130284D01*
X2132823Y-255806D01*
Y-258345D01*
X2122666D01*
X2137902Y-263423D02*
Y-253267D01*
X2145519D01*
X2148058Y-255806D01*
Y-263423D01*
X2155676Y-250728D02*
Y-253267D01*
X2153137D01*
X2158215D01*
X2155676D01*
Y-260884D01*
X2158215Y-263423D01*
X2165833Y-253267D02*
Y-263423D01*
Y-258345D01*
X2168372Y-255806D01*
X2170911Y-253267D01*
X2173450D01*
X2188685Y-263423D02*
X2183607D01*
X2181068Y-260884D01*
Y-255806D01*
X2183607Y-253267D01*
X2188685D01*
X2191224Y-255806D01*
Y-258345D01*
X2181068D01*
X2211538Y-268502D02*
Y-253267D01*
X2219155D01*
X2221694Y-255806D01*
Y-260884D01*
X2219155Y-263423D01*
X2211538D01*
X2229312D02*
X2234390D01*
X2236929Y-260884D01*
Y-255806D01*
X2234390Y-253267D01*
X2229312D01*
X2226773Y-255806D01*
Y-260884D01*
X2229312Y-263423D01*
X2242008D02*
X2249625D01*
X2252165Y-260884D01*
X2249625Y-258345D01*
X2244547D01*
X2242008Y-255806D01*
X2244547Y-253267D01*
X2252165D01*
X2257243Y-263423D02*
X2262321D01*
X2259782D01*
Y-253267D01*
X2257243D01*
X2272478Y-250728D02*
Y-253267D01*
X2269939D01*
X2275017D01*
X2272478D01*
Y-260884D01*
X2275017Y-263423D01*
X2282635D02*
X2287713D01*
X2285174D01*
Y-253267D01*
X2282635D01*
X2297870Y-263423D02*
X2302948D01*
X2305487Y-260884D01*
Y-255806D01*
X2302948Y-253267D01*
X2297870D01*
X2295331Y-255806D01*
Y-260884D01*
X2297870Y-263423D01*
X2310566D02*
Y-253267D01*
X2318183D01*
X2320722Y-255806D01*
Y-263423D01*
X2325801D02*
Y-260884D01*
X2328340D01*
Y-263423D01*
X2325801D01*
D75*
X711880Y28670D02*
X1568146D01*
X711880Y-199930D02*
X1568146D01*
X711880Y-238030D02*
X1568146D01*
Y66770D01*
X711880D02*
X1568146D01*
X711880Y-238030D02*
Y66770D01*
X1406895Y-238030D02*
Y66770D01*
X1278402Y-238030D02*
Y66770D01*
X1001623Y-238030D02*
Y66770D01*
X851802Y-238030D02*
Y66770D01*
D77*
X288140Y324600D02*
X286870Y326800D01*
X284330D01*
X283060Y324600D01*
X284330Y322400D01*
X286870D01*
X288140Y324600D01*
Y350000D02*
X286870Y352200D01*
X284330D01*
X283060Y350000D01*
X284330Y347800D01*
X286870D01*
X288140Y350000D01*
X313540Y324600D02*
X312270Y326800D01*
X309730D01*
X308460Y324600D01*
X309730Y322400D01*
X312270D01*
X313540Y324600D01*
Y350000D02*
X312270Y352200D01*
X309730D01*
X308460Y350000D01*
X309730Y347800D01*
X312270D01*
X313540Y350000D01*
X338940Y324600D02*
X337670Y326800D01*
X335130D01*
X333860Y324600D01*
X335130Y322400D01*
X337670D01*
X338940Y324600D01*
Y350000D02*
X337670Y352200D01*
X335130D01*
X333860Y350000D01*
X335130Y347800D01*
X337670D01*
X338940Y350000D01*
X364340Y324600D02*
X363070Y326800D01*
X360530D01*
X359260Y324600D01*
X360530Y322400D01*
X363070D01*
X364340Y324600D01*
Y350000D02*
X363070Y352200D01*
X360530D01*
X359260Y350000D01*
X360530Y347800D01*
X363070D01*
X364340Y350000D01*
X389740Y324600D02*
X388470Y326800D01*
X385930D01*
X384660Y324600D01*
X385930Y322400D01*
X388470D01*
X389740Y324600D01*
Y350000D02*
X388470Y352200D01*
X385930D01*
X384660Y350000D01*
X385930Y347800D01*
X388470D01*
X389740Y350000D01*
X415140Y324600D02*
X413870Y326800D01*
X411330D01*
X410060Y324600D01*
X411330Y322400D01*
X413870D01*
X415140Y324600D01*
Y350000D02*
X413870Y352200D01*
X411330D01*
X410060Y350000D01*
X411330Y347800D01*
X413870D01*
X415140Y350000D01*
X440540Y324600D02*
X439270Y326800D01*
X436730D01*
X435460Y324600D01*
X436730Y322400D01*
X439270D01*
X440540Y324600D01*
Y350000D02*
X439270Y352200D01*
X436730D01*
X435460Y350000D01*
X436730Y347800D01*
X439270D01*
X440540Y350000D01*
X465940Y324600D02*
X464670Y326800D01*
X462130D01*
X460860Y324600D01*
X462130Y322400D01*
X464670D01*
X465940Y324600D01*
Y350000D02*
X464670Y352200D01*
X462130D01*
X460860Y350000D01*
X462130Y347800D01*
X464670D01*
X465940Y350000D01*
X73740Y187250D02*
X76280Y188520D01*
X78820Y187250D01*
X77550Y189790D02*
X78820Y187250D01*
X77550Y189790D02*
X78820Y192330D01*
X76280Y191060D02*
X78820Y192330D01*
X73740D02*
X76280Y191060D01*
X73740Y192330D02*
X75010Y189790D01*
X73740Y187250D02*
X75010Y189790D01*
X273460Y168460D02*
X276000Y169730D01*
X278540Y168460D01*
X277270Y171000D02*
X278540Y168460D01*
X277270Y171000D02*
X278540Y173540D01*
X276000Y172270D02*
X278540Y173540D01*
X273460D02*
X276000Y172270D01*
X273460Y173540D02*
X274730Y171000D01*
X273460Y168460D02*
X274730Y171000D01*
X239530Y62460D02*
X242070Y63730D01*
X244610Y62460D01*
X243340Y65000D02*
X244610Y62460D01*
X243340Y65000D02*
X244610Y67540D01*
X242070Y66270D02*
X244610Y67540D01*
X239530D02*
X242070Y66270D01*
X239530Y67540D02*
X240800Y65000D01*
X239530Y62460D02*
X240800Y65000D01*
X402460Y137460D02*
X405000Y138730D01*
X407540Y137460D01*
X406270Y140000D02*
X407540Y137460D01*
X406270Y140000D02*
X407540Y142540D01*
X405000Y141270D02*
X407540Y142540D01*
X402460D02*
X405000Y141270D01*
X402460Y142540D02*
X403730Y140000D01*
X402460Y137460D02*
X403730Y140000D01*
X402460Y119460D02*
X405000Y120730D01*
X407540Y119460D01*
X406270Y122000D02*
X407540Y119460D01*
X406270Y122000D02*
X407540Y124540D01*
X405000Y123270D02*
X407540Y124540D01*
X402460D02*
X405000Y123270D01*
X402460Y124540D02*
X403730Y122000D01*
X402460Y119460D02*
X403730Y122000D01*
X391460Y128460D02*
X394000Y129730D01*
X396540Y128460D01*
X395270Y131000D02*
X396540Y128460D01*
X395270Y131000D02*
X396540Y133540D01*
X394000Y132270D02*
X396540Y133540D01*
X391460D02*
X394000Y132270D01*
X391460Y133540D02*
X392730Y131000D01*
X391460Y128460D02*
X392730Y131000D01*
X391460Y119460D02*
X394000Y120730D01*
X396540Y119460D01*
X395270Y122000D02*
X396540Y119460D01*
X395270Y122000D02*
X396540Y124540D01*
X394000Y123270D02*
X396540Y124540D01*
X391460D02*
X394000Y123270D01*
X391460Y124540D02*
X392730Y122000D01*
X391460Y119460D02*
X392730Y122000D01*
X395460Y82460D02*
X398000Y83730D01*
X400540Y82460D01*
X399270Y85000D02*
X400540Y82460D01*
X399270Y85000D02*
X400540Y87540D01*
X398000Y86270D02*
X400540Y87540D01*
X395460D02*
X398000Y86270D01*
X395460Y87540D02*
X396730Y85000D01*
X395460Y82460D02*
X396730Y85000D01*
X419460Y82460D02*
X422000Y83730D01*
X424540Y82460D01*
X423270Y85000D02*
X424540Y82460D01*
X423270Y85000D02*
X424540Y87540D01*
X422000Y86270D02*
X424540Y87540D01*
X419460D02*
X422000Y86270D01*
X419460Y87540D02*
X420730Y85000D01*
X419460Y82460D02*
X420730Y85000D01*
X395460Y48460D02*
X398000Y49730D01*
X400540Y48460D01*
X399270Y51000D02*
X400540Y48460D01*
X399270Y51000D02*
X400540Y53540D01*
X398000Y52270D02*
X400540Y53540D01*
X395460D02*
X398000Y52270D01*
X395460Y53540D02*
X396730Y51000D01*
X395460Y48460D02*
X396730Y51000D01*
X419460Y48460D02*
X422000Y49730D01*
X424540Y48460D01*
X423270Y51000D02*
X424540Y48460D01*
X423270Y51000D02*
X424540Y53540D01*
X422000Y52270D02*
X424540Y53540D01*
X419460D02*
X422000Y52270D01*
X419460Y53540D02*
X420730Y51000D01*
X419460Y48460D02*
X420730Y51000D01*
X240460Y27490D02*
X243000Y28760D01*
X245540Y27490D01*
X244270Y30030D02*
X245540Y27490D01*
X244270Y30030D02*
X245540Y32570D01*
X243000Y31300D02*
X245540Y32570D01*
X240460D02*
X243000Y31300D01*
X240460Y32570D02*
X241730Y30030D01*
X240460Y27490D02*
X241730Y30030D01*
X366460Y140460D02*
X369000Y141730D01*
X371540Y140460D01*
X370270Y143000D02*
X371540Y140460D01*
X370270Y143000D02*
X371540Y145540D01*
X369000Y144270D02*
X371540Y145540D01*
X366460D02*
X369000Y144270D01*
X366460Y145540D02*
X367730Y143000D01*
X366460Y140460D02*
X367730Y143000D01*
X276460Y107120D02*
X279000Y108390D01*
X281540Y107120D01*
X280270Y109660D02*
X281540Y107120D01*
X280270Y109660D02*
X281540Y112200D01*
X279000Y110930D02*
X281540Y112200D01*
X276460D02*
X279000Y110930D01*
X276460Y112200D02*
X277730Y109660D01*
X276460Y107120D02*
X277730Y109660D01*
X553460Y125460D02*
X556000Y126730D01*
X558540Y125460D01*
X557270Y128000D02*
X558540Y125460D01*
X557270Y128000D02*
X558540Y130540D01*
X556000Y129270D02*
X558540Y130540D01*
X553460D02*
X556000Y129270D01*
X553460Y130540D02*
X554730Y128000D01*
X553460Y125460D02*
X554730Y128000D01*
X347460Y32460D02*
X350000Y33730D01*
X352540Y32460D01*
X351270Y35000D02*
X352540Y32460D01*
X351270Y35000D02*
X352540Y37540D01*
X350000Y36270D02*
X352540Y37540D01*
X347460D02*
X350000Y36270D01*
X347460Y37540D02*
X348730Y35000D01*
X347460Y32460D02*
X348730Y35000D01*
X357460Y29460D02*
X360000Y30730D01*
X362540Y29460D01*
X361270Y32000D02*
X362540Y29460D01*
X361270Y32000D02*
X362540Y34540D01*
X360000Y33270D02*
X362540Y34540D01*
X357460D02*
X360000Y33270D01*
X357460Y34540D02*
X358730Y32000D01*
X357460Y29460D02*
X358730Y32000D01*
X369460Y50460D02*
X372000Y51730D01*
X374540Y50460D01*
X373270Y53000D02*
X374540Y50460D01*
X373270Y53000D02*
X374540Y55540D01*
X372000Y54270D02*
X374540Y55540D01*
X369460D02*
X372000Y54270D01*
X369460Y55540D02*
X370730Y53000D01*
X369460Y50460D02*
X370730Y53000D01*
X380460Y50460D02*
X383000Y51730D01*
X385540Y50460D01*
X384270Y53000D02*
X385540Y50460D01*
X384270Y53000D02*
X385540Y55540D01*
X383000Y54270D02*
X385540Y55540D01*
X380460D02*
X383000Y54270D01*
X380460Y55540D02*
X381730Y53000D01*
X380460Y50460D02*
X381730Y53000D01*
X282460Y29460D02*
X285000Y30730D01*
X287540Y29460D01*
X286270Y32000D02*
X287540Y29460D01*
X286270Y32000D02*
X287540Y34540D01*
X285000Y33270D02*
X287540Y34540D01*
X282460D02*
X285000Y33270D01*
X282460Y34540D02*
X283730Y32000D01*
X282460Y29460D02*
X283730Y32000D01*
X294460Y29460D02*
X297000Y30730D01*
X299540Y29460D01*
X298270Y32000D02*
X299540Y29460D01*
X298270Y32000D02*
X299540Y34540D01*
X297000Y33270D02*
X299540Y34540D01*
X294460D02*
X297000Y33270D01*
X294460Y34540D02*
X295730Y32000D01*
X294460Y29460D02*
X295730Y32000D01*
X265460Y13460D02*
X268000Y14730D01*
X270540Y13460D01*
X269270Y16000D02*
X270540Y13460D01*
X269270Y16000D02*
X270540Y18540D01*
X268000Y17270D02*
X270540Y18540D01*
X265460D02*
X268000Y17270D01*
X265460Y18540D02*
X266730Y16000D01*
X265460Y13460D02*
X266730Y16000D01*
X240460Y13460D02*
X243000Y14730D01*
X245540Y13460D01*
X244270Y16000D02*
X245540Y13460D01*
X244270Y16000D02*
X245540Y18540D01*
X243000Y17270D02*
X245540Y18540D01*
X240460D02*
X243000Y17270D01*
X240460Y18540D02*
X241730Y16000D01*
X240460Y13460D02*
X241730Y16000D01*
X210460Y13460D02*
X213000Y14730D01*
X215540Y13460D01*
X214270Y16000D02*
X215540Y13460D01*
X214270Y16000D02*
X215540Y18540D01*
X213000Y17270D02*
X215540Y18540D01*
X210460D02*
X213000Y17270D01*
X210460Y18540D02*
X211730Y16000D01*
X210460Y13460D02*
X211730Y16000D01*
X285460Y98460D02*
X288000Y99730D01*
X290540Y98460D01*
X289270Y101000D02*
X290540Y98460D01*
X289270Y101000D02*
X290540Y103540D01*
X288000Y102270D02*
X290540Y103540D01*
X285460D02*
X288000Y102270D01*
X285460Y103540D02*
X286730Y101000D01*
X285460Y98460D02*
X286730Y101000D01*
X360460Y111460D02*
X363000Y112730D01*
X365540Y111460D01*
X364270Y114000D02*
X365540Y111460D01*
X364270Y114000D02*
X365540Y116540D01*
X363000Y115270D02*
X365540Y116540D01*
X360460D02*
X363000Y115270D01*
X360460Y116540D02*
X361730Y114000D01*
X360460Y111460D02*
X361730Y114000D01*
X360460Y86460D02*
X363000Y87730D01*
X365540Y86460D01*
X364270Y89000D02*
X365540Y86460D01*
X364270Y89000D02*
X365540Y91540D01*
X363000Y90270D02*
X365540Y91540D01*
X360460D02*
X363000Y90270D01*
X360460Y91540D02*
X361730Y89000D01*
X360460Y86460D02*
X361730Y89000D01*
X302460Y56460D02*
X305000Y57730D01*
X307540Y56460D01*
X306270Y59000D02*
X307540Y56460D01*
X306270Y59000D02*
X307540Y61540D01*
X305000Y60270D02*
X307540Y61540D01*
X302460D02*
X305000Y60270D01*
X302460Y61540D02*
X303730Y59000D01*
X302460Y56460D02*
X303730Y59000D01*
X343460Y56460D02*
X346000Y57730D01*
X348540Y56460D01*
X347270Y59000D02*
X348540Y56460D01*
X347270Y59000D02*
X348540Y61540D01*
X346000Y60270D02*
X348540Y61540D01*
X343460D02*
X346000Y60270D01*
X343460Y61540D02*
X344730Y59000D01*
X343460Y56460D02*
X344730Y59000D01*
X277460Y83460D02*
X280000Y84730D01*
X282540Y83460D01*
X281270Y86000D02*
X282540Y83460D01*
X281270Y86000D02*
X282540Y88540D01*
X280000Y87270D02*
X282540Y88540D01*
X277460D02*
X280000Y87270D01*
X277460Y88540D02*
X278730Y86000D01*
X277460Y83460D02*
X278730Y86000D01*
X17460Y392460D02*
X20000Y393730D01*
X22540Y392460D01*
X21270Y395000D02*
X22540Y392460D01*
X21270Y395000D02*
X22540Y397540D01*
X20000Y396270D02*
X22540Y397540D01*
X17460D02*
X20000Y396270D01*
X17460Y397540D02*
X18730Y395000D01*
X17460Y392460D02*
X18730Y395000D01*
X47460Y392460D02*
X50000Y393730D01*
X52540Y392460D01*
X51270Y395000D02*
X52540Y392460D01*
X51270Y395000D02*
X52540Y397540D01*
X50000Y396270D02*
X52540Y397540D01*
X47460D02*
X50000Y396270D01*
X47460Y397540D02*
X48730Y395000D01*
X47460Y392460D02*
X48730Y395000D01*
X77460Y392460D02*
X80000Y393730D01*
X82540Y392460D01*
X81270Y395000D02*
X82540Y392460D01*
X81270Y395000D02*
X82540Y397540D01*
X80000Y396270D02*
X82540Y397540D01*
X77460D02*
X80000Y396270D01*
X77460Y397540D02*
X78730Y395000D01*
X77460Y392460D02*
X78730Y395000D01*
X17460Y357460D02*
X20000Y358730D01*
X22540Y357460D01*
X21270Y360000D02*
X22540Y357460D01*
X21270Y360000D02*
X22540Y362540D01*
X20000Y361270D02*
X22540Y362540D01*
X17460D02*
X20000Y361270D01*
X17460Y362540D02*
X18730Y360000D01*
X17460Y357460D02*
X18730Y360000D01*
X47460Y357460D02*
X50000Y358730D01*
X52540Y357460D01*
X51270Y360000D02*
X52540Y357460D01*
X51270Y360000D02*
X52540Y362540D01*
X50000Y361270D02*
X52540Y362540D01*
X47460D02*
X50000Y361270D01*
X47460Y362540D02*
X48730Y360000D01*
X47460Y357460D02*
X48730Y360000D01*
X77460Y357460D02*
X80000Y358730D01*
X82540Y357460D01*
X81270Y360000D02*
X82540Y357460D01*
X81270Y360000D02*
X82540Y362540D01*
X80000Y361270D02*
X82540Y362540D01*
X77460D02*
X80000Y361270D01*
X77460Y362540D02*
X78730Y360000D01*
X77460Y357460D02*
X78730Y360000D01*
X17460Y322460D02*
X20000Y323730D01*
X22540Y322460D01*
X21270Y325000D02*
X22540Y322460D01*
X21270Y325000D02*
X22540Y327540D01*
X20000Y326270D02*
X22540Y327540D01*
X17460D02*
X20000Y326270D01*
X17460Y327540D02*
X18730Y325000D01*
X17460Y322460D02*
X18730Y325000D01*
X17460Y287460D02*
X20000Y288730D01*
X22540Y287460D01*
X21270Y290000D02*
X22540Y287460D01*
X21270Y290000D02*
X22540Y292540D01*
X20000Y291270D02*
X22540Y292540D01*
X17460D02*
X20000Y291270D01*
X17460Y292540D02*
X18730Y290000D01*
X17460Y287460D02*
X18730Y290000D01*
X17460Y252460D02*
X20000Y253730D01*
X22540Y252460D01*
X21270Y255000D02*
X22540Y252460D01*
X21270Y255000D02*
X22540Y257540D01*
X20000Y256270D02*
X22540Y257540D01*
X17460D02*
X20000Y256270D01*
X17460Y257540D02*
X18730Y255000D01*
X17460Y252460D02*
X18730Y255000D01*
X73670Y152250D02*
X76210Y153520D01*
X78750Y152250D01*
X77480Y154790D02*
X78750Y152250D01*
X77480Y154790D02*
X78750Y157330D01*
X76210Y156060D02*
X78750Y157330D01*
X73670D02*
X76210Y156060D01*
X73670Y157330D02*
X74940Y154790D01*
X73670Y152250D02*
X74940Y154790D01*
X73670Y117250D02*
X76210Y118520D01*
X78750Y117250D01*
X77480Y119790D02*
X78750Y117250D01*
X77480Y119790D02*
X78750Y122330D01*
X76210Y121060D02*
X78750Y122330D01*
X73670D02*
X76210Y121060D01*
X73670Y122330D02*
X74940Y119790D01*
X73670Y117250D02*
X74940Y119790D01*
X35460Y152460D02*
X38000Y153730D01*
X40540Y152460D01*
X39270Y155000D02*
X40540Y152460D01*
X39270Y155000D02*
X40540Y157540D01*
X38000Y156270D02*
X40540Y157540D01*
X35460D02*
X38000Y156270D01*
X35460Y157540D02*
X36730Y155000D01*
X35460Y152460D02*
X36730Y155000D01*
X73460Y95460D02*
X76000Y96730D01*
X78540Y95460D01*
X77270Y98000D02*
X78540Y95460D01*
X77270Y98000D02*
X78540Y100540D01*
X76000Y99270D02*
X78540Y100540D01*
X73460D02*
X76000Y99270D01*
X73460Y100540D02*
X74730Y98000D01*
X73460Y95460D02*
X74730Y98000D01*
X105460Y152460D02*
X108000Y153730D01*
X110540Y152460D01*
X109270Y155000D02*
X110540Y152460D01*
X109270Y155000D02*
X110540Y157540D01*
X108000Y156270D02*
X110540Y157540D01*
X105460D02*
X108000Y156270D01*
X105460Y157540D02*
X106730Y155000D01*
X105460Y152460D02*
X106730Y155000D01*
X107460Y57460D02*
X110000Y58730D01*
X112540Y57460D01*
X111270Y60000D02*
X112540Y57460D01*
X111270Y60000D02*
X112540Y62540D01*
X110000Y61270D02*
X112540Y62540D01*
X107460D02*
X110000Y61270D01*
X107460Y62540D02*
X108730Y60000D01*
X107460Y57460D02*
X108730Y60000D01*
X127460Y62460D02*
X130000Y63730D01*
X132540Y62460D01*
X131270Y65000D02*
X132540Y62460D01*
X131270Y65000D02*
X132540Y67540D01*
X130000Y66270D02*
X132540Y67540D01*
X127460D02*
X130000Y66270D01*
X127460Y67540D02*
X128730Y65000D01*
X127460Y62460D02*
X128730Y65000D01*
X582460Y125460D02*
X585000Y126730D01*
X587540Y125460D01*
X586270Y128000D02*
X587540Y125460D01*
X586270Y128000D02*
X587540Y130540D01*
X585000Y129270D02*
X587540Y130540D01*
X582460D02*
X585000Y129270D01*
X582460Y130540D02*
X583730Y128000D01*
X582460Y125460D02*
X583730Y128000D01*
X337460Y263460D02*
X340000Y264730D01*
X342540Y263460D01*
X341270Y266000D02*
X342540Y263460D01*
X341270Y266000D02*
X342540Y268540D01*
X340000Y267270D02*
X342540Y268540D01*
X337460D02*
X340000Y267270D01*
X337460Y268540D02*
X338730Y266000D01*
X337460Y263460D02*
X338730Y266000D01*
X337460Y242460D02*
X340000Y243730D01*
X342540Y242460D01*
X341270Y245000D02*
X342540Y242460D01*
X341270Y245000D02*
X342540Y247540D01*
X340000Y246270D02*
X342540Y247540D01*
X337460D02*
X340000Y246270D01*
X337460Y247540D02*
X338730Y245000D01*
X337460Y242460D02*
X338730Y245000D01*
X525460Y336460D02*
X528000Y337730D01*
X530540Y336460D01*
X529270Y339000D02*
X530540Y336460D01*
X529270Y339000D02*
X530540Y341540D01*
X528000Y340270D02*
X530540Y341540D01*
X525460D02*
X528000Y340270D01*
X525460Y341540D02*
X526730Y339000D01*
X525460Y336460D02*
X526730Y339000D01*
X525460Y310460D02*
X528000Y311730D01*
X530540Y310460D01*
X529270Y313000D02*
X530540Y310460D01*
X529270Y313000D02*
X530540Y315540D01*
X528000Y314270D02*
X530540Y315540D01*
X525460D02*
X528000Y314270D01*
X525460Y315540D02*
X526730Y313000D01*
X525460Y310460D02*
X526730Y313000D01*
X525460Y283460D02*
X528000Y284730D01*
X530540Y283460D01*
X529270Y286000D02*
X530540Y283460D01*
X529270Y286000D02*
X530540Y288540D01*
X528000Y287270D02*
X530540Y288540D01*
X525460D02*
X528000Y287270D01*
X525460Y288540D02*
X526730Y286000D01*
X525460Y283460D02*
X526730Y286000D01*
X549460Y336460D02*
X552000Y337730D01*
X554540Y336460D01*
X553270Y339000D02*
X554540Y336460D01*
X553270Y339000D02*
X554540Y341540D01*
X552000Y340270D02*
X554540Y341540D01*
X549460D02*
X552000Y340270D01*
X549460Y341540D02*
X550730Y339000D01*
X549460Y336460D02*
X550730Y339000D01*
X549460Y310460D02*
X552000Y311730D01*
X554540Y310460D01*
X553270Y313000D02*
X554540Y310460D01*
X553270Y313000D02*
X554540Y315540D01*
X552000Y314270D02*
X554540Y315540D01*
X549460D02*
X552000Y314270D01*
X549460Y315540D02*
X550730Y313000D01*
X549460Y310460D02*
X550730Y313000D01*
X549460Y283460D02*
X552000Y284730D01*
X554540Y283460D01*
X553270Y286000D02*
X554540Y283460D01*
X553270Y286000D02*
X554540Y288540D01*
X552000Y287270D02*
X554540Y288540D01*
X549460D02*
X552000Y287270D01*
X549460Y288540D02*
X550730Y286000D01*
X549460Y283460D02*
X550730Y286000D01*
X582460Y98460D02*
X585000Y99730D01*
X587540Y98460D01*
X586270Y101000D02*
X587540Y98460D01*
X586270Y101000D02*
X587540Y103540D01*
X585000Y102270D02*
X587540Y103540D01*
X582460D02*
X585000Y102270D01*
X582460Y103540D02*
X583730Y101000D01*
X582460Y98460D02*
X583730Y101000D01*
X359460Y303460D02*
X362000Y304730D01*
X364540Y303460D01*
X363270Y306000D02*
X364540Y303460D01*
X363270Y306000D02*
X364540Y308540D01*
X362000Y307270D02*
X364540Y308540D01*
X359460D02*
X362000Y307270D01*
X359460Y308540D02*
X360730Y306000D01*
X359460Y303460D02*
X360730Y306000D01*
X293460Y303460D02*
X296000Y304730D01*
X298540Y303460D01*
X297270Y306000D02*
X298540Y303460D01*
X297270Y306000D02*
X298540Y308540D01*
X296000Y307270D02*
X298540Y308540D01*
X293460D02*
X296000Y307270D01*
X293460Y308540D02*
X294730Y306000D01*
X293460Y303460D02*
X294730Y306000D01*
X474460Y49460D02*
X477000Y50730D01*
X479540Y49460D01*
X478270Y52000D02*
X479540Y49460D01*
X478270Y52000D02*
X479540Y54540D01*
X477000Y53270D02*
X479540Y54540D01*
X474460D02*
X477000Y53270D01*
X474460Y54540D02*
X475730Y52000D01*
X474460Y49460D02*
X475730Y52000D01*
X504460Y49460D02*
X507000Y50730D01*
X509540Y49460D01*
X508270Y52000D02*
X509540Y49460D01*
X508270Y52000D02*
X509540Y54540D01*
X507000Y53270D02*
X509540Y54540D01*
X504460D02*
X507000Y53270D01*
X504460Y54540D02*
X505730Y52000D01*
X504460Y49460D02*
X505730Y52000D01*
X474460Y104460D02*
X477000Y105730D01*
X479540Y104460D01*
X478270Y107000D02*
X479540Y104460D01*
X478270Y107000D02*
X479540Y109540D01*
X477000Y108270D02*
X479540Y109540D01*
X474460D02*
X477000Y108270D01*
X474460Y109540D02*
X475730Y107000D01*
X474460Y104460D02*
X475730Y107000D01*
X525460Y184460D02*
X528000Y185730D01*
X530540Y184460D01*
X529270Y187000D02*
X530540Y184460D01*
X529270Y187000D02*
X530540Y189540D01*
X528000Y188270D02*
X530540Y189540D01*
X525460D02*
X528000Y188270D01*
X525460Y189540D02*
X526730Y187000D01*
X525460Y184460D02*
X526730Y187000D01*
X525460Y196460D02*
X528000Y197730D01*
X530540Y196460D01*
X529270Y199000D02*
X530540Y196460D01*
X529270Y199000D02*
X530540Y201540D01*
X528000Y200270D02*
X530540Y201540D01*
X525460D02*
X528000Y200270D01*
X525460Y201540D02*
X526730Y199000D01*
X525460Y196460D02*
X526730Y199000D01*
X372460Y111460D02*
X375000Y112730D01*
X377540Y111460D01*
X376270Y114000D02*
X377540Y111460D01*
X376270Y114000D02*
X377540Y116540D01*
X375000Y115270D02*
X377540Y116540D01*
X372460D02*
X375000Y115270D01*
X372460Y116540D02*
X373730Y114000D01*
X372460Y111460D02*
X373730Y114000D01*
X331460Y186460D02*
X334000Y187730D01*
X336540Y186460D01*
X335270Y189000D02*
X336540Y186460D01*
X335270Y189000D02*
X336540Y191540D01*
X334000Y190270D02*
X336540Y191540D01*
X331460D02*
X334000Y190270D01*
X331460Y191540D02*
X332730Y189000D01*
X331460Y186460D02*
X332730Y189000D01*
X145460Y62460D02*
X148000Y63730D01*
X150540Y62460D01*
X149270Y65000D02*
X150540Y62460D01*
X149270Y65000D02*
X150540Y67540D01*
X148000Y66270D02*
X150540Y67540D01*
X145460D02*
X148000Y66270D01*
X145460Y67540D02*
X146730Y65000D01*
X145460Y62460D02*
X146730Y65000D01*
X291460Y168460D02*
X294000Y169730D01*
X296540Y168460D01*
X295270Y171000D02*
X296540Y168460D01*
X295270Y171000D02*
X296540Y173540D01*
X294000Y172270D02*
X296540Y173540D01*
X291460D02*
X294000Y172270D01*
X291460Y173540D02*
X292730Y171000D01*
X291460Y168460D02*
X292730Y171000D01*
X363460Y269460D02*
X366000Y270730D01*
X368540Y269460D01*
X367270Y272000D02*
X368540Y269460D01*
X367270Y272000D02*
X368540Y274540D01*
X366000Y273270D02*
X368540Y274540D01*
X363460D02*
X366000Y273270D01*
X363460Y274540D02*
X364730Y272000D01*
X363460Y269460D02*
X364730Y272000D01*
X346763Y151763D02*
X349303Y153033D01*
X351843Y151763D01*
X350573Y154303D02*
X351843Y151763D01*
X350573Y154303D02*
X351843Y156843D01*
X349303Y155573D02*
X351843Y156843D01*
X346763D02*
X349303Y155573D01*
X346763Y156843D02*
X348033Y154303D01*
X346763Y151763D02*
X348033Y154303D01*
X105110Y173880D02*
X107650Y175150D01*
X110190Y173880D01*
X108920Y176420D02*
X110190Y173880D01*
X108920Y176420D02*
X110190Y178960D01*
X107650Y177690D02*
X110190Y178960D01*
X105110D02*
X107650Y177690D01*
X105110Y178960D02*
X106380Y176420D01*
X105110Y173880D02*
X106380Y176420D01*
X187160Y251460D02*
X189700Y252730D01*
X192240Y251460D01*
X190970Y254000D02*
X192240Y251460D01*
X190970Y254000D02*
X192240Y256540D01*
X189700Y255270D02*
X192240Y256540D01*
X187160D02*
X189700Y255270D01*
X187160Y256540D02*
X188430Y254000D01*
X187160Y251460D02*
X188430Y254000D01*
X120110Y186390D02*
X122650Y187660D01*
X125190Y186390D01*
X123920Y188930D02*
X125190Y186390D01*
X123920Y188930D02*
X125190Y191470D01*
X122650Y190200D02*
X125190Y191470D01*
X120110D02*
X122650Y190200D01*
X120110Y191470D02*
X121380Y188930D01*
X120110Y186390D02*
X121380Y188930D01*
X273460Y286390D02*
X276000Y287660D01*
X278540Y286390D01*
X277270Y288930D02*
X278540Y286390D01*
X277270Y288930D02*
X278540Y291470D01*
X276000Y290200D02*
X278540Y291470D01*
X273460D02*
X276000Y290200D01*
X273460Y291470D02*
X274730Y288930D01*
X273460Y286390D02*
X274730Y288930D01*
X209460Y214460D02*
X212000Y215730D01*
X214540Y214460D01*
X213270Y217000D02*
X214540Y214460D01*
X213270Y217000D02*
X214540Y219540D01*
X212000Y218270D02*
X214540Y219540D01*
X209460D02*
X212000Y218270D01*
X209460Y219540D02*
X210730Y217000D01*
X209460Y214460D02*
X210730Y217000D01*
X348460Y172460D02*
X351000Y173730D01*
X353540Y172460D01*
X352270Y175000D02*
X353540Y172460D01*
X352270Y175000D02*
X353540Y177540D01*
X351000Y176270D02*
X353540Y177540D01*
X348460D02*
X351000Y176270D01*
X348460Y177540D02*
X349730Y175000D01*
X348460Y172460D02*
X349730Y175000D01*
X123690Y246390D02*
X126230Y247660D01*
X128770Y246390D01*
X127500Y248930D02*
X128770Y246390D01*
X127500Y248930D02*
X128770Y251470D01*
X126230Y250200D02*
X128770Y251470D01*
X123690D02*
X126230Y250200D01*
X123690Y251470D02*
X124960Y248930D01*
X123690Y246390D02*
X124960Y248930D01*
X236530Y326390D02*
X239070Y327660D01*
X241610Y326390D01*
X240340Y328930D02*
X241610Y326390D01*
X240340Y328930D02*
X241610Y331470D01*
X239070Y330200D02*
X241610Y331470D01*
X236530D02*
X239070Y330200D01*
X236530Y331470D02*
X237800Y328930D01*
X236530Y326390D02*
X237800Y328930D01*
X402460Y128460D02*
X405000Y129730D01*
X407540Y128460D01*
X406270Y131000D02*
X407540Y128460D01*
X406270Y131000D02*
X407540Y133540D01*
X405000Y132270D02*
X407540Y133540D01*
X402460D02*
X405000Y132270D01*
X402460Y133540D02*
X403730Y131000D01*
X402460Y128460D02*
X403730Y131000D01*
X525460Y365460D02*
X530540D01*
Y370540D01*
X525460D02*
X530540D01*
X525460Y365460D02*
Y370540D01*
X575460Y365460D02*
X580540D01*
Y370540D01*
X575460D02*
X580540D01*
X575460Y365460D02*
Y370540D01*
X473460Y136730D02*
X474730D01*
X473460D02*
Y139270D01*
X474730D01*
Y140540D01*
X477270D01*
Y139270D02*
Y140540D01*
Y139270D02*
X478540D01*
Y136730D02*
Y139270D01*
X477270Y136730D02*
X478540D01*
X477270Y135460D02*
Y136730D01*
X474730Y135460D02*
X477270D01*
X474730D02*
Y136730D01*
Y76730D02*
X476000Y75460D01*
X473460Y76730D02*
X474730D01*
X473460D02*
X474730Y78000D01*
X473460Y79270D02*
X474730Y78000D01*
X473460Y79270D02*
X474730D01*
X476000Y80540D01*
X477270Y79270D01*
X478540D01*
X477270Y78000D02*
X478540Y79270D01*
X477270Y78000D02*
X478540Y76730D01*
X477270D02*
X478540D01*
X476000Y75460D02*
X477270Y76730D01*
X521730Y106730D02*
X523000Y105460D01*
X520460Y106730D02*
X521730D01*
X520460D02*
X521730Y108000D01*
X520460Y109270D02*
X521730Y108000D01*
X520460Y109270D02*
X521730D01*
X523000Y110540D01*
X524270Y109270D01*
X525540D01*
X524270Y108000D02*
X525540Y109270D01*
X524270Y108000D02*
X525540Y106730D01*
X524270D02*
X525540D01*
X523000Y105460D02*
X524270Y106730D01*
X65200Y39460D02*
X67740Y44540D01*
X62660D02*
X67740D01*
X62660D02*
X65200Y39460D01*
X90600D02*
X93140Y44540D01*
X88060D02*
X93140D01*
X88060D02*
X90600Y39460D01*
X116000D02*
X118540Y44540D01*
X113460D02*
X118540D01*
X113460D02*
X116000Y39460D01*
X141400D02*
X143940Y44540D01*
X138860D02*
X143940D01*
X138860D02*
X141400Y39460D01*
X166800D02*
X169340Y44540D01*
X164260D02*
X169340D01*
X164260D02*
X166800Y39460D01*
X192200D02*
X194740Y44540D01*
X189660D02*
X194740D01*
X189660D02*
X192200Y39460D01*
X50000Y190260D02*
X52540Y195340D01*
X47460D02*
X52540D01*
X47460D02*
X50000Y190260D01*
Y215660D02*
X52540Y220740D01*
X47460D02*
X52540D01*
X47460D02*
X50000Y215660D01*
Y241060D02*
X52540Y246140D01*
X47460D02*
X52540D01*
X47460D02*
X50000Y241060D01*
Y266460D02*
X52540Y271540D01*
X47460D02*
X52540D01*
X47460D02*
X50000Y266460D01*
Y291860D02*
X52540Y296940D01*
X47460D02*
X52540D01*
X47460D02*
X50000Y291860D01*
Y317260D02*
X52540Y322340D01*
X47460D02*
X52540D01*
X47460D02*
X50000Y317260D01*
X542400Y255860D02*
X544940Y260940D01*
X539860D02*
X544940D01*
X539860D02*
X542400Y255860D01*
Y230460D02*
X544940Y235540D01*
X539860D02*
X544940D01*
X539860D02*
X542400Y230460D01*
X517000Y255860D02*
X519540Y260940D01*
X514460D02*
X519540D01*
X514460D02*
X517000Y255860D01*
Y230460D02*
X519540Y235540D01*
X514460D02*
X519540D01*
X514460D02*
X517000Y230460D01*
X491600Y255860D02*
X494140Y260940D01*
X489060D02*
X494140D01*
X489060D02*
X491600Y255860D01*
Y230460D02*
X494140Y235540D01*
X489060D02*
X494140D01*
X489060D02*
X491600Y230460D01*
X466200Y255860D02*
X468740Y260940D01*
X463660D02*
X468740D01*
X463660D02*
X466200Y255860D01*
Y230460D02*
X468740Y235540D01*
X463660D02*
X468740D01*
X463660D02*
X466200Y230460D01*
X440800Y255860D02*
X443340Y260940D01*
X438260D02*
X443340D01*
X438260D02*
X440800Y255860D01*
Y230460D02*
X443340Y235540D01*
X438260D02*
X443340D01*
X438260D02*
X440800Y230460D01*
X415400Y255860D02*
X417940Y260940D01*
X412860D02*
X417940D01*
X412860D02*
X415400Y255860D01*
Y230460D02*
X417940Y235540D01*
X412860D02*
X417940D01*
X412860D02*
X415400Y230460D01*
X390000Y255860D02*
X392540Y260940D01*
X387460D02*
X392540D01*
X387460D02*
X390000Y255860D01*
Y230460D02*
X392540Y235540D01*
X387460D02*
X392540D01*
X387460D02*
X390000Y230460D01*
X364600Y255860D02*
X367140Y260940D01*
X362060D02*
X367140D01*
X362060D02*
X364600Y255860D01*
Y230460D02*
X367140Y235540D01*
X362060D02*
X367140D01*
X362060D02*
X364600Y230460D01*
D78*
X1418324Y58382D02*
Y46194D01*
X1424418Y40100D01*
X1430513Y46194D01*
Y58382D01*
X1436607Y40100D02*
X1442701D01*
X1439654D01*
Y52288D01*
X1436607D01*
X1454889D02*
X1460983D01*
X1464030Y49241D01*
Y40100D01*
X1454889D01*
X1451842Y43147D01*
X1454889Y46194D01*
X1464030D01*
X1470124Y40100D02*
X1482312Y52288D01*
X1488406Y40100D02*
Y58382D01*
X1497547D01*
X1500594Y55335D01*
Y49241D01*
X1497547Y46194D01*
X1488406D01*
X1509735Y52288D02*
X1515829D01*
X1518876Y49241D01*
Y40100D01*
X1509735D01*
X1506688Y43147D01*
X1509735Y46194D01*
X1518876D01*
X1537158Y58382D02*
Y40100D01*
X1528017D01*
X1524970Y43147D01*
Y49241D01*
X1528017Y52288D01*
X1537158D01*
X1289832Y40100D02*
Y58382D01*
X1298973D01*
X1302020Y55335D01*
Y49241D01*
X1298973Y46194D01*
X1289832D01*
X1308114Y40100D02*
X1314208D01*
X1311161D01*
Y58382D01*
X1308114D01*
X1326396Y52288D02*
X1332490D01*
X1335537Y49241D01*
Y40100D01*
X1326396D01*
X1323349Y43147D01*
X1326396Y46194D01*
X1335537D01*
X1344678Y55335D02*
Y52288D01*
X1341631D01*
X1347725D01*
X1344678D01*
Y43147D01*
X1347725Y40100D01*
X1366007D02*
X1359913D01*
X1356866Y43147D01*
Y49241D01*
X1359913Y52288D01*
X1366007D01*
X1369054Y49241D01*
Y46194D01*
X1356866D01*
X1387336Y58382D02*
Y40100D01*
X1378195D01*
X1375148Y43147D01*
Y49241D01*
X1378195Y52288D01*
X1387336D01*
X1013053Y58382D02*
Y40100D01*
Y49241D01*
X1025241D01*
Y58382D01*
Y40100D01*
X1034382D02*
X1040476D01*
X1043523Y43147D01*
Y49241D01*
X1040476Y52288D01*
X1034382D01*
X1031335Y49241D01*
Y43147D01*
X1034382Y40100D01*
X1049617D02*
X1055711D01*
X1052664D01*
Y58382D01*
X1049617D01*
X1073993Y40100D02*
X1067899D01*
X1064852Y43147D01*
Y49241D01*
X1067899Y52288D01*
X1073993D01*
X1077040Y49241D01*
Y46194D01*
X1064852D01*
X1113604Y55335D02*
X1110557Y58382D01*
X1104463D01*
X1101416Y55335D01*
Y52288D01*
X1104463Y49241D01*
X1110557D01*
X1113604Y46194D01*
Y43147D01*
X1110557Y40100D01*
X1104463D01*
X1101416Y43147D01*
X1119698Y40100D02*
X1125792D01*
X1122745D01*
Y52288D01*
X1119698D01*
X1134933D02*
X1147121D01*
X1134933Y40100D01*
X1147121D01*
X1162356D02*
X1156262D01*
X1153215Y43147D01*
Y49241D01*
X1156262Y52288D01*
X1162356D01*
X1165403Y49241D01*
Y46194D01*
X1153215D01*
X875420Y55335D02*
X872373Y58382D01*
X866279D01*
X863232Y55335D01*
Y43147D01*
X866279Y40100D01*
X872373D01*
X875420Y43147D01*
X884561Y40100D02*
X890655D01*
X893702Y43147D01*
Y49241D01*
X890655Y52288D01*
X884561D01*
X881514Y49241D01*
Y43147D01*
X884561Y40100D01*
X899796Y52288D02*
Y43147D01*
X902843Y40100D01*
X911984D01*
Y52288D01*
X918078Y40100D02*
Y52288D01*
X927219D01*
X930266Y49241D01*
Y40100D01*
X939407Y55335D02*
Y52288D01*
X936360D01*
X942454D01*
X939407D01*
Y43147D01*
X942454Y40100D01*
X746928Y55335D02*
X743881Y58382D01*
X737787D01*
X734740Y55335D01*
Y52288D01*
X737787Y49241D01*
X743881D01*
X746928Y46194D01*
Y43147D01*
X743881Y40100D01*
X737787D01*
X734740Y43147D01*
X753022Y52288D02*
Y43147D01*
X756069Y40100D01*
X765210D01*
Y37053D01*
X762163Y34006D01*
X759116D01*
X765210Y40100D02*
Y52288D01*
X771304Y40100D02*
Y52288D01*
X774351D01*
X777398Y49241D01*
Y40100D01*
Y49241D01*
X780445Y52288D01*
X783492Y49241D01*
Y40100D01*
X789586Y58382D02*
Y40100D01*
X798727D01*
X801774Y43147D01*
Y46194D01*
Y49241D01*
X798727Y52288D01*
X789586D01*
X810915Y40100D02*
X817009D01*
X820056Y43147D01*
Y49241D01*
X817009Y52288D01*
X810915D01*
X807868Y49241D01*
Y43147D01*
X810915Y40100D01*
X826150D02*
X832244D01*
X829197D01*
Y58382D01*
X826150D01*
D79*
X997043Y-273582D02*
Y-288817D01*
Y-281199D01*
X1007199D01*
Y-273582D01*
Y-288817D01*
X1014817D02*
X1019895D01*
X1022434Y-286278D01*
Y-281199D01*
X1019895Y-278660D01*
X1014817D01*
X1012278Y-281199D01*
Y-286278D01*
X1014817Y-288817D01*
X1027513D02*
X1032591D01*
X1030052D01*
Y-273582D01*
X1027513D01*
X1047826Y-288817D02*
X1042748D01*
X1040209Y-286278D01*
Y-281199D01*
X1042748Y-278660D01*
X1047826D01*
X1050366Y-281199D01*
Y-283738D01*
X1040209D01*
X1070679Y-273582D02*
Y-288817D01*
X1080836D01*
X1093531D02*
X1088453D01*
X1085914Y-286278D01*
Y-281199D01*
X1088453Y-278660D01*
X1093531D01*
X1096071Y-281199D01*
Y-283738D01*
X1085914D01*
X1101149Y-288817D02*
Y-278660D01*
X1108767D01*
X1111306Y-281199D01*
Y-288817D01*
X1121462Y-293895D02*
X1124002D01*
X1126541Y-291356D01*
Y-278660D01*
X1118923D01*
X1116384Y-281199D01*
Y-286278D01*
X1118923Y-288817D01*
X1126541D01*
X1134158Y-276121D02*
Y-278660D01*
X1131619D01*
X1136697D01*
X1134158D01*
Y-286278D01*
X1136697Y-288817D01*
X1144315Y-273582D02*
Y-288817D01*
Y-281199D01*
X1146854Y-278660D01*
X1151933D01*
X1154472Y-281199D01*
Y-288817D01*
X997043Y-263423D02*
Y-248188D01*
X1004660D01*
X1007199Y-250728D01*
Y-255806D01*
X1004660Y-258345D01*
X997043D01*
X1002121D02*
X1007199Y-263423D01*
X1014817D02*
X1019895D01*
X1022434Y-260884D01*
Y-255806D01*
X1019895Y-253267D01*
X1014817D01*
X1012278Y-255806D01*
Y-260884D01*
X1014817Y-263423D01*
X1027513Y-253267D02*
Y-260884D01*
X1030052Y-263423D01*
X1037670D01*
Y-253267D01*
X1045287Y-250728D02*
Y-253267D01*
X1042748D01*
X1047826D01*
X1045287D01*
Y-260884D01*
X1047826Y-263423D01*
X1063061D02*
X1057983D01*
X1055444Y-260884D01*
Y-255806D01*
X1057983Y-253267D01*
X1063061D01*
X1065601Y-255806D01*
Y-258345D01*
X1055444D01*
X1080836Y-248188D02*
Y-263423D01*
X1073218D01*
X1070679Y-260884D01*
Y-255806D01*
X1073218Y-253267D01*
X1080836D01*
X1101149Y-263423D02*
Y-248188D01*
X1108767D01*
X1111306Y-250728D01*
Y-255806D01*
X1108767Y-258345D01*
X1101149D01*
X1118923Y-253267D02*
X1124002D01*
X1126541Y-255806D01*
Y-263423D01*
X1118923D01*
X1116384Y-260884D01*
X1118923Y-258345D01*
X1126541D01*
X1134158Y-250728D02*
Y-253267D01*
X1131619D01*
X1136697D01*
X1134158D01*
Y-260884D01*
X1136697Y-263423D01*
X1144315Y-248188D02*
Y-263423D01*
Y-255806D01*
X1146854Y-253267D01*
X1151933D01*
X1154472Y-255806D01*
Y-263423D01*
X1174785Y-248188D02*
Y-263423D01*
X1184942D01*
X1197638D02*
X1192560D01*
X1190020Y-260884D01*
Y-255806D01*
X1192560Y-253267D01*
X1197638D01*
X1200177Y-255806D01*
Y-258345D01*
X1190020D01*
X1205255Y-263423D02*
Y-253267D01*
X1212873D01*
X1215412Y-255806D01*
Y-263423D01*
X1225569Y-268502D02*
X1228108D01*
X1230647Y-265963D01*
Y-253267D01*
X1223030D01*
X1220490Y-255806D01*
Y-260884D01*
X1223030Y-263423D01*
X1230647D01*
X1238265Y-250728D02*
Y-253267D01*
X1235725D01*
X1240804D01*
X1238265D01*
Y-260884D01*
X1240804Y-263423D01*
X1248421Y-248188D02*
Y-263423D01*
Y-255806D01*
X1250961Y-253267D01*
X1256039D01*
X1258578Y-255806D01*
Y-263423D01*
X744896Y-250728D02*
X742357Y-248188D01*
X737279D01*
X734740Y-250728D01*
Y-253267D01*
X737279Y-255806D01*
X742357D01*
X744896Y-258345D01*
Y-260884D01*
X742357Y-263423D01*
X737279D01*
X734740Y-260884D01*
X749975Y-263423D02*
X755053D01*
X752514D01*
Y-248188D01*
X749975D01*
X765210Y-263423D02*
X770288D01*
X772827Y-260884D01*
Y-255806D01*
X770288Y-253267D01*
X765210D01*
X762671Y-255806D01*
Y-260884D01*
X765210Y-263423D01*
X780445Y-250728D02*
Y-253267D01*
X777906D01*
X782984D01*
X780445D01*
Y-260884D01*
X782984Y-263423D01*
X815993Y-248188D02*
Y-263423D01*
X808376D01*
X805837Y-260884D01*
Y-255806D01*
X808376Y-253267D01*
X815993D01*
X828689Y-263423D02*
X823611D01*
X821072Y-260884D01*
Y-255806D01*
X823611Y-253267D01*
X828689D01*
X831228Y-255806D01*
Y-258345D01*
X821072D01*
X838846Y-263423D02*
Y-250728D01*
Y-255806D01*
X836307D01*
X841385D01*
X838846D01*
Y-250728D01*
X841385Y-248188D01*
X849003Y-263423D02*
X854081D01*
X851542D01*
Y-253267D01*
X849003D01*
X861699Y-263423D02*
Y-253267D01*
X869316D01*
X871855Y-255806D01*
Y-263423D01*
X876934D02*
X882012D01*
X879473D01*
Y-253267D01*
X876934D01*
X892169Y-250728D02*
Y-253267D01*
X889630D01*
X894708D01*
X892169D01*
Y-260884D01*
X894708Y-263423D01*
X902325D02*
X907404D01*
X904865D01*
Y-253267D01*
X902325D01*
X917560Y-263423D02*
X922639D01*
X925178Y-260884D01*
Y-255806D01*
X922639Y-253267D01*
X917560D01*
X915021Y-255806D01*
Y-260884D01*
X917560Y-263423D01*
X930256D02*
Y-253267D01*
X937874D01*
X940413Y-255806D01*
Y-263423D01*
X945491D02*
X953109D01*
X955648Y-260884D01*
X953109Y-258345D01*
X948031D01*
X945491Y-255806D01*
X948031Y-253267D01*
X955648D01*
X975962D02*
X978501D01*
Y-255806D01*
X975962D01*
Y-253267D01*
Y-260884D02*
X978501D01*
Y-263423D01*
X975962D01*
Y-260884D01*
M02*
