G04*
G04 #@! TF.GenerationSoftware,Altium Limited,Altium Designer,20.1.12 (249)*
G04*
G04 Layer_Physical_Order=1*
G04 Layer_Color=255*
%FSLAX44Y44*%
%MOMM*%
G71*
G04*
G04 #@! TF.SameCoordinates,2C1882C9-CBDB-4859-8E7C-5A4850A28F2A*
G04*
G04*
G04 #@! TF.FilePolarity,Positive*
G04*
G01*
G75*
%ADD16R,1.4000X1.0000*%
%ADD17R,1.2300X1.7700*%
G04:AMPARAMS|DCode=18|XSize=1.97mm|YSize=0.41mm|CornerRadius=0.0205mm|HoleSize=0mm|Usage=FLASHONLY|Rotation=180.000|XOffset=0mm|YOffset=0mm|HoleType=Round|Shape=RoundedRectangle|*
%AMROUNDEDRECTD18*
21,1,1.9700,0.3690,0,0,180.0*
21,1,1.9290,0.4100,0,0,180.0*
1,1,0.0410,-0.9645,0.1845*
1,1,0.0410,0.9645,0.1845*
1,1,0.0410,0.9645,-0.1845*
1,1,0.0410,-0.9645,-0.1845*
%
%ADD18ROUNDEDRECTD18*%
%ADD19R,1.3700X1.9100*%
%ADD20R,1.9100X1.3700*%
%ADD21R,1.7700X1.2300*%
%ADD22R,0.4000X1.3500*%
%ADD23R,1.6000X1.4000*%
%ADD24R,2.3000X1.3000*%
%ADD25R,1.8000X1.9000*%
%ADD26R,0.7620X0.7620*%
%ADD51C,0.6000*%
%ADD52C,0.5000*%
%ADD53C,0.3000*%
%ADD54C,1.0000*%
%ADD55R,1.5700X1.5700*%
%ADD56C,1.5700*%
%ADD57C,1.3700*%
%ADD58R,1.3700X1.3700*%
%ADD59R,1.3700X1.3700*%
%ADD60O,2.2500X4.5000*%
%ADD61O,4.5000X2.2500*%
%ADD62O,5.0000X2.5000*%
%ADD63R,1.9500X1.9500*%
%ADD64C,1.9500*%
%ADD65C,1.8500*%
%ADD66R,1.8500X1.8500*%
G36*
X589879Y400879D02*
Y381750D01*
X564250D01*
Y354250D01*
X589879D01*
Y14121D01*
X14121D01*
X14121Y400879D01*
X589879Y400879D01*
D02*
G37*
%LPC*%
G36*
X517000Y270352D02*
X513907Y269945D01*
X511024Y268751D01*
X508549Y266852D01*
X506649Y264376D01*
X505455Y261493D01*
X505048Y258400D01*
X505455Y255306D01*
X506649Y252424D01*
X508549Y249949D01*
X511024Y248049D01*
X513907Y246855D01*
X517000Y246448D01*
X520093Y246855D01*
X522976Y248049D01*
X525452Y249949D01*
X527351Y252424D01*
X528545Y255306D01*
X528952Y258400D01*
X528545Y261493D01*
X527351Y264376D01*
X525452Y266852D01*
X522976Y268751D01*
X520093Y269945D01*
X517000Y270352D01*
D02*
G37*
G36*
X491600D02*
X488507Y269945D01*
X485624Y268751D01*
X483148Y266852D01*
X481249Y264376D01*
X480055Y261493D01*
X479648Y258400D01*
X480055Y255306D01*
X481249Y252424D01*
X483148Y249949D01*
X485624Y248049D01*
X488507Y246855D01*
X491600Y246448D01*
X494693Y246855D01*
X497576Y248049D01*
X500051Y249949D01*
X501951Y252424D01*
X503145Y255306D01*
X503552Y258400D01*
X503145Y261493D01*
X501951Y264376D01*
X500051Y266852D01*
X497576Y268751D01*
X494693Y269945D01*
X491600Y270352D01*
D02*
G37*
G36*
X257580Y396358D02*
X103910D01*
X102349Y396048D01*
X101026Y395164D01*
X100142Y393841D01*
X99832Y392280D01*
Y344026D01*
X99446Y343556D01*
X49000D01*
X47303Y343333D01*
X45722Y342678D01*
X44364Y341636D01*
X30364Y327636D01*
X29322Y326278D01*
X28667Y324697D01*
X28444Y323000D01*
Y207800D01*
X28667Y206103D01*
X29322Y204522D01*
X30364Y203164D01*
X39150Y194378D01*
Y181950D01*
X60850D01*
Y203650D01*
X48422D01*
X44862Y207210D01*
X45581Y208286D01*
X47168Y207629D01*
X50000Y207256D01*
X52832Y207629D01*
X55472Y208722D01*
X57738Y210462D01*
X59477Y212728D01*
X60571Y215368D01*
X60944Y218200D01*
X60571Y221032D01*
X59477Y223672D01*
X57738Y225938D01*
X55472Y227677D01*
X52832Y228771D01*
X50000Y229144D01*
X47168Y228771D01*
X44528Y227677D01*
X42826Y226371D01*
X41556Y226998D01*
Y234802D01*
X42826Y235429D01*
X44528Y234123D01*
X47168Y233029D01*
X50000Y232656D01*
X52832Y233029D01*
X55472Y234123D01*
X57738Y235862D01*
X59373Y237992D01*
X64077D01*
X67392Y234677D01*
Y213000D01*
X67819Y210854D01*
X69035Y209035D01*
X77510Y200560D01*
X79329Y199344D01*
X81475Y198917D01*
X126368D01*
Y196330D01*
X126694Y194689D01*
X127623Y193298D01*
X128776Y192528D01*
X128889Y191934D01*
Y191716D01*
X128776Y191122D01*
X127623Y190352D01*
X126694Y188961D01*
X126368Y187320D01*
Y183630D01*
X126632Y182300D01*
X126368Y180970D01*
Y177280D01*
X126632Y175950D01*
X126368Y174620D01*
Y172021D01*
X124279Y171606D01*
X122460Y170390D01*
X118035Y165965D01*
X116819Y164146D01*
X116392Y162000D01*
Y126000D01*
X116819Y123854D01*
X118035Y122035D01*
X134375Y105695D01*
X136194Y104479D01*
X138340Y104052D01*
X213150D01*
Y99510D01*
X238850D01*
X238850Y119810D01*
X240086Y119892D01*
X245914D01*
X247150Y119810D01*
X247150Y118622D01*
Y99510D01*
X272850D01*
Y104052D01*
X274809D01*
X275470Y103546D01*
X277173Y102840D01*
X279000Y102600D01*
X280827Y102840D01*
X282530Y103546D01*
X283992Y104668D01*
X285114Y106130D01*
X285820Y107833D01*
X286060Y109660D01*
X285820Y111487D01*
X285114Y113190D01*
X283992Y114652D01*
X282530Y115774D01*
X280827Y116480D01*
X279000Y116720D01*
X277173Y116480D01*
X275470Y115774D01*
X274809Y115268D01*
X272850D01*
X272850Y119810D01*
X274086Y119892D01*
X288108D01*
X295000Y113000D01*
Y67000D01*
X297590Y64410D01*
Y61900D01*
X315359D01*
X317582Y59677D01*
Y58608D01*
X317009Y57750D01*
X317007Y57740D01*
X309690D01*
Y36240D01*
X341190D01*
Y57740D01*
X333873D01*
X333871Y57750D01*
X333298Y58608D01*
Y59677D01*
X335521Y61900D01*
X353290D01*
Y64290D01*
X356000Y67000D01*
X356000Y107000D01*
X353290Y109710D01*
Y111520D01*
X351480D01*
X341784Y121216D01*
X342503Y122293D01*
X342651Y122232D01*
X345000Y121922D01*
X345000Y121922D01*
X386950D01*
X387180Y120173D01*
X387886Y118470D01*
X389008Y117008D01*
X390470Y115885D01*
X392173Y115180D01*
X394000Y114940D01*
X395827Y115180D01*
X397530Y115885D01*
X398992Y117008D01*
X400008D01*
X401470Y115885D01*
X403173Y115180D01*
X405000Y114940D01*
X406827Y115180D01*
X408530Y115885D01*
X409992Y117008D01*
X411115Y118470D01*
X411820Y120173D01*
X412060Y122000D01*
X411820Y123827D01*
X411115Y125530D01*
X410370Y126500D01*
X411115Y127470D01*
X411820Y129173D01*
X412060Y131000D01*
X411820Y132827D01*
X411115Y134530D01*
X410370Y135500D01*
X411115Y136470D01*
X411378Y137107D01*
X428716Y154444D01*
X456619D01*
X456886Y153174D01*
X454289Y151786D01*
X451776Y149724D01*
X449714Y147211D01*
X448182Y144345D01*
X447239Y141235D01*
X446920Y138000D01*
X447239Y134765D01*
X448182Y131655D01*
X449714Y128789D01*
X451776Y126276D01*
X454289Y124214D01*
X457155Y122682D01*
X460265Y121739D01*
X463500Y121420D01*
X488500D01*
X491735Y121739D01*
X494845Y122682D01*
X497711Y124214D01*
X500224Y126276D01*
X502286Y128789D01*
X503818Y131655D01*
X504761Y134765D01*
X505080Y138000D01*
X504761Y141235D01*
X503818Y144345D01*
X502286Y147211D01*
X500224Y149724D01*
X497711Y151786D01*
X495114Y153174D01*
X495381Y154444D01*
X537000D01*
X538697Y154667D01*
X540278Y155322D01*
X541636Y156364D01*
X547036Y161764D01*
X548078Y163122D01*
X548733Y164703D01*
X548956Y166400D01*
Y170199D01*
X555250D01*
Y190499D01*
X529550D01*
Y170199D01*
X535393D01*
X535657Y168929D01*
X534284Y167556D01*
X426000D01*
X424303Y167333D01*
X422722Y166678D01*
X421364Y165636D01*
X402107Y146378D01*
X401470Y146115D01*
X400008Y144992D01*
X398885Y143530D01*
X398180Y141827D01*
X398000Y140459D01*
X396842Y139565D01*
X396349Y139768D01*
X394000Y140078D01*
X376509D01*
X376025Y140803D01*
X375843Y141348D01*
X376060Y143000D01*
X375820Y144827D01*
X375115Y146530D01*
X373992Y147992D01*
X372530Y149115D01*
X370827Y149820D01*
X369000Y150060D01*
X367173Y149820D01*
X365470Y149115D01*
X364809Y148608D01*
X355357D01*
X354731Y149878D01*
X355418Y150773D01*
X356123Y152476D01*
X356364Y154303D01*
X356123Y156131D01*
X355418Y157833D01*
X354296Y159296D01*
X352834Y160418D01*
X351131Y161123D01*
X350305Y161232D01*
X345608Y165929D01*
Y168713D01*
X346878Y169340D01*
X347470Y168885D01*
X349173Y168180D01*
X351000Y167940D01*
X352827Y168180D01*
X354530Y168885D01*
X355191Y169392D01*
X476000D01*
X478146Y169819D01*
X479965Y171035D01*
X512992Y204061D01*
X529550D01*
Y199519D01*
X555250D01*
Y219819D01*
X548008D01*
Y222496D01*
X548376Y222649D01*
X550852Y224548D01*
X552751Y227024D01*
X553945Y229907D01*
X554352Y233000D01*
X553945Y236094D01*
X552751Y238976D01*
X550852Y241451D01*
X548376Y243351D01*
X545494Y244545D01*
X542400Y244952D01*
X539306Y244545D01*
X536424Y243351D01*
X533949Y241451D01*
X532049Y238976D01*
X530855Y236094D01*
X530448Y233000D01*
X530855Y229907D01*
X532049Y227024D01*
X533949Y224548D01*
X536424Y222649D01*
X536792Y222496D01*
Y219819D01*
X529550D01*
Y215277D01*
X510669D01*
X508523Y214850D01*
X506704Y213634D01*
X473677Y180608D01*
X355191D01*
X354530Y181115D01*
X352827Y181820D01*
X351000Y182060D01*
X350755Y182028D01*
X350162Y183231D01*
X351323Y184392D01*
X466000D01*
X468146Y184819D01*
X469965Y186035D01*
X495565Y211635D01*
X496781Y213454D01*
X497208Y215600D01*
Y222496D01*
X497576Y222649D01*
X500051Y224548D01*
X501951Y227024D01*
X503145Y229907D01*
X503552Y233000D01*
X503145Y236094D01*
X501951Y238976D01*
X500051Y241451D01*
X497576Y243351D01*
X494693Y244545D01*
X491600Y244952D01*
X488507Y244545D01*
X485624Y243351D01*
X483148Y241451D01*
X481249Y238976D01*
X480055Y236094D01*
X479648Y233000D01*
X480055Y229907D01*
X481249Y227024D01*
X483148Y224548D01*
X485624Y222649D01*
X485992Y222496D01*
Y217923D01*
X463677Y195608D01*
X349000D01*
X346854Y195181D01*
X345035Y193965D01*
X336035Y184965D01*
X334819Y183146D01*
X334392Y181000D01*
Y166198D01*
X333219Y165712D01*
X290440Y208490D01*
X288621Y209706D01*
X286475Y210133D01*
X286500Y211392D01*
X319677D01*
X329035Y202035D01*
X330854Y200819D01*
X333000Y200392D01*
X439706D01*
X441852Y200819D01*
X443671Y202035D01*
X457122Y215485D01*
X458337Y217305D01*
X458764Y219451D01*
Y222333D01*
X459903Y222895D01*
X460224Y222649D01*
X463106Y221455D01*
X466200Y221048D01*
X469294Y221455D01*
X472176Y222649D01*
X474651Y224548D01*
X476551Y227024D01*
X477745Y229907D01*
X478152Y233000D01*
X477745Y236094D01*
X476551Y238976D01*
X474651Y241451D01*
X472176Y243351D01*
X469294Y244545D01*
X466200Y244952D01*
X463106Y244545D01*
X460224Y243351D01*
X459903Y243105D01*
X458764Y243667D01*
Y246043D01*
X458406Y247843D01*
X459436Y248646D01*
X459442Y248649D01*
X460224Y248049D01*
X463106Y246855D01*
X466200Y246448D01*
X469294Y246855D01*
X472176Y248049D01*
X474651Y249949D01*
X476551Y252424D01*
X477745Y255306D01*
X478152Y258400D01*
X477745Y261493D01*
X476551Y264376D01*
X474651Y266852D01*
X472176Y268751D01*
X469294Y269945D01*
X466200Y270352D01*
X463106Y269945D01*
X460224Y268751D01*
X457748Y266852D01*
X455849Y264376D01*
X454655Y261493D01*
X454248Y258400D01*
X454655Y255306D01*
X455387Y253540D01*
X454310Y252820D01*
X452192Y254938D01*
X452345Y255306D01*
X452752Y258400D01*
X452345Y261493D01*
X451151Y264376D01*
X449252Y266852D01*
X446776Y268751D01*
X443894Y269945D01*
X440800Y270352D01*
X437706Y269945D01*
X434824Y268751D01*
X434747Y268692D01*
X433608Y269254D01*
Y279677D01*
X437323Y283392D01*
X480000D01*
X482146Y283819D01*
X483965Y285035D01*
X506965Y308035D01*
X508181Y309854D01*
X508608Y312000D01*
Y366000D01*
X508181Y368146D01*
X506965Y369965D01*
X485965Y390965D01*
X484146Y392181D01*
X482000Y392608D01*
X288000D01*
X285854Y392181D01*
X284035Y390965D01*
X262928Y369859D01*
X261658Y370385D01*
Y392280D01*
X261348Y393841D01*
X260464Y395164D01*
X259141Y396048D01*
X257580Y396358D01*
D02*
G37*
G36*
X517000Y244952D02*
X513907Y244545D01*
X511024Y243351D01*
X508549Y241451D01*
X506649Y238976D01*
X505455Y236094D01*
X505048Y233000D01*
X505455Y229907D01*
X506649Y227024D01*
X508549Y224548D01*
X511024Y222649D01*
X513907Y221455D01*
X517000Y221048D01*
X520093Y221455D01*
X522976Y222649D01*
X525452Y224548D01*
X527351Y227024D01*
X528545Y229907D01*
X528952Y233000D01*
X528545Y236094D01*
X527351Y238976D01*
X525452Y241451D01*
X522976Y243351D01*
X520093Y244545D01*
X517000Y244952D01*
D02*
G37*
G36*
X422000Y92060D02*
X420173Y91820D01*
X418470Y91115D01*
X417007Y89993D01*
X415886Y88530D01*
X415180Y86827D01*
X414940Y85000D01*
X415180Y83173D01*
X415886Y81470D01*
X417007Y80008D01*
X418470Y78885D01*
X420173Y78180D01*
X422000Y77940D01*
X423827Y78180D01*
X425530Y78885D01*
X426992Y80008D01*
X428115Y81470D01*
X428820Y83173D01*
X429060Y85000D01*
X428820Y86827D01*
X428115Y88530D01*
X426992Y89993D01*
X425530Y91115D01*
X423827Y91820D01*
X422000Y92060D01*
D02*
G37*
G36*
X398000D02*
X396173Y91820D01*
X394470Y91115D01*
X393008Y89993D01*
X391885Y88530D01*
X391180Y86827D01*
X390940Y85000D01*
X391180Y83173D01*
X391885Y81470D01*
X393008Y80008D01*
X394470Y78885D01*
X396173Y78180D01*
X398000Y77940D01*
X399827Y78180D01*
X401530Y78885D01*
X402992Y80008D01*
X404114Y81470D01*
X404820Y83173D01*
X405060Y85000D01*
X404820Y86827D01*
X404114Y88530D01*
X402992Y89993D01*
X401530Y91115D01*
X399827Y91820D01*
X398000Y92060D01*
D02*
G37*
G36*
X568850Y96150D02*
X543150D01*
Y75850D01*
X550392D01*
Y52795D01*
X548190D01*
Y37571D01*
X474701D01*
X456636Y55636D01*
X455278Y56678D01*
X453697Y57333D01*
X452000Y57556D01*
X424464D01*
X423827Y57820D01*
X422000Y58060D01*
X420173Y57820D01*
X419536Y57556D01*
X400464D01*
X399827Y57820D01*
X398000Y58060D01*
X396173Y57820D01*
X394470Y57115D01*
X393008Y55992D01*
X391885Y54530D01*
X391180Y52827D01*
X390940Y51000D01*
X391180Y49173D01*
X391885Y47470D01*
X393008Y46008D01*
X394470Y44886D01*
X396173Y44180D01*
X398000Y43940D01*
X399827Y44180D01*
X400464Y44444D01*
X419536D01*
X420173Y44180D01*
X422000Y43940D01*
X423827Y44180D01*
X424464Y44444D01*
X449284D01*
X467349Y26379D01*
X468707Y25337D01*
X470288Y24682D01*
X471985Y24459D01*
X548190D01*
Y23205D01*
X563810D01*
Y37175D01*
Y52795D01*
X561608D01*
Y75850D01*
X568850D01*
Y96150D01*
D02*
G37*
G36*
X272850Y90490D02*
X247150D01*
Y70190D01*
X254392D01*
Y51810D01*
X252190D01*
Y35638D01*
X247191D01*
X246530Y36144D01*
X244827Y36850D01*
X243000Y37090D01*
X241173Y36850D01*
X239470Y36144D01*
X238809Y35638D01*
X233810D01*
Y51810D01*
X231608D01*
Y70190D01*
X238850D01*
Y90490D01*
X213150D01*
Y70190D01*
X220392D01*
Y51810D01*
X218190D01*
Y36190D01*
Y22220D01*
X233810D01*
Y24422D01*
X238809D01*
X239470Y23916D01*
X241173Y23210D01*
X243000Y22970D01*
X244827Y23210D01*
X246530Y23916D01*
X247191Y24422D01*
X252190D01*
Y22220D01*
X267810D01*
Y36190D01*
Y51810D01*
X265608D01*
Y70190D01*
X272850D01*
Y90490D01*
D02*
G37*
G36*
X76050Y52850D02*
X54350D01*
Y31150D01*
X76050D01*
Y52850D01*
D02*
G37*
G36*
X192200Y52944D02*
X189368Y52571D01*
X186728Y51477D01*
X184462Y49738D01*
X182722Y47472D01*
X181629Y44832D01*
X181256Y42000D01*
X181629Y39168D01*
X182722Y36528D01*
X184462Y34262D01*
X186728Y32522D01*
X189368Y31429D01*
X192200Y31056D01*
X195032Y31429D01*
X197672Y32522D01*
X199938Y34262D01*
X201677Y36528D01*
X202771Y39168D01*
X203144Y42000D01*
X202771Y44832D01*
X201677Y47472D01*
X199938Y49738D01*
X197672Y51477D01*
X195032Y52571D01*
X192200Y52944D01*
D02*
G37*
G36*
X166800D02*
X163968Y52571D01*
X161328Y51477D01*
X159062Y49738D01*
X157323Y47472D01*
X156229Y44832D01*
X155856Y42000D01*
X156229Y39168D01*
X157323Y36528D01*
X159062Y34262D01*
X161328Y32522D01*
X163968Y31429D01*
X166800Y31056D01*
X169632Y31429D01*
X172272Y32522D01*
X174538Y34262D01*
X176277Y36528D01*
X177371Y39168D01*
X177744Y42000D01*
X177371Y44832D01*
X176277Y47472D01*
X174538Y49738D01*
X172272Y51477D01*
X169632Y52571D01*
X166800Y52944D01*
D02*
G37*
G36*
X141400D02*
X138568Y52571D01*
X135928Y51477D01*
X133662Y49738D01*
X131923Y47472D01*
X130829Y44832D01*
X130456Y42000D01*
X130829Y39168D01*
X131923Y36528D01*
X133662Y34262D01*
X135928Y32522D01*
X138568Y31429D01*
X141400Y31056D01*
X144232Y31429D01*
X146872Y32522D01*
X149138Y34262D01*
X150877Y36528D01*
X151971Y39168D01*
X152344Y42000D01*
X151971Y44832D01*
X150877Y47472D01*
X149138Y49738D01*
X146872Y51477D01*
X144232Y52571D01*
X141400Y52944D01*
D02*
G37*
G36*
X116000D02*
X113168Y52571D01*
X110528Y51477D01*
X108262Y49738D01*
X106523Y47472D01*
X105429Y44832D01*
X105056Y42000D01*
X105429Y39168D01*
X106523Y36528D01*
X108262Y34262D01*
X110528Y32522D01*
X113168Y31429D01*
X116000Y31056D01*
X118832Y31429D01*
X121472Y32522D01*
X123738Y34262D01*
X125477Y36528D01*
X126571Y39168D01*
X126944Y42000D01*
X126571Y44832D01*
X125477Y47472D01*
X123738Y49738D01*
X121472Y51477D01*
X118832Y52571D01*
X116000Y52944D01*
D02*
G37*
%LPD*%
G36*
X375626Y317918D02*
X377750Y315150D01*
X380518Y313026D01*
X383741Y311691D01*
X383938Y311665D01*
X384394Y310324D01*
X373035Y298965D01*
X371819Y297146D01*
X371392Y295000D01*
Y269594D01*
X370122Y268939D01*
X367693Y269945D01*
X364600Y270352D01*
X361507Y269945D01*
X361138Y269792D01*
X342008Y288923D01*
Y312581D01*
X343082Y313026D01*
X345850Y315150D01*
X347974Y317918D01*
X348465Y319104D01*
X349735D01*
X350226Y317918D01*
X352350Y315150D01*
X355118Y313026D01*
X358341Y311691D01*
X361800Y311236D01*
X365259Y311691D01*
X368482Y313026D01*
X371250Y315150D01*
X373374Y317918D01*
X373865Y319104D01*
X375135D01*
X375626Y317918D01*
D02*
G37*
G36*
X231383Y329174D02*
X223057Y320847D01*
X222849Y320820D01*
X221146Y320115D01*
X220486Y319608D01*
X87000D01*
X84854Y319181D01*
X83035Y317965D01*
X65077Y300008D01*
X59373D01*
X57738Y302138D01*
X55472Y303877D01*
X52832Y304971D01*
X50000Y305344D01*
X47168Y304971D01*
X44528Y303877D01*
X42826Y302571D01*
X41556Y303198D01*
Y320284D01*
X51716Y330444D01*
X230857D01*
X231383Y329174D01*
D02*
G37*
G36*
X250444Y323284D02*
Y245000D01*
X250667Y243303D01*
X251322Y241722D01*
X252364Y240364D01*
X256684Y236044D01*
X258042Y235002D01*
X259623Y234347D01*
X261320Y234124D01*
X263150D01*
Y230530D01*
X288850D01*
Y250830D01*
X263556D01*
Y259850D01*
X288850D01*
Y280150D01*
X281608D01*
Y284739D01*
X282115Y285400D01*
X282820Y287103D01*
X283060Y288930D01*
X282820Y290757D01*
X282115Y292460D01*
X280993Y293922D01*
X279530Y295044D01*
X277827Y295750D01*
X276000Y295990D01*
X274173Y295750D01*
X272470Y295044D01*
X271008Y293922D01*
X269886Y292460D01*
X269180Y290757D01*
X268940Y288930D01*
X269180Y287103D01*
X269886Y285400D01*
X270392Y284739D01*
Y280150D01*
X263556D01*
Y321854D01*
X264729Y322340D01*
X266435Y320635D01*
X268254Y319419D01*
X270400Y318992D01*
X272350D01*
Y311350D01*
X298850D01*
Y316583D01*
X300120Y317014D01*
X301550Y315150D01*
X304318Y313026D01*
X305392Y312581D01*
Y256000D01*
X305819Y253854D01*
X307035Y252035D01*
X346035Y213035D01*
X346270Y212878D01*
X345884Y211608D01*
X335323D01*
X325965Y220965D01*
X324146Y222181D01*
X322000Y222608D01*
X216191D01*
X215530Y223114D01*
X213827Y223820D01*
X212000Y224060D01*
X210173Y223820D01*
X208470Y223114D01*
X207008Y221992D01*
X205886Y220530D01*
X205180Y218827D01*
X204940Y217000D01*
X205180Y215173D01*
X205886Y213470D01*
X207008Y212008D01*
X207796Y211403D01*
X207365Y210133D01*
X203632D01*
Y212720D01*
X203368Y214050D01*
X203632Y215380D01*
Y219070D01*
X203368Y220400D01*
X203632Y221730D01*
Y225420D01*
X203306Y227061D01*
X202377Y228452D01*
X200986Y229381D01*
X199345Y229707D01*
X195308D01*
Y249809D01*
X195814Y250470D01*
X196520Y252173D01*
X196760Y254000D01*
X196520Y255827D01*
X195814Y257530D01*
X194692Y258992D01*
X193230Y260114D01*
X191527Y260820D01*
X189700Y261060D01*
X187873Y260820D01*
X186170Y260114D01*
X184708Y258992D01*
X183585Y257530D01*
X182880Y255827D01*
X182640Y254000D01*
X182880Y252173D01*
X183585Y250470D01*
X184092Y249809D01*
Y229707D01*
X180055D01*
X178414Y229381D01*
X177023Y228452D01*
X176308Y227381D01*
X175112Y227877D01*
X175268Y228660D01*
Y254150D01*
X179810D01*
Y261392D01*
X184678D01*
X186824Y261819D01*
X188643Y263035D01*
X190503Y264894D01*
X191676Y264408D01*
Y263176D01*
X213676D01*
Y271406D01*
X213676Y272676D01*
X235676D01*
Y290676D01*
X230284D01*
Y309809D01*
X230791Y310470D01*
X231496Y312173D01*
X231686Y313615D01*
X240072Y322001D01*
X240897Y322110D01*
X242600Y322816D01*
X244062Y323938D01*
X245184Y325400D01*
X245579Y326353D01*
X247063Y326665D01*
X250444Y323284D01*
D02*
G37*
G36*
X324826Y317918D02*
X326950Y315150D01*
X329718Y313026D01*
X330792Y312581D01*
Y286600D01*
X331219Y284454D01*
X332435Y282635D01*
X353208Y261862D01*
X353055Y261493D01*
X352648Y258400D01*
X353055Y255306D01*
X354249Y252424D01*
X356148Y249949D01*
X358624Y248049D01*
X361507Y246855D01*
X364600Y246448D01*
X367693Y246855D01*
X370122Y247861D01*
X371392Y247206D01*
Y246000D01*
X371426Y245832D01*
X370620Y244850D01*
X352750D01*
Y223977D01*
X351480Y223451D01*
X316608Y258323D01*
Y312581D01*
X317682Y313026D01*
X320450Y315150D01*
X322574Y317918D01*
X323065Y319104D01*
X324335D01*
X324826Y317918D01*
D02*
G37*
G36*
X321819Y161251D02*
X321333Y160078D01*
X300556D01*
Y168536D01*
X300820Y169173D01*
X301060Y171000D01*
X300820Y172827D01*
X300114Y174530D01*
X298992Y175992D01*
X297530Y177115D01*
X295827Y177820D01*
X294000Y178060D01*
X292173Y177820D01*
X290470Y177115D01*
X289008Y175992D01*
X287885Y174530D01*
X287180Y172827D01*
X286940Y171000D01*
X287180Y169173D01*
X287444Y168536D01*
Y160078D01*
X240640D01*
Y184550D01*
X236346D01*
Y186210D01*
X236123Y187907D01*
X235468Y189488D01*
X234426Y190846D01*
X233068Y191888D01*
X231487Y192543D01*
X231373Y192558D01*
X228140Y195790D01*
X226321Y197006D01*
X224175Y197433D01*
X202470D01*
X202001Y198231D01*
X202470Y198917D01*
X284152D01*
X321819Y161251D01*
D02*
G37*
D16*
X202676Y291176D02*
D03*
Y272176D02*
D03*
X224676Y281676D02*
D03*
X83000Y282000D02*
D03*
X105000Y291500D02*
D03*
Y272500D02*
D03*
D17*
X168660Y296000D02*
D03*
X139340D02*
D03*
X140340Y267000D02*
D03*
X169660D02*
D03*
D18*
X189700Y223575D02*
D03*
Y217225D02*
D03*
Y210875D02*
D03*
Y204525D02*
D03*
Y198175D02*
D03*
Y191825D02*
D03*
Y185475D02*
D03*
Y179125D02*
D03*
Y172775D02*
D03*
Y166425D02*
D03*
X140300D02*
D03*
Y172775D02*
D03*
Y179125D02*
D03*
Y185475D02*
D03*
Y191825D02*
D03*
Y198175D02*
D03*
Y204525D02*
D03*
Y210875D02*
D03*
Y217225D02*
D03*
Y223575D02*
D03*
D19*
X258210Y171000D02*
D03*
X229790D02*
D03*
D20*
X95000Y218210D02*
D03*
Y189790D02*
D03*
D21*
X260000Y80340D02*
D03*
Y109660D02*
D03*
X226000D02*
D03*
Y80340D02*
D03*
X340440Y72050D02*
D03*
Y101370D02*
D03*
X310440Y72050D02*
D03*
Y101370D02*
D03*
X542400Y209669D02*
D03*
Y180349D02*
D03*
X556000Y115320D02*
D03*
Y86000D02*
D03*
X276000Y270000D02*
D03*
Y240680D02*
D03*
D22*
X315690Y46990D02*
D03*
X322190D02*
D03*
X328690D02*
D03*
X335190D02*
D03*
X341690D02*
D03*
D23*
X296690Y44740D02*
D03*
X360690D02*
D03*
D24*
X366190Y20240D02*
D03*
X291190D02*
D03*
D25*
X317190D02*
D03*
X340190D02*
D03*
D26*
X226000Y44000D02*
D03*
Y30030D02*
D03*
X260000Y44000D02*
D03*
Y30030D02*
D03*
X556000Y31015D02*
D03*
Y44985D02*
D03*
D51*
X224676Y314000D02*
D03*
X83000Y269000D02*
D03*
X405000Y131000D02*
D03*
X239070Y328930D02*
D03*
X126230Y248930D02*
D03*
X351000Y175000D02*
D03*
X212000Y217000D02*
D03*
X276000Y288930D02*
D03*
X122650Y188930D02*
D03*
X189700Y254000D02*
D03*
X107650Y176420D02*
D03*
X349303Y154303D02*
D03*
X366000Y272000D02*
D03*
X294000Y171000D02*
D03*
X148000Y65000D02*
D03*
X334000Y189000D02*
D03*
X375000Y114000D02*
D03*
X528000Y199000D02*
D03*
Y187000D02*
D03*
X477000Y107000D02*
D03*
X507000Y52000D02*
D03*
X477000D02*
D03*
X296000Y306000D02*
D03*
X362000D02*
D03*
X585000Y101000D02*
D03*
X552000Y286000D02*
D03*
Y313000D02*
D03*
Y339000D02*
D03*
X528000Y286000D02*
D03*
Y313000D02*
D03*
Y339000D02*
D03*
X340000Y245000D02*
D03*
Y266000D02*
D03*
X585000Y128000D02*
D03*
X130000Y65000D02*
D03*
X110000Y60000D02*
D03*
X108000Y155000D02*
D03*
X76000Y98000D02*
D03*
X38000Y155000D02*
D03*
X76210Y119790D02*
D03*
Y154790D02*
D03*
X20000Y255000D02*
D03*
Y290000D02*
D03*
Y325000D02*
D03*
X80000Y360000D02*
D03*
X50000D02*
D03*
X20000D02*
D03*
X80000Y395000D02*
D03*
X50000D02*
D03*
X20000D02*
D03*
X280000Y86000D02*
D03*
X346000Y59000D02*
D03*
X305000D02*
D03*
X363000Y89000D02*
D03*
Y114000D02*
D03*
X288000Y101000D02*
D03*
X213000Y16000D02*
D03*
X243000D02*
D03*
X268000D02*
D03*
X297000Y32000D02*
D03*
X285000D02*
D03*
X383000Y53000D02*
D03*
X372000D02*
D03*
X360000Y32000D02*
D03*
X350000Y35000D02*
D03*
X556000Y128000D02*
D03*
X279000Y109660D02*
D03*
X369000Y143000D02*
D03*
X243000Y30030D02*
D03*
X422000Y51000D02*
D03*
X398000D02*
D03*
X422000Y85000D02*
D03*
X398000D02*
D03*
X394000Y122000D02*
D03*
Y131000D02*
D03*
X405000Y122000D02*
D03*
Y140000D02*
D03*
X242070Y65000D02*
D03*
X276000Y171000D02*
D03*
X76280Y189790D02*
D03*
D52*
X422000Y51000D02*
X452000D01*
X398000D02*
X422000D01*
X246000Y337000D02*
X257000Y326000D01*
X49000Y337000D02*
X246000D01*
X35000Y323000D02*
X49000Y337000D01*
X362000Y275429D02*
Y306000D01*
X365729Y272000D02*
X366000D01*
X365229Y272500D02*
X365729Y272000D01*
X364929Y272500D02*
X365229D01*
X362000Y275429D02*
X364929Y272500D01*
X261320Y240680D02*
X276000D01*
X257000Y245000D02*
X261320Y240680D01*
X257000Y245000D02*
Y326000D01*
X35000Y207800D02*
Y323000D01*
Y207800D02*
X50000Y192800D01*
X229790Y151790D02*
Y171000D01*
Y186210D01*
X537000Y161000D02*
X542400Y166400D01*
Y180349D01*
X426000Y161000D02*
X537000D01*
X405000Y140000D02*
X426000Y161000D01*
X471985Y31015D02*
X556000D01*
X452000Y51000D02*
X471985Y31015D01*
X556000Y115320D02*
Y128000D01*
X76280Y189790D02*
X95000D01*
X76210D02*
X76280D01*
X294000Y151000D02*
Y171000D01*
X163929Y185475D02*
X173104D01*
X155525Y210225D02*
X161000Y204750D01*
Y188404D02*
Y204750D01*
Y188404D02*
X163929Y185475D01*
D53*
X224676Y314536D02*
X239070Y328930D01*
X290000Y59000D02*
X305000D01*
X280000Y69000D02*
Y86000D01*
Y69000D02*
X290000Y59000D01*
X272000Y94000D02*
X280000Y86000D01*
X177000Y94000D02*
X272000D01*
X148000Y65000D02*
X177000Y94000D01*
X266000Y329000D02*
X270400Y324600D01*
X266000Y329000D02*
Y365000D01*
X288000Y387000D01*
X224175Y191825D02*
X229790Y186210D01*
X276000Y171000D02*
Y186000D01*
X189700Y198175D02*
X263825D01*
X276000Y186000D01*
X189700Y204525D02*
X286475D01*
X348000Y143000D01*
X369000D01*
X189700Y191825D02*
X224175D01*
X83000Y269000D02*
Y282000D01*
Y255000D02*
Y269000D01*
X83000D01*
X50000D02*
X83000D01*
X327690Y62000D02*
Y62000D01*
Y56604D02*
Y62000D01*
X243000Y30030D02*
X260000D01*
X226000D02*
X243000D01*
X340000Y163607D02*
Y181000D01*
X349000Y190000D02*
X466000D01*
X340000Y181000D02*
X349000Y190000D01*
X340000Y163607D02*
X349303Y154303D01*
X466000Y190000D02*
X491600Y215600D01*
Y233000D01*
X351000Y175000D02*
X476000D01*
X510669Y209669D02*
X542400D01*
X476000Y175000D02*
X510669Y209669D01*
X542400D02*
Y233000D01*
X276000Y271000D02*
Y288930D01*
X260000Y44000D02*
Y80340D01*
X226000Y44000D02*
Y80340D01*
X260000Y109660D02*
X279000D01*
X258210Y171000D02*
X276000D01*
X138340Y109660D02*
X226000D01*
X122000Y126000D02*
X138340Y109660D01*
X122000Y162000D02*
X126425Y166425D01*
X122000Y126000D02*
Y162000D01*
X126425Y166425D02*
X140300D01*
X174136Y125500D02*
X184257D01*
X163500Y136136D02*
Y164864D01*
X176000Y130000D02*
X320364D01*
X168000Y138000D02*
Y163000D01*
Y138000D02*
X176000Y130000D01*
X163500Y136136D02*
X174136Y125500D01*
X184257D02*
X184257Y125500D01*
X318500D01*
X320364Y130000D02*
X327690Y122674D01*
X318500Y125500D02*
X323190Y120810D01*
X313140Y72050D02*
X323190Y62000D01*
X327690Y62000D02*
X337740Y72050D01*
X313140Y101370D02*
X323190Y111420D01*
X327690Y111420D02*
X337740Y101370D01*
X323190Y111420D02*
Y120810D01*
X327690Y111420D02*
Y122674D01*
X440800Y258400D02*
X453157Y246043D01*
Y219451D02*
Y246043D01*
X439706Y206000D02*
X453157Y219451D01*
X333000Y206000D02*
X439706D01*
X322000Y217000D02*
X333000Y206000D01*
X212000Y217000D02*
X322000D01*
X435000Y289000D02*
X480000D01*
X428000Y245600D02*
Y282000D01*
X435000Y289000D01*
X377000Y295000D02*
X389000Y307000D01*
X470000D01*
X377000Y246000D02*
Y295000D01*
X503000Y312000D02*
Y366000D01*
X480000Y289000D02*
X503000Y312000D01*
X424000Y298000D02*
X474000D01*
X415400Y258400D02*
Y289400D01*
X424000Y298000D01*
X492000Y316000D02*
Y359000D01*
X474000Y298000D02*
X492000Y316000D01*
X470000Y307000D02*
X482000Y319000D01*
Y354000D01*
X415400Y233000D02*
X428000Y245600D01*
X482000Y387000D02*
X503000Y366000D01*
X288000Y387000D02*
X482000D01*
X270400Y324600D02*
X285600D01*
X474000Y377000D02*
X492000Y359000D01*
X285600Y350000D02*
X312600Y377000D01*
X474000D01*
X377000Y246000D02*
X390000Y233000D01*
X468000Y368000D02*
X482000Y354000D01*
X354400Y368000D02*
X468000D01*
X336400Y350000D02*
X354400Y368000D01*
X424800Y217000D02*
X440800Y233000D01*
X350000Y217000D02*
X424800D01*
X311000Y256000D02*
X350000Y217000D01*
X311000Y256000D02*
Y324600D01*
X336400Y286600D02*
Y324600D01*
Y286600D02*
X364600Y258400D01*
X556000Y44985D02*
Y86000D01*
X120125Y210875D02*
X140300D01*
X95000Y218210D02*
X112790D01*
X120125Y210875D01*
X66400Y243600D02*
X73000Y237000D01*
Y213000D02*
X81475Y204525D01*
X73000Y213000D02*
Y237000D01*
X89070Y248930D02*
X126230D01*
X125950Y191825D02*
X140300D01*
X123055Y188930D02*
X125950Y191825D01*
X122650Y188930D02*
X123055D01*
X50000Y243600D02*
X66400D01*
X81475Y204525D02*
X140300D01*
X83000Y255000D02*
X89070Y248930D01*
X189700Y223575D02*
Y254000D01*
X140300Y223575D02*
X153243D01*
X155000Y225332D01*
Y291000D01*
X50000Y294400D02*
X67400D01*
X87000Y314000D01*
X224676D01*
Y281676D02*
Y314536D01*
X169660Y228660D02*
Y267000D01*
X140300Y210875D02*
X154225D01*
X154875Y210225D01*
X140300Y217225D02*
X158225D01*
X169660Y228660D01*
X139016Y296324D02*
X149676D01*
X155000Y291000D01*
X184678Y267000D02*
X190178Y272500D01*
X169660Y267000D02*
X184678D01*
X190178Y272500D02*
X205000D01*
X105000D02*
X119822D01*
X125322Y267000D02*
X140340D01*
X119822Y272500D02*
X125322Y267000D01*
X182651Y296324D02*
X187798Y291176D01*
X168984Y296324D02*
X182651D01*
X187798Y291176D02*
X202676D01*
X105000Y291500D02*
X119878D01*
X125026Y296647D02*
X138693D01*
X119878Y291500D02*
X125026Y296647D01*
X138693D02*
X139340Y296000D01*
X173104Y180896D02*
X174875Y179125D01*
X189700D01*
X173104Y180896D02*
Y185475D01*
X189700D01*
X189150Y166975D02*
X189700Y166425D01*
X180250Y166975D02*
X189150D01*
X179875Y167350D02*
X180250Y166975D01*
X172350Y167350D02*
X179875D01*
X189150Y172225D02*
X189700Y172775D01*
X180250Y172225D02*
X189150D01*
X179875Y171850D02*
X180250Y172225D01*
X170486Y171850D02*
X179875D01*
X168000Y163000D02*
X172350Y167350D01*
X163500Y164864D02*
X170486Y171850D01*
X327690Y56604D02*
X328690Y55604D01*
X322190Y46990D02*
Y55604D01*
X328690Y46990D02*
Y55604D01*
X323190Y56604D02*
Y62000D01*
X322190Y55604D02*
X323190Y56604D01*
D54*
X294000Y151000D02*
X325000D01*
X345000Y131000D01*
X394000D01*
X229790Y151790D02*
X230580Y151000D01*
X294000D01*
D55*
X364600Y233000D02*
D03*
D56*
Y258400D02*
D03*
X390000Y233000D02*
D03*
Y258400D02*
D03*
X415400Y233000D02*
D03*
Y258400D02*
D03*
X440800Y233000D02*
D03*
Y258400D02*
D03*
X466200Y233000D02*
D03*
Y258400D02*
D03*
X491600Y233000D02*
D03*
Y258400D02*
D03*
X517000Y233000D02*
D03*
Y258400D02*
D03*
X542400Y233000D02*
D03*
Y258400D02*
D03*
D57*
X50000Y319800D02*
D03*
Y294400D02*
D03*
Y269000D02*
D03*
Y243600D02*
D03*
Y218200D02*
D03*
X192200Y42000D02*
D03*
X166800D02*
D03*
X141400D02*
D03*
X116000D02*
D03*
X90600D02*
D03*
D58*
X50000Y192800D02*
D03*
D59*
X65200Y42000D02*
D03*
D60*
X523000Y108000D02*
D03*
D61*
X476000Y78000D02*
D03*
D62*
Y138000D02*
D03*
D63*
X578000Y368000D02*
D03*
D64*
X528000D02*
D03*
D65*
X463400Y350000D02*
D03*
Y324600D02*
D03*
X438000Y350000D02*
D03*
Y324600D02*
D03*
X412600Y350000D02*
D03*
Y324600D02*
D03*
X387200Y350000D02*
D03*
Y324600D02*
D03*
X361800Y350000D02*
D03*
Y324600D02*
D03*
X336400Y350000D02*
D03*
Y324600D02*
D03*
X311000Y350000D02*
D03*
Y324600D02*
D03*
X285600Y350000D02*
D03*
D66*
Y324600D02*
D03*
M02*
