G04*
G04 #@! TF.GenerationSoftware,Altium Limited,Altium Designer,20.1.12 (249)*
G04*
G04 Layer_Physical_Order=2*
G04 Layer_Color=16711680*
%FSLAX44Y44*%
%MOMM*%
G71*
G04*
G04 #@! TF.SameCoordinates,2C1882C9-CBDB-4859-8E7C-5A4850A28F2A*
G04*
G04*
G04 #@! TF.FilePolarity,Positive*
G04*
G01*
G75*
%ADD19R,1.3700X1.9100*%
%ADD20R,1.9100X1.3700*%
%ADD21R,1.7700X1.2300*%
%ADD51C,0.6000*%
%ADD52C,0.5000*%
%ADD53C,0.3000*%
%ADD54C,1.0000*%
%ADD55R,1.5700X1.5700*%
%ADD56C,1.5700*%
%ADD57C,1.3700*%
%ADD58R,1.3700X1.3700*%
%ADD59R,1.3700X1.3700*%
%ADD60O,2.2500X4.5000*%
%ADD61O,4.5000X2.2500*%
%ADD62O,5.0000X2.5000*%
%ADD63R,1.9500X1.9500*%
%ADD64C,1.9500*%
%ADD65C,1.8500*%
%ADD66R,1.8500X1.8500*%
%ADD67R,2.0000X1.2000*%
%ADD68R,3.2500X2.1500*%
%ADD69R,0.9500X2.1500*%
G36*
X589879Y400879D02*
Y392966D01*
X589785Y392779D01*
X588609Y391957D01*
X588000Y392078D01*
X588000Y392078D01*
X568000D01*
X568000Y392078D01*
X566439Y391768D01*
X565116Y390884D01*
X565116Y390884D01*
X558116Y383884D01*
X557232Y382561D01*
X556922Y381000D01*
X556922Y381000D01*
Y186689D01*
X554666Y184434D01*
X554590Y184320D01*
X554476Y184244D01*
X554476Y184244D01*
X549311Y179078D01*
X425000D01*
X425000Y179078D01*
X423439Y178768D01*
X422116Y177884D01*
X418898Y174666D01*
X417115Y174653D01*
X413884Y177884D01*
X412561Y178768D01*
X411000Y179078D01*
X411000Y179078D01*
X400000D01*
X399777Y179034D01*
X399550Y179053D01*
X399002Y178880D01*
X398439Y178768D01*
X398250Y178641D01*
X398033Y178573D01*
X397594Y178203D01*
X397116Y177884D01*
X396990Y177694D01*
X396815Y177548D01*
X392815Y172548D01*
X392551Y172038D01*
X392232Y171561D01*
X392188Y171337D01*
X392083Y171135D01*
X392034Y170563D01*
X391922Y170000D01*
Y144689D01*
X380116Y132884D01*
X380116Y132884D01*
X379232Y131561D01*
X378922Y130000D01*
X378922Y130000D01*
Y111078D01*
X338922D01*
X336781Y113219D01*
X337267Y114392D01*
X346000D01*
X348146Y114819D01*
X349965Y116035D01*
X370002Y136072D01*
X370827Y136180D01*
X372530Y136885D01*
X373992Y138007D01*
X375115Y139470D01*
X375820Y141173D01*
X376060Y143000D01*
X375820Y144827D01*
X375115Y146530D01*
X373992Y147992D01*
X372530Y149115D01*
X371759Y149434D01*
X371181Y150854D01*
X371608Y153000D01*
Y180677D01*
X381323Y190392D01*
X453000Y190392D01*
X455146Y190819D01*
X456965Y192035D01*
X470165Y205235D01*
X471381Y207054D01*
X471808Y209200D01*
Y222496D01*
X472176Y222649D01*
X474651Y224548D01*
X476551Y227024D01*
X477745Y229907D01*
X478152Y233000D01*
X477745Y236094D01*
X476551Y238976D01*
X474651Y241451D01*
X472176Y243351D01*
X469294Y244545D01*
X466200Y244952D01*
X463106Y244545D01*
X461340Y243813D01*
X460620Y244890D01*
X462738Y247008D01*
X463106Y246855D01*
X466200Y246448D01*
X469294Y246855D01*
X472176Y248049D01*
X474651Y249949D01*
X476551Y252424D01*
X477745Y255306D01*
X478152Y258400D01*
X477745Y261493D01*
X476551Y264376D01*
X474651Y266852D01*
X472176Y268751D01*
X469294Y269945D01*
X466200Y270352D01*
X463106Y269945D01*
X460224Y268751D01*
X457748Y266852D01*
X455849Y264376D01*
X454655Y261493D01*
X454248Y258400D01*
X454655Y255306D01*
X454808Y254938D01*
X452690Y252820D01*
X451613Y253540D01*
X452345Y255306D01*
X452752Y258400D01*
X452345Y261493D01*
X451151Y264376D01*
X449252Y266852D01*
X446776Y268751D01*
X443894Y269945D01*
X440800Y270352D01*
X437706Y269945D01*
X434824Y268751D01*
X432349Y266852D01*
X430449Y264376D01*
X429255Y261493D01*
X428848Y258400D01*
X429255Y255306D01*
X430449Y252424D01*
X432349Y249949D01*
X434824Y248049D01*
X437706Y246855D01*
X440800Y246448D01*
X443894Y246855D01*
X446776Y248049D01*
X446937Y248173D01*
X447596Y247779D01*
X447974Y247367D01*
X447580Y245387D01*
Y244207D01*
X446310Y243544D01*
X443894Y244545D01*
X440800Y244952D01*
X437706Y244545D01*
X434824Y243351D01*
X432349Y241451D01*
X430449Y238976D01*
X429255Y236094D01*
X428848Y233000D01*
X429255Y229907D01*
X430449Y227024D01*
X432349Y224548D01*
X434824Y222649D01*
X437706Y221455D01*
X440377Y221103D01*
X440940Y219870D01*
X434677Y213608D01*
X366000D01*
X363854Y213181D01*
X362035Y211965D01*
X308677Y158608D01*
X244323D01*
X226608Y176323D01*
Y221000D01*
X226181Y223146D01*
X224965Y224965D01*
X208965Y240965D01*
X207146Y242181D01*
X205000Y242608D01*
X182323D01*
X152035Y272895D01*
X150216Y274111D01*
X148070Y274538D01*
X121650D01*
Y277660D01*
X121650Y278930D01*
X121650D01*
Y278930D01*
X121650D01*
Y297660D01*
X121650Y298930D01*
X121650D01*
Y298930D01*
X121650D01*
Y303322D01*
X173747D01*
X184092Y292977D01*
Y258191D01*
X183585Y257530D01*
X182880Y255827D01*
X182640Y254000D01*
X182880Y252173D01*
X183585Y250470D01*
X184708Y249008D01*
X186170Y247885D01*
X187873Y247180D01*
X189700Y246940D01*
X191527Y247180D01*
X193230Y247885D01*
X194692Y249008D01*
X195814Y250470D01*
X196520Y252173D01*
X196760Y254000D01*
X196520Y255827D01*
X195814Y257530D01*
X195308Y258191D01*
Y295300D01*
X194881Y297446D01*
X193665Y299265D01*
X180035Y312895D01*
X178216Y314111D01*
X176070Y314538D01*
X121650D01*
Y317660D01*
X121650Y318930D01*
X121650D01*
Y318930D01*
X121650D01*
Y338677D01*
X121650Y338930D01*
X122260Y339947D01*
X243040D01*
X243650Y338930D01*
X243650Y338677D01*
Y335840D01*
X243118Y335437D01*
X242380Y335136D01*
X240897Y335750D01*
X239070Y335990D01*
X237243Y335750D01*
X235540Y335045D01*
X234078Y333922D01*
X232956Y332460D01*
X232250Y330757D01*
X232010Y328930D01*
X232250Y327103D01*
X232956Y325400D01*
X234078Y323938D01*
X235540Y322816D01*
X237243Y322110D01*
X239070Y321870D01*
X240897Y322110D01*
X242380Y322724D01*
X243118Y322423D01*
X243650Y322020D01*
X243650Y318930D01*
X243650Y317660D01*
Y300200D01*
X243650Y298930D01*
X243650Y297660D01*
Y280200D01*
X243650Y278930D01*
X243650Y277660D01*
Y260200D01*
X243650Y258930D01*
X243650D01*
Y258930D01*
X243650D01*
Y240200D01*
X243650Y238930D01*
X243650D01*
Y238930D01*
X243650D01*
Y220200D01*
X243650Y218930D01*
X243650Y217660D01*
Y200200D01*
X243650Y198930D01*
X243650Y197660D01*
Y178930D01*
X271650D01*
Y182444D01*
X283150D01*
Y175450D01*
X287444D01*
Y173464D01*
X287180Y172827D01*
X286940Y171000D01*
X287180Y169173D01*
X287885Y167470D01*
X289008Y166007D01*
X290470Y164886D01*
X292173Y164180D01*
X294000Y163940D01*
X295827Y164180D01*
X297530Y164886D01*
X298992Y166007D01*
X300114Y167470D01*
X300820Y169173D01*
X301060Y171000D01*
X300820Y172827D01*
X300556Y173464D01*
Y175450D01*
X304850D01*
Y202052D01*
X304850Y202550D01*
X305800Y203322D01*
X340530D01*
X342676Y203749D01*
X344495Y204965D01*
X360681Y221150D01*
X376450D01*
Y244850D01*
X352750D01*
Y229081D01*
X338207Y214538D01*
X272548D01*
X271650Y215436D01*
X271650Y218930D01*
X271650Y220200D01*
Y223322D01*
X287930D01*
X290076Y223749D01*
X291895Y224965D01*
X341323Y274392D01*
X481677D01*
X485992Y270077D01*
Y268904D01*
X485624Y268751D01*
X483148Y266852D01*
X481249Y264376D01*
X480055Y261493D01*
X479648Y258400D01*
X480055Y255306D01*
X481249Y252424D01*
X483148Y249949D01*
X485624Y248049D01*
X488507Y246855D01*
X491600Y246448D01*
X494693Y246855D01*
X497122Y247861D01*
X498392Y247206D01*
Y246000D01*
X498785Y244024D01*
X498398Y243603D01*
X497749Y243218D01*
X497576Y243351D01*
X494693Y244545D01*
X491600Y244952D01*
X488507Y244545D01*
X485624Y243351D01*
X483148Y241451D01*
X481249Y238976D01*
X480055Y236094D01*
X479648Y233000D01*
X480055Y229907D01*
X481249Y227024D01*
X483148Y224548D01*
X485624Y222649D01*
X488507Y221455D01*
X491600Y221048D01*
X494693Y221455D01*
X497576Y222649D01*
X500051Y224548D01*
X501951Y227024D01*
X503145Y229907D01*
X503552Y233000D01*
X503145Y236094D01*
X502413Y237860D01*
X503490Y238580D01*
X505608Y236462D01*
X505455Y236094D01*
X505048Y233000D01*
X505455Y229907D01*
X506649Y227024D01*
X508549Y224548D01*
X511024Y222649D01*
X513907Y221455D01*
X517000Y221048D01*
X520093Y221455D01*
X522976Y222649D01*
X525452Y224548D01*
X527351Y227024D01*
X528545Y229907D01*
X528952Y233000D01*
X528545Y236094D01*
X527351Y238976D01*
X525452Y241451D01*
X522976Y243351D01*
X520093Y244545D01*
X517000Y244952D01*
X513907Y244545D01*
X513538Y244392D01*
X511420Y246510D01*
X512140Y247587D01*
X513907Y246855D01*
X517000Y246448D01*
X520093Y246855D01*
X522976Y248049D01*
X525452Y249949D01*
X527351Y252424D01*
X528545Y255306D01*
X528952Y258400D01*
X528545Y261493D01*
X527351Y264376D01*
X525452Y266852D01*
X522976Y268751D01*
X522608Y268904D01*
Y284000D01*
X522181Y286146D01*
X520965Y287965D01*
X507965Y300965D01*
X506146Y302181D01*
X504000Y302608D01*
X318000D01*
X315854Y302181D01*
X314035Y300965D01*
X287607Y274538D01*
X272548D01*
X271650Y275436D01*
X271650Y278930D01*
X271650Y280200D01*
Y281844D01*
X271847Y282077D01*
X272920Y282629D01*
X274173Y282110D01*
X276000Y281870D01*
X277827Y282110D01*
X279530Y282815D01*
X280993Y283937D01*
X282115Y285400D01*
X282820Y287103D01*
X283060Y288930D01*
X282820Y290757D01*
X282115Y292460D01*
X280993Y293922D01*
X279530Y295044D01*
X277827Y295750D01*
X276000Y295990D01*
X274173Y295750D01*
X272920Y295231D01*
X271847Y295783D01*
X271650Y296016D01*
X271650Y298930D01*
X271650Y300200D01*
Y310370D01*
X272350Y311350D01*
X272920Y311350D01*
X298850D01*
Y316583D01*
X300120Y317014D01*
X301550Y315150D01*
X304318Y313026D01*
X307541Y311691D01*
X311000Y311236D01*
X314459Y311691D01*
X317682Y313026D01*
X320450Y315150D01*
X322574Y317918D01*
X323065Y319104D01*
X324335D01*
X324826Y317918D01*
X326950Y315150D01*
X329718Y313026D01*
X332941Y311691D01*
X336400Y311236D01*
X339859Y311691D01*
X343082Y313026D01*
X345850Y315150D01*
X347974Y317918D01*
X348465Y319104D01*
X349735D01*
X350226Y317918D01*
X352350Y315150D01*
X355118Y313026D01*
X358341Y311691D01*
X361800Y311236D01*
X365259Y311691D01*
X368482Y313026D01*
X371250Y315150D01*
X373374Y317918D01*
X373865Y319104D01*
X375135D01*
X375626Y317918D01*
X377750Y315150D01*
X380518Y313026D01*
X383741Y311691D01*
X387200Y311236D01*
X390659Y311691D01*
X393882Y313026D01*
X396650Y315150D01*
X398774Y317918D01*
X399265Y319104D01*
X400535D01*
X401026Y317918D01*
X403150Y315150D01*
X405918Y313026D01*
X409141Y311691D01*
X412600Y311236D01*
X416059Y311691D01*
X419282Y313026D01*
X422050Y315150D01*
X424174Y317918D01*
X424665Y319104D01*
X425935D01*
X426426Y317918D01*
X428550Y315150D01*
X431318Y313026D01*
X434541Y311691D01*
X438000Y311236D01*
X441459Y311691D01*
X444682Y313026D01*
X447450Y315150D01*
X449574Y317918D01*
X450065Y319104D01*
X451335D01*
X451826Y317918D01*
X453950Y315150D01*
X456718Y313026D01*
X459941Y311691D01*
X463400Y311236D01*
X466859Y311691D01*
X470082Y313026D01*
X472850Y315150D01*
X474974Y317918D01*
X476309Y321141D01*
X476764Y324600D01*
X476309Y328059D01*
X474974Y331282D01*
X472850Y334050D01*
X470082Y336174D01*
X468896Y336665D01*
Y337935D01*
X470082Y338426D01*
X472850Y340550D01*
X474974Y343318D01*
X476309Y346541D01*
X476764Y350000D01*
X476309Y353459D01*
X474974Y356682D01*
X472850Y359450D01*
X470082Y361574D01*
X466859Y362909D01*
X463400Y363364D01*
X459941Y362909D01*
X456718Y361574D01*
X453950Y359450D01*
X451826Y356682D01*
X451335Y355496D01*
X450065D01*
X449574Y356682D01*
X447450Y359450D01*
X444682Y361574D01*
X441459Y362909D01*
X438000Y363364D01*
X434541Y362909D01*
X431318Y361574D01*
X428550Y359450D01*
X426426Y356682D01*
X425935Y355496D01*
X424665D01*
X424174Y356682D01*
X422050Y359450D01*
X419282Y361574D01*
X416059Y362909D01*
X412600Y363364D01*
X409141Y362909D01*
X405918Y361574D01*
X403150Y359450D01*
X401026Y356682D01*
X400535Y355496D01*
X399265D01*
X398774Y356682D01*
X396650Y359450D01*
X393882Y361574D01*
X390659Y362909D01*
X387200Y363364D01*
X383741Y362909D01*
X380518Y361574D01*
X377750Y359450D01*
X375626Y356682D01*
X375135Y355496D01*
X373865D01*
X373374Y356682D01*
X371250Y359450D01*
X368482Y361574D01*
X365259Y362909D01*
X361800Y363364D01*
X358341Y362909D01*
X355118Y361574D01*
X352350Y359450D01*
X350226Y356682D01*
X349735Y355496D01*
X348465D01*
X347974Y356682D01*
X345850Y359450D01*
X343082Y361574D01*
X339859Y362909D01*
X336400Y363364D01*
X332941Y362909D01*
X329718Y361574D01*
X326950Y359450D01*
X324826Y356682D01*
X324335Y355496D01*
X323065D01*
X322574Y356682D01*
X320450Y359450D01*
X317682Y361574D01*
X314459Y362909D01*
X311000Y363364D01*
X307541Y362909D01*
X304318Y361574D01*
X301550Y359450D01*
X299426Y356682D01*
X298935Y355496D01*
X297665D01*
X297174Y356682D01*
X295050Y359450D01*
X292282Y361574D01*
X289059Y362909D01*
X285600Y363364D01*
X282141Y362909D01*
X278918Y361574D01*
X276150Y359450D01*
X274026Y356682D01*
X272691Y353459D01*
X272236Y350000D01*
X272691Y346541D01*
X274026Y343318D01*
X276150Y340550D01*
X278014Y339120D01*
X277582Y337850D01*
X272350Y337850D01*
X271650Y338830D01*
Y338930D01*
X258975D01*
X258850Y340200D01*
X259141Y340258D01*
X260464Y341142D01*
X261348Y342465D01*
X261658Y344026D01*
Y392280D01*
X261348Y393841D01*
X260464Y395164D01*
X259141Y396048D01*
X257580Y396358D01*
X103910D01*
X102349Y396048D01*
X101026Y395164D01*
X100142Y393841D01*
X99832Y392280D01*
Y344026D01*
X100142Y342465D01*
X101026Y341142D01*
X102349Y340258D01*
X102640Y340200D01*
X102515Y338930D01*
X93650D01*
Y334608D01*
X79000D01*
X76854Y334181D01*
X75035Y332965D01*
X62035Y319965D01*
X60819Y318146D01*
X60392Y316000D01*
Y300766D01*
X59122Y300335D01*
X57738Y302138D01*
X55472Y303877D01*
X52832Y304971D01*
X50000Y305344D01*
X47168Y304971D01*
X44528Y303877D01*
X42262Y302138D01*
X40522Y299872D01*
X39429Y297232D01*
X39056Y294400D01*
X39429Y291568D01*
X40522Y288928D01*
X42262Y286662D01*
X44528Y284923D01*
X47168Y283829D01*
X50000Y283456D01*
X52832Y283829D01*
X55472Y284923D01*
X57738Y286662D01*
X59122Y288465D01*
X60392Y288034D01*
Y275366D01*
X59122Y274935D01*
X57738Y276738D01*
X55472Y278477D01*
X52832Y279571D01*
X50000Y279944D01*
X47168Y279571D01*
X44528Y278477D01*
X42262Y276738D01*
X40522Y274472D01*
X39429Y271832D01*
X39056Y269000D01*
X39429Y266168D01*
X40522Y263528D01*
X42262Y261262D01*
X44528Y259522D01*
X47168Y258429D01*
X50000Y258056D01*
X52832Y258429D01*
X55472Y259522D01*
X57738Y261262D01*
X59122Y263065D01*
X60392Y262634D01*
Y251064D01*
X59825Y250528D01*
X58267Y250649D01*
X57738Y251338D01*
X55472Y253077D01*
X52832Y254171D01*
X50000Y254544D01*
X47168Y254171D01*
X44528Y253077D01*
X42262Y251338D01*
X40627Y249208D01*
X35600D01*
X33454Y248781D01*
X31635Y247565D01*
X15294Y231225D01*
X14121Y231711D01*
X14121Y400879D01*
X589879Y400879D01*
D02*
G37*
G36*
X81392Y224666D02*
Y157000D01*
X81819Y154854D01*
X83035Y153035D01*
X109035Y127035D01*
X110854Y125819D01*
X113000Y125392D01*
X166608D01*
X171000Y121000D01*
X178452D01*
X179011Y119752D01*
X178586Y118738D01*
X159850D01*
Y119810D01*
X134150D01*
Y109648D01*
X113370Y88868D01*
X111550D01*
Y90640D01*
X84450D01*
Y86346D01*
X63550D01*
Y90640D01*
X48422D01*
X40556Y98506D01*
Y123284D01*
X54636Y137364D01*
X55678Y138722D01*
X56333Y140303D01*
X56556Y142000D01*
Y181950D01*
X60850D01*
Y203650D01*
X39150D01*
Y181950D01*
X43444D01*
Y144716D01*
X30781Y132053D01*
X29608Y132539D01*
Y202677D01*
X39436Y212505D01*
X40735Y212452D01*
X42262Y210462D01*
X44528Y208722D01*
X47168Y207629D01*
X50000Y207256D01*
X52832Y207629D01*
X55472Y208722D01*
X57738Y210462D01*
X59373Y212592D01*
X65200D01*
X67346Y213019D01*
X69165Y214235D01*
X80122Y225192D01*
X81392Y224666D01*
D02*
G37*
G36*
X589879Y161452D02*
Y14121D01*
X123111D01*
X122625Y15294D01*
X138737Y31407D01*
X141400Y31056D01*
X144232Y31429D01*
X146872Y32522D01*
X149138Y34262D01*
X150877Y36528D01*
X151971Y39168D01*
X152344Y42000D01*
X151971Y44832D01*
X150877Y47472D01*
X149138Y49738D01*
X146872Y51477D01*
X144232Y52571D01*
X141400Y52944D01*
X138568Y52571D01*
X135928Y51477D01*
X133662Y49738D01*
X131923Y47472D01*
X130829Y44832D01*
X130456Y42000D01*
X130807Y39337D01*
X113077Y21608D01*
X105198D01*
X104712Y22781D01*
X113337Y31407D01*
X116000Y31056D01*
X118832Y31429D01*
X121472Y32522D01*
X123738Y34262D01*
X125477Y36528D01*
X126571Y39168D01*
X126944Y42000D01*
X126571Y44832D01*
X125477Y47472D01*
X123738Y49738D01*
X121472Y51477D01*
X118832Y52571D01*
X116000Y52944D01*
X113168Y52571D01*
X110528Y51477D01*
X108262Y49738D01*
X106523Y47472D01*
X105429Y44832D01*
X105056Y42000D01*
X105407Y39337D01*
X95677Y29608D01*
X59176D01*
X58994Y29880D01*
X59673Y31150D01*
X76050D01*
Y52850D01*
X72918D01*
X72392Y54120D01*
X75716Y57444D01*
X93000D01*
X94697Y57667D01*
X96278Y58322D01*
X97636Y59364D01*
X101636Y63364D01*
X102678Y64722D01*
X103333Y66303D01*
X103556Y68000D01*
Y68940D01*
X111550D01*
Y70712D01*
X117130D01*
X119480Y71022D01*
X121669Y71929D01*
X123549Y73371D01*
X132977Y82799D01*
X134150Y82313D01*
Y70190D01*
X159850D01*
Y71111D01*
X161120Y71790D01*
X161192Y71741D01*
Y51373D01*
X159062Y49738D01*
X157323Y47472D01*
X156229Y44832D01*
X155856Y42000D01*
X156229Y39168D01*
X157323Y36528D01*
X159062Y34262D01*
X161328Y32522D01*
X163968Y31429D01*
X166800Y31056D01*
X169632Y31429D01*
X172272Y32522D01*
X174538Y34262D01*
X176277Y36528D01*
X177371Y39168D01*
X177744Y42000D01*
X177371Y44832D01*
X176277Y47472D01*
X174538Y49738D01*
X172408Y51373D01*
Y75200D01*
X171981Y77346D01*
X170765Y79165D01*
X165965Y83965D01*
X164146Y85181D01*
X162000Y85608D01*
X159850D01*
Y90490D01*
X142327D01*
X141841Y91663D01*
X149688Y99510D01*
X159850D01*
Y100582D01*
X179150D01*
Y99510D01*
X204850D01*
Y100582D01*
X207580D01*
X211922Y96240D01*
Y63000D01*
X212232Y60651D01*
X213139Y58461D01*
X214581Y56581D01*
X227581Y43581D01*
X229461Y42139D01*
X231651Y41232D01*
X234000Y40922D01*
X236444D01*
Y32494D01*
X236180Y31857D01*
X235940Y30030D01*
X236180Y28203D01*
X236886Y26500D01*
X238008Y25038D01*
X239470Y23916D01*
X241173Y23210D01*
X243000Y22970D01*
X244827Y23210D01*
X246530Y23916D01*
X247992Y25038D01*
X249114Y26500D01*
X249820Y28203D01*
X250060Y30030D01*
X249820Y31857D01*
X249556Y32494D01*
Y40922D01*
X265000D01*
X267349Y41232D01*
X269539Y42139D01*
X271419Y43581D01*
X294054Y66217D01*
X295817Y66183D01*
X298000Y64000D01*
X314000D01*
X319000Y59000D01*
Y39000D01*
X320000Y38000D01*
X331000D01*
X332000Y39000D01*
Y60000D01*
X336000Y64000D01*
X353000D01*
X356000Y67000D01*
Y92922D01*
X378922D01*
Y90000D01*
X378922Y90000D01*
X379232Y88439D01*
X380116Y87116D01*
X380116Y87116D01*
X387922Y79311D01*
Y32000D01*
X388232Y30439D01*
X389116Y29116D01*
X389116Y29116D01*
X394360Y23872D01*
Y21450D01*
X396782D01*
X397116Y21116D01*
X397116Y21116D01*
X398439Y20232D01*
X400000Y19922D01*
X400000Y19922D01*
X421000D01*
X422561Y20232D01*
X423884Y21116D01*
X431884Y29116D01*
X432768Y30439D01*
X433078Y32000D01*
X433078Y32000D01*
Y110000D01*
X433078Y110000D01*
X432768Y111561D01*
X431884Y112884D01*
X429019Y115748D01*
X429505Y116922D01*
X493000D01*
X493000Y116922D01*
X494561Y117232D01*
X495884Y118116D01*
X517689Y139922D01*
X565000D01*
X565000Y139922D01*
X566561Y140232D01*
X567884Y141116D01*
X588706Y161938D01*
X589879Y161452D01*
D02*
G37*
G36*
X168896Y177173D02*
X168410Y176000D01*
X162000D01*
X158000Y172000D01*
Y136608D01*
X115323D01*
X92608Y159323D01*
Y198380D01*
X93650Y198930D01*
X121650D01*
Y203322D01*
X142747Y203322D01*
X168896Y177173D01*
D02*
G37*
G36*
X588927Y387073D02*
Y167927D01*
X565000Y144000D01*
X516000D01*
X493000Y121000D01*
X425210D01*
X421098Y125112D01*
Y170000D01*
X420916Y170916D01*
X425000Y175000D01*
X551000D01*
X557360Y181360D01*
X557550D01*
Y181550D01*
X561000Y185000D01*
Y381000D01*
X568000Y388000D01*
X588000D01*
X588927Y387073D01*
D02*
G37*
G36*
X281236Y119827D02*
X277998Y116588D01*
X277173Y116480D01*
X275470Y115774D01*
X274008Y114652D01*
X272885Y113190D01*
X272180Y111487D01*
X271940Y109660D01*
X272180Y107833D01*
X272885Y106130D01*
X274008Y104668D01*
X275470Y103546D01*
X277173Y102840D01*
X279000Y102600D01*
X280827Y102840D01*
X282530Y103546D01*
X283992Y104668D01*
X285114Y106130D01*
X285820Y107833D01*
X285928Y108658D01*
X291663Y114392D01*
X293608D01*
X295000Y113000D01*
Y92838D01*
X261240Y59078D01*
X237760D01*
X230078Y66760D01*
Y99510D01*
X254850D01*
Y119810D01*
X254850D01*
X255043Y121000D01*
X280750D01*
X281236Y119827D01*
D02*
G37*
G36*
X416000Y170000D02*
Y123000D01*
X429000Y110000D01*
Y32000D01*
X421000Y24000D01*
X400000D01*
X392000Y32000D01*
Y81000D01*
X383000Y90000D01*
Y130000D01*
X396000Y143000D01*
Y170000D01*
X400000Y175000D01*
X411000D01*
X416000Y170000D01*
D02*
G37*
%LPC*%
G36*
X415400Y270352D02*
X412307Y269945D01*
X409424Y268751D01*
X406949Y266852D01*
X405049Y264376D01*
X403855Y261493D01*
X403448Y258400D01*
X403855Y255306D01*
X405049Y252424D01*
X406949Y249949D01*
X409424Y248049D01*
X412307Y246855D01*
X415400Y246448D01*
X418493Y246855D01*
X421376Y248049D01*
X423852Y249949D01*
X425751Y252424D01*
X426945Y255306D01*
X427352Y258400D01*
X426945Y261493D01*
X425751Y264376D01*
X423852Y266852D01*
X421376Y268751D01*
X418493Y269945D01*
X415400Y270352D01*
D02*
G37*
G36*
X390000D02*
X386907Y269945D01*
X384024Y268751D01*
X381549Y266852D01*
X379649Y264376D01*
X378455Y261493D01*
X378048Y258400D01*
X378455Y255306D01*
X379649Y252424D01*
X381549Y249949D01*
X384024Y248049D01*
X386907Y246855D01*
X390000Y246448D01*
X393093Y246855D01*
X395976Y248049D01*
X398451Y249949D01*
X400351Y252424D01*
X401545Y255306D01*
X401952Y258400D01*
X401545Y261493D01*
X400351Y264376D01*
X398451Y266852D01*
X395976Y268751D01*
X393093Y269945D01*
X390000Y270352D01*
D02*
G37*
G36*
X364600D02*
X361507Y269945D01*
X358624Y268751D01*
X356148Y266852D01*
X354249Y264376D01*
X353055Y261493D01*
X352648Y258400D01*
X353055Y255306D01*
X354249Y252424D01*
X356148Y249949D01*
X358624Y248049D01*
X361507Y246855D01*
X364600Y246448D01*
X367693Y246855D01*
X370576Y248049D01*
X373051Y249949D01*
X374951Y252424D01*
X376145Y255306D01*
X376552Y258400D01*
X376145Y261493D01*
X374951Y264376D01*
X373051Y266852D01*
X370576Y268751D01*
X367693Y269945D01*
X364600Y270352D01*
D02*
G37*
G36*
X542400Y244952D02*
X539306Y244545D01*
X536424Y243351D01*
X533949Y241451D01*
X532049Y238976D01*
X530855Y236094D01*
X530448Y233000D01*
X530855Y229907D01*
X532049Y227024D01*
X533949Y224548D01*
X536424Y222649D01*
X539306Y221455D01*
X542400Y221048D01*
X545494Y221455D01*
X548376Y222649D01*
X550852Y224548D01*
X552751Y227024D01*
X553945Y229907D01*
X554352Y233000D01*
X553945Y236094D01*
X552751Y238976D01*
X550852Y241451D01*
X548376Y243351D01*
X545494Y244545D01*
X542400Y244952D01*
D02*
G37*
G36*
X415400D02*
X412307Y244545D01*
X409424Y243351D01*
X406949Y241451D01*
X405049Y238976D01*
X403855Y236094D01*
X403448Y233000D01*
X403855Y229907D01*
X405049Y227024D01*
X406949Y224548D01*
X409424Y222649D01*
X412307Y221455D01*
X415400Y221048D01*
X418493Y221455D01*
X421376Y222649D01*
X423852Y224548D01*
X425751Y227024D01*
X426945Y229907D01*
X427352Y233000D01*
X426945Y236094D01*
X425751Y238976D01*
X423852Y241451D01*
X421376Y243351D01*
X418493Y244545D01*
X415400Y244952D01*
D02*
G37*
G36*
X390000D02*
X386907Y244545D01*
X384024Y243351D01*
X381549Y241451D01*
X379649Y238976D01*
X378455Y236094D01*
X378048Y233000D01*
X378455Y229907D01*
X379649Y227024D01*
X381549Y224548D01*
X384024Y222649D01*
X386907Y221455D01*
X390000Y221048D01*
X393093Y221455D01*
X395976Y222649D01*
X398451Y224548D01*
X400351Y227024D01*
X401545Y229907D01*
X401952Y233000D01*
X401545Y236094D01*
X400351Y238976D01*
X398451Y241451D01*
X395976Y243351D01*
X393093Y244545D01*
X390000Y244952D01*
D02*
G37*
G36*
X204850Y90490D02*
X179150D01*
Y70190D01*
X186392D01*
Y51220D01*
X184462Y49738D01*
X182722Y47472D01*
X181629Y44832D01*
X181256Y42000D01*
X181629Y39168D01*
X182722Y36528D01*
X184462Y34262D01*
X186728Y32522D01*
X189368Y31429D01*
X192200Y31056D01*
X195032Y31429D01*
X197672Y32522D01*
X199938Y34262D01*
X201677Y36528D01*
X202771Y39168D01*
X203144Y42000D01*
X202771Y44832D01*
X201677Y47472D01*
X199938Y49738D01*
X197672Y51477D01*
X197608Y51504D01*
Y70190D01*
X204850D01*
Y90490D01*
D02*
G37*
%LPD*%
D19*
X405210Y35000D02*
D03*
X376790D02*
D03*
X405210Y68000D02*
D03*
X376790D02*
D03*
X294000Y189000D02*
D03*
X322420D02*
D03*
D20*
X543000Y164790D02*
D03*
Y193210D02*
D03*
X513000Y164790D02*
D03*
Y193210D02*
D03*
X50000Y108210D02*
D03*
Y79790D02*
D03*
X98000Y108210D02*
D03*
Y79790D02*
D03*
D21*
X242000Y80340D02*
D03*
Y109660D02*
D03*
X147000Y109660D02*
D03*
Y80340D02*
D03*
X192000Y109660D02*
D03*
Y80340D02*
D03*
D51*
X242000Y131000D02*
D03*
X405000D02*
D03*
X239070Y328930D02*
D03*
X126230Y248930D02*
D03*
X351000Y175000D02*
D03*
X212000Y217000D02*
D03*
X276000Y288930D02*
D03*
X122650Y188930D02*
D03*
X189700Y254000D02*
D03*
X107650Y176420D02*
D03*
X349303Y154303D02*
D03*
X366000Y272000D02*
D03*
X294000Y171000D02*
D03*
X148000Y65000D02*
D03*
X334000Y189000D02*
D03*
X375000Y114000D02*
D03*
X528000Y199000D02*
D03*
Y187000D02*
D03*
X477000Y107000D02*
D03*
X507000Y52000D02*
D03*
X477000D02*
D03*
X296000Y306000D02*
D03*
X362000D02*
D03*
X585000Y101000D02*
D03*
X552000Y286000D02*
D03*
Y313000D02*
D03*
Y339000D02*
D03*
X528000Y286000D02*
D03*
Y313000D02*
D03*
Y339000D02*
D03*
X340000Y245000D02*
D03*
Y266000D02*
D03*
X585000Y128000D02*
D03*
X130000Y65000D02*
D03*
X110000Y60000D02*
D03*
X108000Y155000D02*
D03*
X76000Y98000D02*
D03*
X38000Y155000D02*
D03*
X76210Y119790D02*
D03*
Y154790D02*
D03*
X20000Y255000D02*
D03*
Y290000D02*
D03*
Y325000D02*
D03*
X80000Y360000D02*
D03*
X50000D02*
D03*
X20000D02*
D03*
X80000Y395000D02*
D03*
X50000D02*
D03*
X20000D02*
D03*
X280000Y86000D02*
D03*
X346000Y59000D02*
D03*
X305000D02*
D03*
X363000Y89000D02*
D03*
Y114000D02*
D03*
X288000Y101000D02*
D03*
X213000Y16000D02*
D03*
X243000D02*
D03*
X268000D02*
D03*
X297000Y32000D02*
D03*
X285000D02*
D03*
X383000Y53000D02*
D03*
X372000D02*
D03*
X360000Y32000D02*
D03*
X350000Y35000D02*
D03*
X556000Y128000D02*
D03*
X279000Y109660D02*
D03*
X369000Y143000D02*
D03*
X243000Y30030D02*
D03*
X422000Y51000D02*
D03*
X398000D02*
D03*
X422000Y85000D02*
D03*
X398000D02*
D03*
X394000Y122000D02*
D03*
Y131000D02*
D03*
X405000Y122000D02*
D03*
Y140000D02*
D03*
X242070Y65000D02*
D03*
X276000Y171000D02*
D03*
X76280Y189790D02*
D03*
D52*
X400000Y102000D02*
X405000Y107000D01*
X398000Y100000D02*
X400000Y102000D01*
X398000Y85000D02*
Y100000D01*
X405000Y107000D02*
Y122000D01*
X394000D02*
X405000D01*
X398000Y85000D02*
X422000D01*
X257580Y189000D02*
X294000D01*
X276000Y171000D02*
X287000Y160000D01*
X305000D02*
X326860Y181860D01*
X287000Y160000D02*
X305000D01*
X80000Y360000D02*
X80000D01*
X100000Y340000D02*
X199000D01*
X80000Y360000D02*
X100000Y340000D01*
X199000D02*
X239000Y300000D01*
X261865Y171000D02*
X276000D01*
X260865Y170000D02*
X261865Y171000D01*
X247000Y170000D02*
X260865D01*
X239000Y178000D02*
X247000Y170000D01*
X239000Y178000D02*
Y300000D01*
X242000Y65000D02*
Y80340D01*
X346271Y272000D02*
X366000D01*
X340271Y266000D02*
X346271Y272000D01*
X340000Y266000D02*
X340271D01*
X294000Y171000D02*
Y189000D01*
X243000Y30030D02*
Y49000D01*
X97000Y78790D02*
X98000Y79790D01*
X97000Y68000D02*
Y78790D01*
X73000Y64000D02*
X93000D01*
X97000Y68000D01*
X65200Y56200D02*
X73000Y64000D01*
X65200Y42000D02*
Y56200D01*
X50000Y79790D02*
X98000D01*
X34000Y95790D02*
X50000Y79790D01*
X34000Y95790D02*
Y126000D01*
X50000Y142000D01*
Y192800D01*
D53*
X145070Y208930D02*
X145070D01*
X150070Y248930D02*
X182000Y217000D01*
X189700Y254000D02*
Y295300D01*
X257650Y288930D02*
X276000D01*
X122650Y188930D02*
X124000D01*
X335000Y140000D02*
X349303Y154303D01*
X156070Y228930D02*
X238000Y147000D01*
X323000D02*
X351000Y175000D01*
X182000Y217000D02*
X212000D01*
X107650Y308930D02*
X176070D01*
X107580Y176420D02*
Y189000D01*
X107650Y208930D02*
X145070Y208930D01*
X238000Y147000D02*
X323000D01*
X107650Y248930D02*
X126230D01*
X150070D01*
X176070Y308930D02*
X189700Y295300D01*
X239070Y328930D02*
X257650D01*
X107650Y188930D02*
X122650D01*
X145070Y208930D02*
X214000Y140000D01*
X335000D01*
X107650Y228930D02*
X156070D01*
X221000Y174000D02*
X242000Y153000D01*
X311000D02*
X366000Y208000D01*
X242000Y153000D02*
X311000D01*
X180000Y237000D02*
X205000D01*
X221000Y174000D02*
Y221000D01*
X205000Y237000D02*
X221000Y221000D01*
X326860Y181860D02*
X334000Y189000D01*
X484000Y280000D02*
X491600Y272400D01*
X287930Y228930D02*
X339000Y280000D01*
X484000D01*
X95300Y108210D02*
X98000D01*
X85090Y98000D02*
X95300Y108210D01*
X76000Y98000D02*
X85090D01*
X50000Y108210D02*
X52700D01*
X64280Y119790D01*
X76210D01*
X382000Y141000D02*
Y160000D01*
X363000Y122000D02*
X382000Y141000D01*
X363000Y114000D02*
Y122000D01*
X366000Y153000D02*
Y183000D01*
X379000Y196000D02*
X453000Y196000D01*
X366000Y183000D02*
X379000Y196000D01*
X257650Y248930D02*
X288930D01*
X328000Y288000D02*
X492000D01*
X288930Y248930D02*
X328000Y288000D01*
X257650Y228930D02*
X287930D01*
X346000Y120000D02*
X369000Y143000D01*
X289340Y120000D02*
X346000D01*
X279000Y109660D02*
X289340Y120000D01*
X208000Y131000D02*
X242000D01*
X344000D01*
X366000Y153000D01*
X147000Y80340D02*
X147340Y80000D01*
X162000D01*
X166800Y75200D01*
Y42000D02*
Y75200D01*
X192000Y42200D02*
X192200Y42000D01*
X192000Y42200D02*
Y80340D01*
X242000Y109660D02*
Y131000D01*
X113000Y131000D02*
X208000D01*
X208000Y131000D01*
X16000Y50000D02*
X50000Y16000D01*
X16000Y224000D02*
X35600Y243600D01*
X16000Y50000D02*
Y224000D01*
X24000Y56000D02*
Y205000D01*
Y56000D02*
X56000Y24000D01*
X24000Y205000D02*
X37200Y218200D01*
X50000D01*
X65200D01*
X115400Y16000D02*
X141400Y42000D01*
X50000Y16000D02*
X115400D01*
X98000Y24000D02*
X116000Y42000D01*
X56000Y24000D02*
X98000D01*
X466200Y209200D02*
Y233000D01*
X453000Y196000D02*
X466200Y209200D01*
X366000Y208000D02*
X437000D01*
X453187Y245387D02*
X466200Y258400D01*
X453187Y224188D02*
Y245387D01*
X437000Y208000D02*
X453187Y224188D01*
X91930Y288930D02*
X107650D01*
X87000Y284000D02*
X91930Y288930D01*
X87000Y157000D02*
Y284000D01*
X491600Y258400D02*
Y272400D01*
X504000Y246000D02*
Y276000D01*
X492000Y288000D02*
X504000Y276000D01*
Y297000D02*
X517000Y284000D01*
X318000Y297000D02*
X504000D01*
X517000Y258400D02*
Y284000D01*
X289930Y268930D02*
X318000Y297000D01*
X504000Y246000D02*
X517000Y233000D01*
X340530Y208930D02*
X364600Y233000D01*
X257650Y208930D02*
X340530D01*
X148070Y268930D02*
X180000Y237000D01*
X87000Y157000D02*
X113000Y131000D01*
X107650Y268930D02*
X148070D01*
X257650D02*
X289930D01*
X35600Y243600D02*
X50000D01*
X65200Y218200D02*
X77000Y230000D01*
Y298000D02*
X87930Y308930D01*
X77000Y230000D02*
Y298000D01*
X66000Y248000D02*
Y316000D01*
X79000Y329000D01*
X61600Y243600D02*
X66000Y248000D01*
X50000Y243600D02*
X61600D01*
X87930Y308930D02*
X107650D01*
X107580Y329000D02*
X107650Y328930D01*
X79000Y329000D02*
X107580D01*
D54*
X394000Y131000D02*
X405000D01*
X317000Y102000D02*
X400000D01*
X192000Y109660D02*
X211340D01*
X147000D02*
X192000D01*
X117130Y79790D02*
X147000Y109660D01*
X211340D02*
X221000Y100000D01*
Y63000D02*
Y100000D01*
Y63000D02*
X234000Y50000D01*
X265000D01*
X317000Y102000D01*
X98000Y79790D02*
X117130D01*
D55*
X364600Y233000D02*
D03*
D56*
Y258400D02*
D03*
X390000Y233000D02*
D03*
Y258400D02*
D03*
X415400Y233000D02*
D03*
Y258400D02*
D03*
X440800Y233000D02*
D03*
Y258400D02*
D03*
X466200Y233000D02*
D03*
Y258400D02*
D03*
X491600Y233000D02*
D03*
Y258400D02*
D03*
X517000Y233000D02*
D03*
Y258400D02*
D03*
X542400Y233000D02*
D03*
Y258400D02*
D03*
D57*
X50000Y319800D02*
D03*
Y294400D02*
D03*
Y269000D02*
D03*
Y243600D02*
D03*
Y218200D02*
D03*
X192200Y42000D02*
D03*
X166800D02*
D03*
X141400D02*
D03*
X116000D02*
D03*
X90600D02*
D03*
D58*
X50000Y192800D02*
D03*
D59*
X65200Y42000D02*
D03*
D60*
X523000Y108000D02*
D03*
D61*
X476000Y78000D02*
D03*
D62*
Y138000D02*
D03*
D63*
X578000Y368000D02*
D03*
D64*
X528000D02*
D03*
D65*
X463400Y350000D02*
D03*
Y324600D02*
D03*
X438000Y350000D02*
D03*
Y324600D02*
D03*
X412600Y350000D02*
D03*
Y324600D02*
D03*
X387200Y350000D02*
D03*
Y324600D02*
D03*
X361800Y350000D02*
D03*
Y324600D02*
D03*
X336400Y350000D02*
D03*
Y324600D02*
D03*
X311000Y350000D02*
D03*
Y324600D02*
D03*
X285600Y350000D02*
D03*
D66*
Y324600D02*
D03*
D67*
X107650Y328930D02*
D03*
Y308930D02*
D03*
Y288930D02*
D03*
Y268930D02*
D03*
Y248930D02*
D03*
Y228930D02*
D03*
Y208930D02*
D03*
Y188930D02*
D03*
X257650D02*
D03*
Y208930D02*
D03*
Y228930D02*
D03*
Y248930D02*
D03*
Y268930D02*
D03*
Y288930D02*
D03*
Y308930D02*
D03*
Y328930D02*
D03*
D68*
X405000Y102000D02*
D03*
D69*
X428000Y160000D02*
D03*
X405000D02*
D03*
X382000D02*
D03*
M02*
