G04*
G04 #@! TF.GenerationSoftware,Altium Limited,Altium Designer,20.1.12 (249)*
G04*
G04 Layer_Color=128*
%FSLAX44Y44*%
%MOMM*%
G71*
G04*
G04 #@! TF.SameCoordinates,2C1882C9-CBDB-4859-8E7C-5A4850A28F2A*
G04*
G04*
G04 #@! TF.FilePolarity,Positive*
G04*
G01*
G75*
%ADD77C,0.0508*%
D77*
X359500Y233000D02*
X369700D01*
X364600Y227900D02*
Y238100D01*
X359500Y258400D02*
X369700D01*
X364600Y253300D02*
Y263500D01*
X384900Y233000D02*
X395100D01*
X390000Y227900D02*
Y238100D01*
X384900Y258400D02*
X395100D01*
X390000Y253300D02*
Y263500D01*
X410300Y233000D02*
X420500D01*
X415400Y227900D02*
Y238100D01*
X410300Y258400D02*
X420500D01*
X415400Y253300D02*
Y263500D01*
X435700Y233000D02*
X445900D01*
X440800Y227900D02*
Y238100D01*
X435700Y258400D02*
X445900D01*
X440800Y253300D02*
Y263500D01*
X461100Y233000D02*
X471300D01*
X466200Y227900D02*
Y238100D01*
X461100Y258400D02*
X471300D01*
X466200Y253300D02*
Y263500D01*
X486500Y233000D02*
X496700D01*
X491600Y227900D02*
Y238100D01*
X486500Y258400D02*
X496700D01*
X491600Y253300D02*
Y263500D01*
X511900Y233000D02*
X522100D01*
X517000Y227900D02*
Y238100D01*
X511900Y258400D02*
X522100D01*
X517000Y253300D02*
Y263500D01*
X537300Y233000D02*
X547500D01*
X542400Y227900D02*
Y238100D01*
X537300Y258400D02*
X547500D01*
X542400Y253300D02*
Y263500D01*
X44900Y319800D02*
X55100D01*
X50000Y314700D02*
Y324900D01*
X44900Y294400D02*
X55100D01*
X50000Y289300D02*
Y299500D01*
X44900Y269000D02*
X55100D01*
X50000Y263900D02*
Y274100D01*
X44900Y243600D02*
X55100D01*
X50000Y238500D02*
Y248700D01*
X44900Y218200D02*
X55100D01*
X50000Y213100D02*
Y223300D01*
X44900Y192800D02*
X55100D01*
X50000Y187700D02*
Y197900D01*
X187100Y42000D02*
X197300D01*
X192200Y36900D02*
Y47100D01*
X161700Y42000D02*
X171900D01*
X166800Y36900D02*
Y47100D01*
X136300Y42000D02*
X146500D01*
X141400Y36900D02*
Y47100D01*
X110900Y42000D02*
X121100D01*
X116000Y36900D02*
Y47100D01*
X85500Y42000D02*
X95700D01*
X90600Y36900D02*
Y47100D01*
X60100Y42000D02*
X70300D01*
X65200Y36900D02*
Y47100D01*
X518000Y108000D02*
X528000D01*
X523000Y103000D02*
Y113000D01*
X471000Y78000D02*
X481000D01*
X476000Y73000D02*
Y83000D01*
X471000Y138000D02*
X481000D01*
X476000Y133000D02*
Y143000D01*
X571500Y368000D02*
X584500D01*
X578000Y361500D02*
Y374500D01*
X521500Y368000D02*
X534500D01*
X528000Y361500D02*
Y374500D01*
X457400Y350000D02*
X469400D01*
X463400Y344000D02*
Y356000D01*
X457400Y324600D02*
X469400D01*
X463400Y318600D02*
Y330600D01*
X432000Y350000D02*
X444000D01*
X438000Y344000D02*
Y356000D01*
X432000Y324600D02*
X444000D01*
X438000Y318600D02*
Y330600D01*
X406600Y350000D02*
X418600D01*
X412600Y344000D02*
Y356000D01*
X406600Y324600D02*
X418600D01*
X412600Y318600D02*
Y330600D01*
X381200Y350000D02*
X393200D01*
X387200Y344000D02*
Y356000D01*
X381200Y324600D02*
X393200D01*
X387200Y318600D02*
Y330600D01*
X355800Y350000D02*
X367800D01*
X361800Y344000D02*
Y356000D01*
X355800Y324600D02*
X367800D01*
X361800Y318600D02*
Y330600D01*
X330400Y350000D02*
X342400D01*
X336400Y344000D02*
Y356000D01*
X330400Y324600D02*
X342400D01*
X336400Y318600D02*
Y330600D01*
X305000Y350000D02*
X317000D01*
X311000Y344000D02*
Y356000D01*
X305000Y324600D02*
X317000D01*
X311000Y318600D02*
Y330600D01*
X279600Y350000D02*
X291600D01*
X285600Y344000D02*
Y356000D01*
X279600Y324600D02*
X291600D01*
X285600Y318600D02*
Y330600D01*
X403500Y131000D02*
X406500D01*
X405000Y129500D02*
Y132500D01*
X237570Y328930D02*
X240570D01*
X239070Y327430D02*
Y330430D01*
X124730Y248930D02*
X127730D01*
X126230Y247430D02*
Y250430D01*
X349500Y175000D02*
X352500D01*
X351000Y173500D02*
Y176500D01*
X210500Y217000D02*
X213500D01*
X212000Y215500D02*
Y218500D01*
X274500Y288930D02*
X277500D01*
X276000Y287430D02*
Y290430D01*
X121150Y188930D02*
X124150D01*
X122650Y187430D02*
Y190430D01*
X188200Y254000D02*
X191200D01*
X189700Y252500D02*
Y255500D01*
X106150Y176420D02*
X109150D01*
X107650Y174920D02*
Y177920D01*
X347803Y154303D02*
X350803D01*
X349303Y152803D02*
Y155803D01*
X364500Y272000D02*
X367500D01*
X366000Y270500D02*
Y273500D01*
X292500Y171000D02*
X295500D01*
X294000Y169500D02*
Y172500D01*
X146500Y65000D02*
X149500D01*
X148000Y63500D02*
Y66500D01*
X332500Y189000D02*
X335500D01*
X334000Y187500D02*
Y190500D01*
X373500Y114000D02*
X376500D01*
X375000Y112500D02*
Y115500D01*
X526500Y199000D02*
X529500D01*
X528000Y197500D02*
Y200500D01*
X526500Y187000D02*
X529500D01*
X528000Y185500D02*
Y188500D01*
X475500Y107000D02*
X478500D01*
X477000Y105500D02*
Y108500D01*
X505500Y52000D02*
X508500D01*
X507000Y50500D02*
Y53500D01*
X475500Y52000D02*
X478500D01*
X477000Y50500D02*
Y53500D01*
X294500Y306000D02*
X297500D01*
X296000Y304500D02*
Y307500D01*
X360500Y306000D02*
X363500D01*
X362000Y304500D02*
Y307500D01*
X583500Y101000D02*
X586500D01*
X585000Y99500D02*
Y102500D01*
X550500Y286000D02*
X553500D01*
X552000Y284500D02*
Y287500D01*
X550500Y313000D02*
X553500D01*
X552000Y311500D02*
Y314500D01*
X550500Y339000D02*
X553500D01*
X552000Y337500D02*
Y340500D01*
X526500Y286000D02*
X529500D01*
X528000Y284500D02*
Y287500D01*
X526500Y313000D02*
X529500D01*
X528000Y311500D02*
Y314500D01*
X526500Y339000D02*
X529500D01*
X528000Y337500D02*
Y340500D01*
X338500Y245000D02*
X341500D01*
X340000Y243500D02*
Y246500D01*
X338500Y266000D02*
X341500D01*
X340000Y264500D02*
Y267500D01*
X583500Y128000D02*
X586500D01*
X585000Y126500D02*
Y129500D01*
X128500Y65000D02*
X131500D01*
X130000Y63500D02*
Y66500D01*
X108500Y60000D02*
X111500D01*
X110000Y58500D02*
Y61500D01*
X106500Y155000D02*
X109500D01*
X108000Y153500D02*
Y156500D01*
X74500Y98000D02*
X77500D01*
X76000Y96500D02*
Y99500D01*
X36500Y155000D02*
X39500D01*
X38000Y153500D02*
Y156500D01*
X74710Y119790D02*
X77710D01*
X76210Y118290D02*
Y121290D01*
X74710Y154790D02*
X77710D01*
X76210Y153290D02*
Y156290D01*
X18500Y255000D02*
X21500D01*
X20000Y253500D02*
Y256500D01*
X18500Y290000D02*
X21500D01*
X20000Y288500D02*
Y291500D01*
X18500Y325000D02*
X21500D01*
X20000Y323500D02*
Y326500D01*
X78500Y360000D02*
X81500D01*
X80000Y358500D02*
Y361500D01*
X48500Y360000D02*
X51500D01*
X50000Y358500D02*
Y361500D01*
X18500Y360000D02*
X21500D01*
X20000Y358500D02*
Y361500D01*
X78500Y395000D02*
X81500D01*
X80000Y393500D02*
Y396500D01*
X48500Y395000D02*
X51500D01*
X50000Y393500D02*
Y396500D01*
X18500Y395000D02*
X21500D01*
X20000Y393500D02*
Y396500D01*
X278500Y86000D02*
X281500D01*
X280000Y84500D02*
Y87500D01*
X344500Y59000D02*
X347500D01*
X346000Y57500D02*
Y60500D01*
X303500Y59000D02*
X306500D01*
X305000Y57500D02*
Y60500D01*
X361500Y89000D02*
X364500D01*
X363000Y87500D02*
Y90500D01*
X361500Y114000D02*
X364500D01*
X363000Y112500D02*
Y115500D01*
X286500Y101000D02*
X289500D01*
X288000Y99500D02*
Y102500D01*
X211500Y16000D02*
X214500D01*
X213000Y14500D02*
Y17500D01*
X241500Y16000D02*
X244500D01*
X243000Y14500D02*
Y17500D01*
X266500Y16000D02*
X269500D01*
X268000Y14500D02*
Y17500D01*
X295500Y32000D02*
X298500D01*
X297000Y30500D02*
Y33500D01*
X283500Y32000D02*
X286500D01*
X285000Y30500D02*
Y33500D01*
X381500Y53000D02*
X384500D01*
X383000Y51500D02*
Y54500D01*
X370500Y53000D02*
X373500D01*
X372000Y51500D02*
Y54500D01*
X358500Y32000D02*
X361500D01*
X360000Y30500D02*
Y33500D01*
X348500Y35000D02*
X351500D01*
X350000Y33500D02*
Y36500D01*
X554500Y128000D02*
X557500D01*
X556000Y126500D02*
Y129500D01*
X277500Y109660D02*
X280500D01*
X279000Y108160D02*
Y111160D01*
X367500Y143000D02*
X370500D01*
X369000Y141500D02*
Y144500D01*
X241500Y30030D02*
X244500D01*
X243000Y28530D02*
Y31530D01*
X420500Y51000D02*
X423500D01*
X422000Y49500D02*
Y52500D01*
X396500Y51000D02*
X399500D01*
X398000Y49500D02*
Y52500D01*
X420500Y85000D02*
X423500D01*
X422000Y83500D02*
Y86500D01*
X396500Y85000D02*
X399500D01*
X398000Y83500D02*
Y86500D01*
X392500Y122000D02*
X395500D01*
X394000Y120500D02*
Y123500D01*
X392500Y131000D02*
X395500D01*
X394000Y129500D02*
Y132500D01*
X403500Y122000D02*
X406500D01*
X405000Y120500D02*
Y123500D01*
X403500Y140000D02*
X406500D01*
X405000Y138500D02*
Y141500D01*
X240570Y65000D02*
X243570D01*
X242070Y63500D02*
Y66500D01*
X274500Y171000D02*
X277500D01*
X276000Y169500D02*
Y172500D01*
X74780Y189790D02*
X77780D01*
X76280Y188290D02*
Y191290D01*
M02*
